<svg width="74" height="74" viewBox="0 0 74 74" fill="none" xmlns="http://www.w3.org/2000/svg">
<path fill-rule="evenodd" clip-rule="evenodd" d="M36.7568 73.5135C57.057 73.5135 73.5135 57.057 73.5135 36.7568C73.5135 16.4566 57.057 0 36.7568 0C16.4566 0 0 16.4566 0 36.7568C0 57.057 16.4566 73.5135 36.7568 73.5135ZM50.7996 18.8566L48.6998 16.7568H56.5071V24.564L54.3866 22.4436L44.1011 32.729C43.1106 33.7196 41.5047 33.7196 40.5141 32.729C39.5236 31.7385 39.5236 30.1326 40.5141 29.1421L50.7996 18.8566ZM38.0741 31.6785L23.2328 18.0789C22.1669 17.1022 20.511 17.1745 19.5343 18.2404C18.5576 19.3063 18.6299 20.9621 19.6958 21.9389L34.2204 35.2482V48.3992C34.2204 49.8 35.356 50.9355 36.7568 50.9355C38.1576 50.9355 39.2931 49.8 39.2931 48.3992V33.8461C39.2931 32.9262 38.8032 32.1223 38.0741 31.6785ZM23.2848 51.684V39.6674C23.2848 38.2666 22.1492 37.131 20.7484 37.131C19.3476 37.131 18.2121 38.2665 18.2121 39.6674V51.684H15.2279L20.7484 57.2046L26.269 51.684H23.2848ZM55.3015 39.7409V54.6682C55.3015 56.069 54.1659 57.2046 52.7651 57.2046C51.3643 57.2046 50.2287 56.069 50.2287 54.6682V39.7409H47.2445L52.7651 34.2204L58.2856 39.7409H55.3015Z" fill="#22BB68"/>
</svg>
