<svg width="239" height="43" viewBox="0 0 239 43" fill="none" xmlns="http://www.w3.org/2000/svg">
<g filter="url(#filter0_d_333_571)">
<path fill-rule="evenodd" clip-rule="evenodd" d="M36.8059 16.3014C36.8059 25.3044 29.5075 32.6027 20.5045 32.6027C11.5015 32.6027 4.20312 25.3044 4.20312 16.3014C4.20312 7.29837 11.5015 0 20.5045 0C29.5075 0 36.8059 7.29837 36.8059 16.3014ZM25.8012 7.43151L26.7324 8.36276L22.1709 12.9243C21.7316 13.3636 21.7316 14.0758 22.1709 14.5151C22.6102 14.9544 23.3224 14.9544 23.7617 14.5151L28.3232 9.95356L29.2636 10.894V7.43151H25.8012ZM14.5067 8.01787L21.0887 14.0492C21.4121 14.246 21.6294 14.6026 21.6294 15.0105V21.4647C21.6294 22.0859 21.1257 22.5896 20.5045 22.5896C19.8832 22.5896 19.3796 22.0859 19.3796 21.4647V15.6323L12.9381 9.72973C12.4654 9.29657 12.4333 8.5622 12.8665 8.08949C13.2996 7.61677 14.034 7.58471 14.5067 8.01787ZM14.5298 17.5922V22.9215H15.8532L13.4049 25.3698L10.9566 22.9215H12.28V17.5922C12.28 16.971 12.7837 16.4673 13.4049 16.4673C14.0262 16.4673 14.5298 16.971 14.5298 17.5922ZM28.7289 16.3014V22.9215H30.0524L27.6041 25.3698L25.1557 22.9215H26.4792V16.3014C26.4792 15.6801 26.9828 15.1765 27.6041 15.1765C28.2253 15.1765 28.7289 15.6801 28.7289 16.3014Z" fill="#22BB68"/>
<path d="M61.0276 6.14552C61.4184 6.42559 61.6324 6.68699 61.6696 6.92972C61.7254 7.17244 61.6324 7.46185 61.3905 7.79793L54.8312 17.7964V24.378C54.8312 24.6208 54.8033 24.8448 54.7474 25.0502C54.6916 25.2369 54.5707 25.3769 54.3846 25.4703C54.2171 25.5823 53.9473 25.6383 53.5751 25.6383C53.203 25.6383 52.9239 25.5823 52.7378 25.4703C52.5703 25.3769 52.4494 25.2276 52.3749 25.0222C52.3191 24.8168 52.2912 24.5834 52.2912 24.322V17.7684L45.704 7.85395C45.4807 7.51786 45.3969 7.22846 45.4528 6.98573C45.5086 6.72433 45.7319 6.4536 46.1226 6.17353C46.4018 5.98682 46.6344 5.87479 46.8204 5.83745C47.0251 5.78143 47.2112 5.80944 47.3787 5.92147C47.5461 6.01482 47.7043 6.1922 47.8532 6.4536L53.5472 15.4158L59.2692 6.4536C59.4366 6.1922 59.5948 6.01482 59.7437 5.92147C59.9112 5.82811 60.0972 5.8001 60.3019 5.83745C60.5066 5.85612 60.7485 5.95881 61.0276 6.14552Z" fill="#22BB68"/>
<path d="M81.1716 25.8064C79.8504 25.8064 78.6037 25.5543 77.4314 25.0502C76.2777 24.5461 75.2542 23.8459 74.361 22.9497C73.4865 22.0348 72.798 20.9892 72.2956 19.8129C71.7931 18.6366 71.5419 17.367 71.5419 16.004C71.5419 14.6223 71.7838 13.3246 72.2676 12.111C72.7514 10.8787 73.4213 9.80509 74.2773 8.8902C75.1519 7.97531 76.1567 7.25646 77.2918 6.73367C78.4269 6.21087 79.6364 5.94947 80.9204 5.94947C82.2601 5.94947 83.5069 6.20154 84.6606 6.70566C85.8329 7.20979 86.847 7.9193 87.703 8.83419C88.5775 9.73041 89.266 10.7853 89.7684 11.999C90.2709 13.2126 90.5221 14.5103 90.5221 15.8919C90.5221 17.2549 90.2709 18.5339 89.7684 19.7289C89.2846 20.9052 88.6148 21.9601 87.7588 22.8937C86.9028 23.8086 85.9073 24.5274 84.7722 25.0502C83.6557 25.5543 82.4555 25.8064 81.1716 25.8064ZM81.0041 23.2578C81.9717 23.2578 82.8742 23.071 83.7116 22.6976C84.5675 22.3242 85.3118 21.8014 85.9445 21.1292C86.5772 20.4384 87.0703 19.6542 87.4238 18.7766C87.796 17.8804 87.9821 16.9095 87.9821 15.8639C87.9821 14.8557 87.796 13.9128 87.4238 13.0352C87.0703 12.139 86.5679 11.3548 85.9166 10.6826C85.2839 9.99181 84.5489 9.45034 83.7116 9.05824C82.8742 8.66615 81.981 8.4701 81.032 8.4701C80.083 8.4701 79.1898 8.66615 78.3525 9.05824C77.5151 9.45034 76.7708 9.98247 76.1195 10.6546C75.4868 11.3268 74.9844 12.111 74.6123 13.0072C74.2587 13.9034 74.0819 14.865 74.0819 15.8919C74.0819 16.9002 74.2587 17.8524 74.6123 18.7486C74.9844 19.6449 75.4868 20.4291 76.1195 21.1012C76.7708 21.7734 77.5058 22.3055 78.3245 22.6976C79.1619 23.071 80.0551 23.2578 81.0041 23.2578Z" fill="#22BB68"/>
<path d="M109.542 25.6944C108.295 25.6944 107.179 25.4796 106.192 25.0502C105.225 24.6021 104.397 23.9859 103.708 23.2017C103.038 22.3989 102.527 21.456 102.173 20.373C101.82 19.2714 101.643 18.0765 101.643 16.7882V7.32181C101.643 7.06042 101.671 6.83636 101.727 6.64965C101.801 6.46293 101.922 6.3229 102.089 6.22954C102.275 6.11752 102.555 6.0615 102.927 6.0615C103.299 6.0615 103.578 6.11752 103.764 6.22954C103.95 6.3229 104.071 6.46293 104.127 6.64965C104.183 6.83636 104.211 7.06975 104.211 7.34982V16.7882C104.211 18.0391 104.415 19.1407 104.825 20.093C105.234 21.0452 105.839 21.8014 106.639 22.3615C107.439 22.903 108.435 23.1737 109.626 23.1737C110.742 23.1737 111.7 22.9123 112.501 22.3895C113.301 21.8667 113.915 21.1292 114.343 20.177C114.771 19.2248 114.985 18.0858 114.985 16.7602V7.15377C114.985 6.92972 115.013 6.743 115.068 6.59363C115.143 6.42559 115.273 6.29489 115.459 6.20154C115.645 6.10818 115.924 6.0615 116.297 6.0615C116.65 6.0615 116.911 6.11752 117.078 6.22954C117.264 6.3229 117.385 6.46293 117.441 6.64965C117.497 6.83636 117.525 7.06975 117.525 7.34982V16.8442C117.525 18.1512 117.348 19.3461 116.994 20.4291C116.641 21.4933 116.12 22.4269 115.431 23.2298C114.761 24.0139 113.924 24.6208 112.919 25.0502C111.933 25.4796 110.807 25.6944 109.542 25.6944Z" fill="#22BB68"/>
<path d="M131.199 25.5543C130.38 25.5543 129.794 25.433 129.44 25.1902C129.087 24.9475 128.873 24.6301 128.798 24.238C128.724 23.8459 128.686 23.4258 128.686 22.9777V8.52611C128.686 8.11534 128.724 7.72325 128.798 7.34982C128.873 6.95772 129.087 6.64031 129.44 6.39758C129.794 6.13619 130.398 6.00549 131.254 6.00549C131.831 6.00549 132.25 6.04283 132.51 6.11752C132.79 6.1922 132.985 6.28556 133.097 6.39758C133.227 6.50961 133.357 6.64031 133.487 6.78968L139.265 14.2395H139.098L144.847 6.81769C145.034 6.6123 145.201 6.4536 145.35 6.34157C145.517 6.22954 145.731 6.14552 145.992 6.08951C146.271 6.03349 146.662 6.00549 147.164 6.00549C148.002 6.00549 148.597 6.13619 148.951 6.39758C149.304 6.64031 149.518 6.95772 149.593 7.34982C149.667 7.74192 149.704 8.15269 149.704 8.58212V23.0337C149.704 23.4445 149.667 23.8459 149.593 24.238C149.518 24.6301 149.304 24.9475 148.951 25.1902C148.597 25.433 147.992 25.5543 147.136 25.5543C146.299 25.5543 145.703 25.433 145.35 25.1902C144.996 24.9288 144.782 24.6021 144.708 24.21C144.633 23.7992 144.596 23.3885 144.596 22.9777V15.0237L141.331 19.4768C141.256 19.5702 141.144 19.7102 140.996 19.8969C140.847 20.0836 140.633 20.2517 140.354 20.4011C140.075 20.5504 139.684 20.6251 139.181 20.6251C138.679 20.6251 138.279 20.5504 137.981 20.4011C137.702 20.2517 137.488 20.093 137.339 19.9249C137.19 19.7382 137.079 19.5889 137.004 19.4768L133.766 15.0517V23.0337C133.766 23.4445 133.729 23.8459 133.655 24.238C133.58 24.6301 133.366 24.9475 133.013 25.1902C132.659 25.433 132.055 25.5543 131.199 25.5543Z" fill="#22BB68"/>
<path d="M169.036 25.8904C167.677 25.8904 166.403 25.6383 165.212 25.1342C164.04 24.6114 163.007 23.8926 162.114 22.9777C161.22 22.0628 160.513 21.0079 159.992 19.8129C159.49 18.5993 159.239 17.311 159.239 15.9479C159.239 14.5289 159.481 13.2033 159.964 11.971C160.467 10.7387 161.155 9.65572 162.03 8.72216C162.904 7.7886 163.919 7.06042 165.072 6.53762C166.245 6.01482 167.491 5.75342 168.813 5.75342C170.171 5.75342 171.436 6.01482 172.609 6.53762C173.799 7.04174 174.842 7.75125 175.735 8.66615C176.628 9.58104 177.326 10.6546 177.828 11.8869C178.331 13.1006 178.582 14.4169 178.582 15.8359C178.582 17.2176 178.331 18.5153 177.828 19.7289C177.344 20.9425 176.656 22.0161 175.763 22.9497C174.888 23.8646 173.874 24.5834 172.72 25.1062C171.585 25.629 170.357 25.8904 169.036 25.8904ZM168.896 20.7651C169.529 20.7651 170.124 20.6438 170.683 20.4011C171.241 20.1397 171.725 19.7942 172.134 19.3648C172.562 18.9167 172.888 18.3939 173.111 17.7964C173.353 17.1803 173.474 16.5268 173.474 15.8359C173.474 15.1451 173.353 14.5009 173.111 13.9034C172.869 13.306 172.534 12.7832 172.106 12.3351C171.697 11.8683 171.213 11.5135 170.655 11.2708C170.115 11.0094 169.538 10.8787 168.924 10.8787C168.292 10.8787 167.696 11.0094 167.138 11.2708C166.598 11.5135 166.114 11.8683 165.686 12.3351C165.277 12.7832 164.951 13.306 164.709 13.9034C164.468 14.5009 164.347 15.1451 164.347 15.8359C164.347 16.5081 164.468 17.1429 164.709 17.7404C164.951 18.3379 165.277 18.87 165.686 19.3368C166.114 19.7849 166.598 20.1397 167.138 20.4011C167.696 20.6438 168.282 20.7651 168.896 20.7651Z" fill="#22BB68"/>
<path d="M197.526 25.8904C196.167 25.8904 194.893 25.6383 193.702 25.1342C192.529 24.6114 191.497 23.8926 190.603 22.9777C189.71 22.0628 189.003 21.0079 188.482 19.8129C187.98 18.5993 187.729 17.311 187.729 15.9479C187.729 14.5289 187.97 13.2033 188.454 11.971C188.957 10.7387 189.645 9.65572 190.52 8.72216C191.394 7.7886 192.408 7.06042 193.562 6.53762C194.734 6.01482 195.981 5.75342 197.302 5.75342C198.661 5.75342 199.926 6.01482 201.098 6.53762C202.289 7.04174 203.331 7.75125 204.225 8.66615C205.118 9.58104 205.816 10.6546 206.318 11.8869C206.82 13.1006 207.072 14.4169 207.072 15.8359C207.072 17.2176 206.82 18.5153 206.318 19.7289C205.834 20.9425 205.146 22.0161 204.252 22.9497C203.378 23.8646 202.364 24.5834 201.21 25.1062C200.075 25.629 198.847 25.8904 197.526 25.8904ZM197.386 20.7651C198.019 20.7651 198.614 20.6438 199.172 20.4011C199.731 20.1397 200.215 19.7942 200.624 19.3648C201.052 18.9167 201.378 18.3939 201.601 17.7964C201.843 17.1803 201.964 16.5268 201.964 15.8359C201.964 15.1451 201.843 14.5009 201.601 13.9034C201.359 13.306 201.024 12.7832 200.596 12.3351C200.187 11.8683 199.703 11.5135 199.145 11.2708C198.605 11.0094 198.028 10.8787 197.414 10.8787C196.781 10.8787 196.186 11.0094 195.628 11.2708C195.088 11.5135 194.604 11.8683 194.176 12.3351C193.767 12.7832 193.441 13.306 193.199 13.9034C192.957 14.5009 192.836 15.1451 192.836 15.8359C192.836 16.5081 192.957 17.1429 193.199 17.7404C193.441 18.3379 193.767 18.87 194.176 19.3368C194.604 19.7849 195.088 20.1397 195.628 20.4011C196.186 20.6438 196.772 20.7651 197.386 20.7651Z" fill="#22BB68"/>
<path d="M224.926 25.5543C224.312 25.5543 223.791 25.4423 223.363 25.2182C222.935 24.9755 222.618 24.6208 222.414 24.154L215.799 9.56237C215.445 8.74083 215.352 8.09667 215.519 7.62989C215.706 7.14444 216.227 6.69633 217.083 6.28556C217.678 5.94947 218.18 5.78143 218.59 5.78143C219.018 5.76276 219.381 5.89346 219.678 6.17353C219.976 6.4536 220.237 6.88304 220.46 7.46185L224.87 18.3565L229.28 7.46185C229.522 6.88304 229.792 6.4536 230.09 6.17353C230.387 5.89346 230.75 5.76276 231.178 5.78143C231.606 5.8001 232.099 5.96815 232.657 6.28556C233.588 6.73367 234.127 7.19111 234.276 7.6579C234.425 8.10601 234.314 8.74083 233.941 9.56237L227.326 24.154C227.14 24.5647 226.824 24.9008 226.377 25.1622C225.949 25.4236 225.465 25.5543 224.926 25.5543Z" fill="#22BB68"/>
<path d="M182.697 34.9697C182.485 34.9697 182.279 34.9375 182.079 34.8729C181.878 34.8084 181.692 34.7156 181.519 34.5945C181.346 34.4735 181.193 34.3242 181.06 34.1467C180.93 33.9651 180.828 33.7634 180.753 33.5415C180.679 33.3155 180.641 33.0674 180.641 32.7971C180.641 32.5389 180.679 32.3008 180.753 32.0829C180.828 31.861 180.93 31.6654 181.06 31.4959C181.189 31.3264 181.34 31.1832 181.513 31.0662C181.69 30.9452 181.878 30.8544 182.079 30.7939C182.283 30.7293 182.491 30.697 182.703 30.697C182.899 30.697 183.068 30.7172 183.209 30.7576C183.351 30.7979 183.467 30.8423 183.557 30.8907C183.647 30.9351 183.708 30.9694 183.739 30.9936C183.794 31.0259 183.847 31.0642 183.898 31.1086C183.95 31.153 183.977 31.2054 183.981 31.2659C183.989 31.3103 183.985 31.3466 183.969 31.3749C183.957 31.4031 183.942 31.4334 183.922 31.4656C183.891 31.5141 183.857 31.5504 183.822 31.5746C183.79 31.5947 183.755 31.6048 183.716 31.6048C183.677 31.6048 183.641 31.5927 183.61 31.5685C183.578 31.5443 183.537 31.5161 183.486 31.4838C183.463 31.4677 183.416 31.4414 183.345 31.4051C183.274 31.3688 183.184 31.3345 183.074 31.3022C182.964 31.2659 182.83 31.2478 182.673 31.2478C182.473 31.2478 182.281 31.2861 182.096 31.3628C181.916 31.4354 181.757 31.5403 181.619 31.6775C181.482 31.8146 181.374 31.9801 181.295 32.1737C181.217 32.3674 181.177 32.5853 181.177 32.8273C181.177 33.0734 181.217 33.2954 181.295 33.4931C181.374 33.6867 181.482 33.8521 181.619 33.9893C181.761 34.1265 181.921 34.2314 182.102 34.304C182.283 34.3766 182.473 34.413 182.673 34.413C182.823 34.413 182.952 34.3968 183.062 34.3645C183.176 34.3323 183.268 34.298 183.339 34.2617C183.414 34.2213 183.465 34.1911 183.492 34.1709C183.535 34.1467 183.573 34.1225 183.604 34.0983C183.639 34.074 183.677 34.0619 183.716 34.0619C183.755 34.0619 183.79 34.074 183.822 34.0983C183.857 34.1184 183.891 34.1527 183.922 34.2011C183.942 34.2294 183.957 34.2617 183.969 34.298C183.985 34.3302 183.989 34.3666 183.981 34.4069C183.977 34.4674 183.95 34.5199 183.898 34.5643C183.847 34.6046 183.794 34.6429 183.739 34.6792C183.704 34.6954 183.641 34.7297 183.551 34.7821C183.465 34.8305 183.351 34.8729 183.209 34.9092C183.068 34.9496 182.897 34.9697 182.697 34.9697Z" fill="#22BB68"/>
<path d="M187.756 35C187.477 35 187.214 34.9455 186.967 34.8366C186.723 34.7277 186.508 34.5764 186.319 34.3827C186.135 34.185 185.989 33.9591 185.883 33.7049C185.777 33.4507 185.724 33.1763 185.724 32.8818C185.724 32.5832 185.775 32.3028 185.877 32.0406C185.979 31.7743 186.121 31.5423 186.301 31.3446C186.486 31.1469 186.698 30.9916 186.937 30.8786C187.177 30.7656 187.432 30.7091 187.703 30.7091C187.986 30.7091 188.249 30.7636 188.492 30.8725C188.74 30.9815 188.954 31.1348 189.134 31.3325C189.319 31.5262 189.464 31.7541 189.57 32.0164C189.676 32.2786 189.729 32.559 189.729 32.8576C189.729 33.1521 189.676 33.4285 189.57 33.6867C189.468 33.9409 189.327 34.1689 189.146 34.3706C188.965 34.5683 188.755 34.7236 188.516 34.8366C188.28 34.9455 188.027 35 187.756 35ZM187.721 34.4493C187.925 34.4493 188.115 34.4089 188.292 34.3282C188.473 34.2475 188.63 34.1346 188.763 33.9893C188.897 33.84 189.001 33.6706 189.075 33.4809C189.154 33.2873 189.193 33.0775 189.193 32.8515C189.193 32.6337 189.154 32.4299 189.075 32.2403C189.001 32.0466 188.895 31.8772 188.757 31.7319C188.624 31.5826 188.469 31.4656 188.292 31.3809C188.115 31.2962 187.927 31.2538 187.727 31.2538C187.526 31.2538 187.338 31.2962 187.161 31.3809C186.985 31.4656 186.828 31.5806 186.69 31.7259C186.557 31.8711 186.451 32.0406 186.372 32.2342C186.297 32.4279 186.26 32.6357 186.26 32.8576C186.26 33.0755 186.297 33.2812 186.372 33.4749C186.451 33.6686 186.557 33.838 186.69 33.9833C186.828 34.1285 186.983 34.2435 187.155 34.3282C187.332 34.4089 187.521 34.4493 187.721 34.4493Z" fill="#22BB68"/>
<path d="M193.077 34.9576C193.006 34.9576 192.947 34.9455 192.9 34.9213C192.857 34.9011 192.823 34.8648 192.8 34.8124L191.31 31.0723C191.271 30.9754 191.263 30.9068 191.286 30.8665C191.314 30.8261 191.371 30.7838 191.457 30.7394C191.512 30.7112 191.559 30.697 191.598 30.697C191.642 30.693 191.679 30.7051 191.71 30.7333C191.746 30.7576 191.775 30.7999 191.799 30.8604L193.077 34.1951L194.349 30.9149C194.372 30.8503 194.398 30.7999 194.425 30.7636C194.457 30.7233 194.496 30.7011 194.543 30.697C194.59 30.689 194.649 30.7051 194.72 30.7455C194.83 30.7979 194.885 30.8564 194.885 30.921C194.885 30.9815 194.869 31.0501 194.838 31.1267L193.354 34.8063C193.334 34.8548 193.301 34.8911 193.253 34.9153C193.206 34.9435 193.147 34.9576 193.077 34.9576Z" fill="#22BB68"/>
<path d="M198.452 35C198.173 35 197.91 34.9455 197.662 34.8366C197.419 34.7277 197.203 34.5764 197.015 34.3827C196.83 34.185 196.685 33.9591 196.579 33.7049C196.473 33.4507 196.42 33.1763 196.42 32.8818C196.42 32.5832 196.471 32.3028 196.573 32.0406C196.675 31.7743 196.816 31.5423 196.997 31.3446C197.181 31.1469 197.393 30.9916 197.633 30.8786C197.872 30.7656 198.128 30.7091 198.399 30.7091C198.681 30.7091 198.944 30.7636 199.188 30.8725C199.435 30.9815 199.649 31.1348 199.83 31.3325C200.014 31.5262 200.16 31.7541 200.266 32.0164C200.372 32.2786 200.425 32.559 200.425 32.8576C200.425 33.1521 200.372 33.4285 200.266 33.6867C200.164 33.9409 200.022 34.1689 199.842 34.3706C199.661 34.5683 199.451 34.7236 199.211 34.8366C198.976 34.9455 198.723 35 198.452 35ZM198.416 34.4493C198.62 34.4493 198.811 34.4089 198.988 34.3282C199.168 34.2475 199.325 34.1346 199.459 33.9893C199.592 33.84 199.696 33.6706 199.771 33.4809C199.849 33.2873 199.889 33.0775 199.889 32.8515C199.889 32.6337 199.849 32.4299 199.771 32.2403C199.696 32.0466 199.59 31.8772 199.453 31.7319C199.319 31.5826 199.164 31.4656 198.988 31.3809C198.811 31.2962 198.622 31.2538 198.422 31.2538C198.222 31.2538 198.033 31.2962 197.857 31.3809C197.68 31.4656 197.523 31.5806 197.386 31.7259C197.252 31.8711 197.146 32.0406 197.068 32.2342C196.993 32.4279 196.956 32.6357 196.956 32.8576C196.956 33.0755 196.993 33.2812 197.068 33.4749C197.146 33.6686 197.252 33.838 197.386 33.9833C197.523 34.1285 197.678 34.2435 197.851 34.3282C198.028 34.4089 198.216 34.4493 198.416 34.4493Z" fill="#22BB68"/>
<path d="M202.512 34.9576C202.434 34.9576 202.375 34.9455 202.335 34.9213C202.3 34.9011 202.276 34.8709 202.265 34.8305C202.253 34.7862 202.247 34.7357 202.247 34.6792V31.0057C202.247 30.9492 202.253 30.9008 202.265 30.8604C202.28 30.8201 202.306 30.7898 202.341 30.7697C202.381 30.7455 202.439 30.7333 202.518 30.7333C202.596 30.7333 202.653 30.7455 202.689 30.7697C202.728 30.7898 202.752 30.8201 202.759 30.8604C202.771 30.9008 202.777 30.9512 202.777 31.0117V34.6853C202.777 34.7418 202.771 34.7902 202.759 34.8305C202.748 34.8709 202.722 34.9011 202.683 34.9213C202.648 34.9455 202.591 34.9576 202.512 34.9576Z" fill="#22BB68"/>
<path d="M207.906 30.7333C207.957 30.7333 207.998 30.7394 208.029 30.7515C208.065 30.7636 208.092 30.7878 208.112 30.8241C208.132 30.8564 208.141 30.9109 208.141 30.9875C208.141 31.0602 208.13 31.1146 208.106 31.1509C208.086 31.1872 208.059 31.2115 208.024 31.2236C207.988 31.2316 207.945 31.2357 207.894 31.2357H206.675V34.6913C206.675 34.7438 206.667 34.7902 206.651 34.8305C206.639 34.8709 206.614 34.9011 206.575 34.9213C206.539 34.9455 206.484 34.9576 206.41 34.9576C206.331 34.9576 206.272 34.9455 206.233 34.9213C206.198 34.9011 206.174 34.8709 206.162 34.8305C206.155 34.7862 206.151 34.7377 206.151 34.6853V31.2357H204.914C204.863 31.2357 204.82 31.2316 204.784 31.2236C204.749 31.2115 204.721 31.1872 204.702 31.1509C204.682 31.1146 204.672 31.0602 204.672 30.9875C204.672 30.9109 204.68 30.8564 204.696 30.8241C204.716 30.7878 204.743 30.7636 204.778 30.7515C204.818 30.7394 204.861 30.7333 204.908 30.7333H207.906Z" fill="#22BB68"/>
<path d="M211.746 34.9758C211.483 34.9758 211.248 34.9294 211.039 34.8366C210.835 34.7398 210.661 34.6066 210.515 34.4372C210.374 34.2637 210.266 34.0599 210.191 33.8259C210.117 33.5879 210.079 33.3297 210.079 33.0513V31.0057C210.079 30.9492 210.085 30.9008 210.097 30.8604C210.113 30.8201 210.138 30.7898 210.174 30.7697C210.213 30.7455 210.272 30.7333 210.35 30.7333C210.429 30.7333 210.488 30.7455 210.527 30.7697C210.566 30.7898 210.592 30.8201 210.604 30.8604C210.615 30.9008 210.621 30.9512 210.621 31.0117V33.0513C210.621 33.3216 210.664 33.5596 210.751 33.7654C210.837 33.9712 210.965 34.1346 211.134 34.2556C211.303 34.3726 211.513 34.4311 211.764 34.4311C211.999 34.4311 212.202 34.3746 212.37 34.2617C212.539 34.1487 212.669 33.9893 212.759 33.7835C212.85 33.5778 212.895 33.3317 212.895 33.0452V30.9694C212.895 30.921 212.901 30.8806 212.912 30.8483C212.928 30.812 212.956 30.7838 212.995 30.7636C213.034 30.7434 213.093 30.7333 213.171 30.7333C213.246 30.7333 213.301 30.7455 213.336 30.7697C213.376 30.7898 213.401 30.8201 213.413 30.8604C213.425 30.9008 213.431 30.9512 213.431 31.0117V33.0634C213.431 33.3458 213.393 33.604 213.319 33.838C213.244 34.068 213.134 34.2697 212.989 34.4432C212.848 34.6127 212.671 34.7438 212.459 34.8366C212.251 34.9294 212.013 34.9758 211.746 34.9758Z" fill="#22BB68"/>
<path d="M215.857 34.9576C215.782 34.9576 215.725 34.9455 215.686 34.9213C215.646 34.9011 215.621 34.8709 215.609 34.8305C215.601 34.7862 215.597 34.7357 215.597 34.6792V30.9996C215.597 30.9472 215.603 30.9028 215.615 30.8665C215.631 30.8261 215.656 30.7939 215.692 30.7697C215.731 30.7455 215.788 30.7333 215.862 30.7333H217.164C217.356 30.7333 217.531 30.7636 217.688 30.8241C217.849 30.8806 217.989 30.9653 218.106 31.0783C218.224 31.1913 218.314 31.3345 218.377 31.508C218.444 31.6775 218.477 31.8752 218.477 32.1011C218.477 32.2423 218.456 32.3896 218.413 32.5429C218.369 32.6922 218.303 32.8334 218.212 32.9665C218.126 33.0997 218.014 33.2106 217.877 33.2994C217.739 33.3882 217.572 33.4386 217.376 33.4507H216.127V34.6853C216.127 34.7418 216.12 34.7902 216.104 34.8305C216.092 34.8709 216.067 34.9011 216.027 34.9213C215.992 34.9455 215.935 34.9576 215.857 34.9576ZM218.383 34.8911C218.301 34.9475 218.23 34.9657 218.171 34.9455C218.116 34.9254 218.063 34.8769 218.012 34.8003L217.07 33.251L217.653 33.1602L218.466 34.4916C218.505 34.5562 218.528 34.6107 218.536 34.655C218.548 34.6994 218.54 34.7398 218.513 34.7761C218.489 34.8124 218.446 34.8507 218.383 34.8911ZM216.127 32.9181H217.294C217.384 32.9181 217.468 32.902 217.547 32.8697C217.625 32.8334 217.694 32.7809 217.753 32.7123C217.812 32.6438 217.859 32.559 217.894 32.4582C217.93 32.3573 217.947 32.2363 217.947 32.095C217.947 31.9216 217.916 31.7743 217.853 31.6532C217.794 31.5322 217.706 31.4414 217.588 31.3809C217.47 31.3164 217.325 31.2841 217.152 31.2841H216.127V32.9181Z" fill="#22BB68"/>
<path d="M224.097 34.5703C224.129 34.6308 224.144 34.6833 224.144 34.7277C224.148 34.768 224.137 34.8063 224.109 34.8426C224.082 34.8749 224.038 34.9052 223.98 34.9334C223.885 34.9778 223.811 34.9879 223.756 34.9637C223.705 34.9395 223.658 34.881 223.614 34.7882L222.142 31.5685L220.681 34.7821C220.638 34.8749 220.589 34.9334 220.534 34.9576C220.483 34.9818 220.408 34.9718 220.31 34.9274C220.251 34.9032 220.208 34.8729 220.181 34.8366C220.157 34.8003 220.147 34.7559 220.151 34.7034C220.159 34.651 220.179 34.5905 220.21 34.5219L221.901 30.8968C221.924 30.8483 221.957 30.81 222.001 30.7818C222.048 30.7495 222.097 30.7333 222.148 30.7333C222.183 30.7333 222.217 30.7394 222.248 30.7515C222.279 30.7636 222.307 30.7818 222.33 30.806C222.354 30.8302 222.374 30.8625 222.389 30.9028L224.097 34.5703ZM221.035 33.7533L221.235 33.2873H223.061L223.255 33.7533H221.035Z" fill="#22BB68"/>
<path d="M227.844 34.9697C227.538 34.9697 227.263 34.9193 227.019 34.8184C226.776 34.7135 226.566 34.5663 226.389 34.3766C226.216 34.183 226.083 33.951 225.989 33.6807C225.894 33.4103 225.847 33.1098 225.847 32.7789C225.847 32.4642 225.894 32.1798 225.989 31.9256C226.087 31.6714 226.226 31.4535 226.407 31.272C226.587 31.0904 226.803 30.9492 227.055 30.8483C227.306 30.7434 227.589 30.689 227.903 30.6849C228.024 30.6849 228.148 30.697 228.274 30.7212C228.403 30.7455 228.527 30.7797 228.645 30.8241C228.763 30.8685 228.869 30.921 228.963 30.9815C229.03 31.0259 229.087 31.0723 229.134 31.1207C229.181 31.1651 229.206 31.2115 229.21 31.2599C229.214 31.2841 229.21 31.3143 229.198 31.3506C229.187 31.387 229.171 31.4213 229.151 31.4535C229.12 31.502 229.085 31.5383 229.045 31.5625C229.01 31.5826 228.975 31.5927 228.939 31.5927C228.924 31.5927 228.896 31.5826 228.857 31.5625C228.818 31.5423 228.768 31.512 228.71 31.4717C228.643 31.4313 228.564 31.393 228.474 31.3567C228.388 31.3204 228.293 31.2921 228.191 31.272C228.089 31.2518 227.983 31.2417 227.873 31.2417C227.571 31.2417 227.308 31.3043 227.084 31.4293C226.86 31.5544 226.687 31.7339 226.566 31.968C226.448 32.202 226.387 32.4783 226.383 32.7971C226.387 33.1279 226.45 33.4144 226.572 33.6565C226.693 33.8985 226.864 34.0861 227.084 34.2193C227.308 34.3524 227.569 34.419 227.867 34.419C227.966 34.419 228.066 34.4109 228.168 34.3948C228.27 34.3787 228.37 34.3565 228.468 34.3282C228.57 34.296 228.664 34.2576 228.751 34.2132V33.0452H227.72C227.669 33.0452 227.624 33.0392 227.585 33.0271C227.549 33.0149 227.522 32.9907 227.502 32.9544C227.486 32.9181 227.479 32.8636 227.479 32.791C227.479 32.7184 227.488 32.6639 227.508 32.6276C227.528 32.5913 227.555 32.5671 227.591 32.555C227.626 32.5429 227.669 32.5368 227.72 32.5368H228.998C229.077 32.5368 229.136 32.551 229.175 32.5792C229.214 32.6074 229.242 32.6438 229.257 32.6881C229.277 32.7285 229.287 32.7789 229.287 32.8394V34.3282C229.287 34.3928 229.251 34.4614 229.181 34.534C229.114 34.6026 229.018 34.6671 228.892 34.7277C228.802 34.7761 228.7 34.8184 228.586 34.8548C228.476 34.8911 228.358 34.9193 228.232 34.9395C228.107 34.9597 227.977 34.9697 227.844 34.9697Z" fill="#22BB68"/>
<path d="M231.696 34.9576C231.617 34.9576 231.558 34.9455 231.519 34.9213C231.484 34.9011 231.46 34.8709 231.448 34.8305C231.437 34.7862 231.431 34.7357 231.431 34.6792V31.0057C231.431 30.9008 231.45 30.8302 231.49 30.7939C231.533 30.7535 231.607 30.7333 231.713 30.7333H234.081C234.136 30.7333 234.183 30.7394 234.222 30.7515C234.262 30.7636 234.291 30.7898 234.311 30.8302C234.33 30.8705 234.34 30.931 234.34 31.0117C234.34 31.0924 234.328 31.153 234.305 31.1933C234.285 31.2296 234.256 31.2538 234.216 31.2659C234.177 31.278 234.13 31.2841 234.075 31.2841H231.961V32.5368H233.433C233.488 32.5368 233.533 32.5429 233.569 32.555C233.608 32.5671 233.637 32.5913 233.657 32.6276C233.677 32.6639 233.686 32.7204 233.686 32.7971C233.686 32.8697 233.677 32.9242 233.657 32.9605C233.637 32.9968 233.608 33.021 233.569 33.0331C233.529 33.0412 233.48 33.0452 233.421 33.0452H231.961V34.413H234.081C234.136 34.413 234.183 34.419 234.222 34.4311C234.262 34.4432 234.291 34.4694 234.311 34.5098C234.33 34.5461 234.34 34.6046 234.34 34.6853C234.34 34.766 234.328 34.8265 234.305 34.8669C234.285 34.9032 234.256 34.9274 234.216 34.9395C234.177 34.9516 234.13 34.9576 234.075 34.9576H231.696Z" fill="#22BB68"/>
</g>
<defs>
<filter id="filter0_d_333_571" x="0.203125" y="0" width="238.137" height="43" filterUnits="userSpaceOnUse" color-interpolation-filters="sRGB">
<feFlood flood-opacity="0" result="BackgroundImageFix"/>
<feColorMatrix in="SourceAlpha" type="matrix" values="0 0 0 0 0 0 0 0 0 0 0 0 0 0 0 0 0 0 127 0" result="hardAlpha"/>
<feOffset dy="4"/>
<feGaussianBlur stdDeviation="2"/>
<feComposite in2="hardAlpha" operator="out"/>
<feColorMatrix type="matrix" values="0 0 0 0 0 0 0 0 0 0 0 0 0 0 0 0 0 0 0.15 0"/>
<feBlend mode="normal" in2="BackgroundImageFix" result="effect1_dropShadow_333_571"/>
<feBlend mode="normal" in="SourceGraphic" in2="effect1_dropShadow_333_571" result="shape"/>
</filter>
</defs>
</svg>
