<svg width="480" height="74" viewBox="0 0 480 74" fill="none" xmlns="http://www.w3.org/2000/svg">
<path fill-rule="evenodd" clip-rule="evenodd" d="M34 68C52.7777 68 68 52.7777 68 34C68 15.2223 52.7777 0 34 0C15.2223 0 0 15.2223 0 34C0 52.7777 15.2223 68 34 68ZM46.9896 17.4423L45.0473 15.5H52.269V22.7217L50.3076 20.7603L40.7935 30.2744C39.8773 31.1906 38.3918 31.1906 37.4756 30.2744C36.5593 29.3581 36.5593 27.8726 37.4756 26.9564L46.9896 17.4423ZM35.2186 29.3026L21.4903 16.723C20.5044 15.8195 18.9727 15.8864 18.0692 16.8724C17.1658 17.8583 17.2327 19.39 18.2186 20.2934L31.6538 32.6046V44.7692C31.6538 46.065 32.7043 47.1154 34 47.1154C35.2957 47.1154 36.3462 46.065 36.3462 44.7692V31.3077C36.3462 30.4568 35.8929 29.7132 35.2186 29.3026ZM21.5385 47.8077V36.6923C21.5385 35.3966 20.4881 34.3462 19.1923 34.3462C17.8966 34.3462 16.8462 35.3966 16.8462 36.6923V47.8077H14.0858L19.1923 52.9142L24.2988 47.8077H21.5385ZM51.1538 47.8077V34C51.1538 32.7043 50.1034 31.6538 48.8077 31.6538C47.5119 31.6538 46.4615 32.7043 46.4615 34V47.8077H43.7012L48.8077 52.9142L53.9142 47.8077H51.1538Z" fill="#22BB68"/>
<path fill-rule="evenodd" clip-rule="evenodd" d="M343.794 55C340.961 55 338.302 54.4743 335.818 53.4228C333.373 52.3324 331.219 50.8331 329.356 48.9249C327.493 47.0167 326.018 44.8164 324.932 42.3241C323.884 39.7928 323.36 37.1057 323.36 34.2629C323.36 31.3032 323.865 28.5382 324.874 25.968C325.921 23.3978 327.357 21.1391 329.182 19.1919C331.006 17.2448 333.121 15.726 335.527 14.6356C337.972 13.5452 340.573 13 343.328 13C346.161 13 348.801 13.5452 351.246 14.6356C353.729 15.6871 355.903 17.1669 357.766 19.0751C359.629 20.9833 361.084 23.2225 362.132 25.7928C363.18 28.3241 363.704 31.0695 363.704 34.0292C363.704 36.911 363.18 39.6175 362.132 42.1488C361.123 44.6801 359.687 46.9193 357.824 48.8665C356 50.7747 353.885 52.274 351.478 53.3644C349.111 54.4548 346.549 55 343.794 55ZM343.503 44.3102C344.822 44.3102 346.064 44.057 347.229 43.5508C348.393 43.0056 349.402 42.2851 350.256 41.3894C351.149 40.4548 351.828 39.3644 352.293 38.1182C352.798 36.8331 353.05 35.4701 353.05 34.0292C353.05 32.5883 352.798 31.2448 352.293 29.9986C351.789 28.7524 351.09 27.662 350.198 26.7274C349.344 25.7538 348.335 25.0139 347.17 24.5077C346.045 23.9624 344.842 23.6898 343.561 23.6898C342.241 23.6898 341 23.9624 339.835 24.5077C338.71 25.0139 337.701 25.7538 336.808 26.7274C335.954 27.662 335.275 28.7524 334.77 29.9986C334.266 31.2448 334.014 32.5883 334.014 34.0292C334.014 35.4312 334.266 36.7552 334.77 38.0014C335.275 39.2476 335.954 40.3574 336.808 41.331C337.701 42.2656 338.71 43.0056 339.835 43.5508C341 44.057 342.222 44.3102 343.503 44.3102Z" fill="#22BB68"/>
<path d="M119.859 15.4534C119.781 14.9472 119.335 14.4019 118.52 13.8178C117.938 13.4284 117.433 13.2142 117.006 13.1752C116.579 13.0974 116.191 13.1558 115.842 13.3505C115.531 13.5452 115.201 13.9152 114.852 14.4604L102.918 33.153L91.0415 14.4604C90.731 13.9152 90.4012 13.5452 90.0519 13.3505C89.7026 13.1168 89.3145 13.0584 88.8875 13.1752C88.4994 13.2531 88.0143 13.4868 87.4321 13.8762C86.6171 14.4604 86.1514 15.025 86.0349 15.5702C85.9185 16.0765 86.0931 16.6801 86.5589 17.3811L100.298 38.0598V51.7288C100.298 52.274 100.356 52.7608 100.473 53.1892C100.628 53.6175 100.88 53.9291 101.229 54.1238C101.618 54.3574 102.2 54.4743 102.976 54.4743C103.752 54.4743 104.315 54.3574 104.664 54.1238C105.052 53.9291 105.305 53.637 105.421 53.2476C105.537 52.8192 105.596 52.3519 105.596 51.8456V38.1182L119.276 17.2643C119.781 16.5633 119.975 15.9597 119.859 15.4534Z" fill="#22BB68"/>
<path fill-rule="evenodd" clip-rule="evenodd" d="M160.534 54.8248C157.779 54.8248 155.178 54.299 152.733 53.2476C150.327 52.1961 148.192 50.7357 146.329 48.8665C144.505 46.9583 143.069 44.7775 142.021 42.3241C140.973 39.8707 140.45 37.2225 140.45 34.3797C140.45 31.4979 140.954 28.7914 141.963 26.2601C142.972 23.6898 144.369 21.4506 146.155 19.5424C147.979 17.6342 150.075 16.1349 152.442 15.0445C154.81 13.9541 157.332 13.4089 160.01 13.4089C162.805 13.4089 165.405 13.9346 167.811 14.9861C170.256 16.0376 172.371 17.5174 174.157 19.4256C175.981 21.2949 177.417 23.4951 178.465 26.0264C179.513 28.5577 180.037 31.2643 180.037 34.146C180.037 36.9889 179.513 39.6565 178.465 42.1488C177.456 44.6022 176.059 46.8025 174.273 48.7497C172.488 50.6579 170.412 52.1572 168.044 53.2476C165.715 54.299 163.212 54.8248 160.534 54.8248ZM160.185 49.509C162.203 49.509 164.085 49.1196 165.832 48.3408C167.617 47.5619 169.17 46.4715 170.489 45.0695C171.809 43.6287 172.837 41.993 173.575 40.1627C174.351 38.2935 174.739 36.2684 174.739 34.0876C174.739 31.9847 174.351 30.0181 173.575 28.1878C172.837 26.3185 171.789 24.6829 170.431 23.2809C169.111 21.8401 167.578 20.7107 165.832 19.8929C164.085 19.0751 162.222 18.6662 160.243 18.6662C158.264 18.6662 156.401 19.0751 154.654 19.8929C152.908 20.7107 151.355 21.8206 149.997 23.2225C148.677 24.6245 147.63 26.2601 146.853 28.1293C146.116 29.9986 145.747 32.0042 145.747 34.146C145.747 36.249 146.116 38.235 146.853 40.1043C147.63 41.9736 148.677 43.6092 149.997 45.0111C151.355 46.4131 152.888 47.5229 154.596 48.3408C156.343 49.1196 158.206 49.509 160.185 49.509Z" fill="#22BB68"/>
<path d="M219.707 54.5911C217.106 54.5911 214.778 54.1433 212.721 53.2476C210.702 52.3129 208.975 51.0278 207.539 49.3922C206.142 47.7177 205.075 45.751 204.337 43.4924C203.6 41.1947 203.231 38.7024 203.231 36.0153V16.2712C203.231 15.726 203.29 15.2587 203.406 14.8693C203.561 14.4798 203.814 14.1878 204.163 13.993C204.551 13.7594 205.133 13.6426 205.909 13.6426C206.686 13.6426 207.268 13.7594 207.656 13.993C208.044 14.1878 208.296 14.4798 208.413 14.8693C208.529 15.2587 208.587 15.7455 208.587 16.3296V36.0153C208.587 38.6245 209.014 40.9221 209.868 42.9082C210.722 44.8943 211.983 46.4715 213.652 47.6398C215.321 48.7691 217.397 49.3338 219.881 49.3338C222.21 49.3338 224.209 48.7886 225.878 47.6982C227.546 46.6078 228.827 45.0695 229.72 43.0835C230.612 41.0974 231.059 38.7218 231.059 35.9569V15.9207C231.059 15.4534 231.117 15.064 231.233 14.7524C231.389 14.4019 231.66 14.1293 232.048 13.9346C232.437 13.7399 233.019 13.6426 233.795 13.6426C234.532 13.6426 235.076 13.7594 235.425 13.993C235.813 14.1878 236.065 14.4798 236.182 14.8693C236.298 15.2587 236.356 15.7455 236.356 16.3296V36.1321C236.356 38.8581 235.988 41.3505 235.25 43.6092C234.513 45.8289 233.426 47.7761 231.99 49.4506C230.593 51.0862 228.847 52.3519 226.751 53.2476C224.694 54.1433 222.346 54.5911 219.707 54.5911Z" fill="#22BB68"/>
<path d="M264.876 54.299C263.168 54.299 261.946 54.0459 261.208 53.5396C260.471 53.0334 260.025 52.3713 259.87 51.5535C259.714 50.7357 259.637 49.8595 259.637 48.9249V18.783C259.637 17.9263 259.714 17.1085 259.87 16.3296C260.025 15.5118 260.471 14.8498 261.208 14.3435C261.946 13.7983 263.207 13.5257 264.993 13.5257C266.196 13.5257 267.069 13.6036 267.612 13.7594C268.194 13.9152 268.602 14.1099 268.835 14.3435C269.107 14.5772 269.378 14.8498 269.65 15.1613L281.526 30.4743L293.344 15.2198C293.732 14.7914 294.081 14.4604 294.392 14.2267C294.741 13.993 295.187 13.8178 295.731 13.701C296.313 13.5841 297.128 13.5257 298.176 13.5257C299.922 13.5257 301.164 13.7983 301.902 14.3435C302.639 14.8498 303.085 15.5118 303.241 16.3296C303.396 17.1474 303.474 18.0042 303.474 18.8999V49.0417C303.474 49.8985 303.396 50.7357 303.241 51.5535C303.085 52.3713 302.639 53.0334 301.902 53.5396C301.164 54.0459 299.903 54.299 298.118 54.299C296.371 54.299 295.129 54.0459 294.392 53.5396C293.654 52.9944 293.208 52.3129 293.053 51.4951C292.898 50.6384 292.82 49.7816 292.82 48.9249V32.3352L286.009 41.6231L285.31 42.4993C285 42.8887 284.553 43.2392 283.971 43.5508C283.389 43.8623 282.574 44.0181 281.526 44.0181C280.478 44.0181 279.644 43.8623 279.023 43.5508C278.441 43.2392 277.994 42.9082 277.684 42.5577C277.373 42.1683 277.14 41.8567 276.985 41.6231L270.232 32.3936V49.0417C270.232 49.8985 270.154 50.7357 269.999 51.5535C269.844 52.3713 269.398 53.0334 268.66 53.5396C267.923 54.0459 266.661 54.299 264.876 54.299Z" fill="#22BB68"/>
<path fill-rule="evenodd" clip-rule="evenodd" d="M395.24 53.4228C397.724 54.4743 400.382 55 403.216 55C405.971 55 408.533 54.4548 410.9 53.3644C413.306 52.274 415.422 50.7747 417.246 48.8665C419.109 46.9193 420.545 44.6801 421.554 42.1488C422.602 39.6175 423.126 36.911 423.126 34.0292C423.126 31.0695 422.602 28.3241 421.554 25.7928C420.506 23.2225 419.05 20.9833 417.187 19.0751C415.325 17.1669 413.151 15.6871 410.667 14.6356C408.222 13.5452 405.583 13 402.75 13C399.994 13 397.394 13.5452 394.949 14.6356C392.543 15.726 390.427 17.2448 388.603 19.1919C386.779 21.1391 385.343 23.3978 384.295 25.968C383.286 28.5382 382.782 31.3032 382.782 34.2629C382.782 37.1057 383.306 39.7928 384.353 42.3241C385.44 44.8164 386.915 47.0167 388.778 48.9249C390.641 50.8331 392.795 52.3324 395.24 53.4228ZM406.65 43.5508C405.486 44.057 404.244 44.3102 402.924 44.3102C401.644 44.3102 400.421 44.057 399.257 43.5508C398.131 43.0056 397.122 42.2656 396.23 41.331C395.376 40.3574 394.697 39.2476 394.192 38.0014C393.687 36.7552 393.435 35.4312 393.435 34.0292C393.435 32.5883 393.687 31.2448 394.192 29.9986C394.697 28.7524 395.376 27.662 396.23 26.7274C397.122 25.7538 398.131 25.0139 399.257 24.5077C400.421 23.9624 401.663 23.6898 402.983 23.6898C404.263 23.6898 405.467 23.9624 406.592 24.5077C407.756 25.0139 408.766 25.7538 409.619 26.7274C410.512 27.662 411.211 28.7524 411.715 29.9986C412.22 31.2448 412.472 32.5883 412.472 34.0292C412.472 35.4701 412.22 36.8331 411.715 38.1182C411.249 39.3644 410.57 40.4548 409.678 41.3894C408.824 42.2851 407.815 43.0056 406.65 43.5508Z" fill="#22BB68"/>
<path d="M457.104 53.5981C457.997 54.0654 459.084 54.299 460.364 54.299C461.49 54.299 462.499 54.0264 463.392 53.4812C464.323 52.936 464.983 52.2351 465.371 51.3783L479.168 20.9444C479.945 19.2309 480.177 17.9068 479.867 16.9722C479.556 15.9986 478.431 15.0445 476.49 14.1099C475.326 13.4478 474.298 13.0974 473.405 13.0584C472.512 13.0195 471.755 13.2921 471.134 13.8762C470.514 14.4604 469.951 15.3561 469.446 16.5633L460.248 39.2865L451.05 16.5633C450.584 15.3561 450.041 14.4604 449.42 13.8762C448.799 13.2921 448.042 13.0195 447.149 13.0584C446.295 13.0584 445.248 13.4089 444.006 14.1099C442.22 14.9666 441.134 15.9013 440.746 16.9138C440.396 17.8873 440.59 19.2309 441.328 20.9444L455.125 51.3783C455.552 52.3519 456.212 53.0918 457.104 53.5981Z" fill="#22BB68"/>
<path d="M464.731 73.6213C465.238 73.8317 465.812 73.9369 466.451 73.9369C466.729 73.9369 466.999 73.9158 467.261 73.8738C467.523 73.8317 467.769 73.7728 467.998 73.6971C468.236 73.6213 468.449 73.533 468.637 73.432C468.899 73.3058 469.1 73.1711 469.239 73.028C469.386 72.8766 469.46 72.7335 469.46 72.5989V69.4937C469.46 69.3675 469.44 69.2623 469.399 69.1781C469.366 69.0856 469.309 69.0098 469.227 68.9509C469.145 68.892 469.022 68.8625 468.858 68.8625H466.193C466.086 68.8625 465.996 68.8752 465.922 68.9004C465.849 68.9257 465.791 68.9762 465.75 69.0519C465.709 69.1276 465.689 69.2412 465.689 69.3927C465.689 69.5442 465.705 69.6578 465.738 69.7335C465.779 69.8093 465.836 69.8597 465.91 69.885C465.992 69.9102 466.086 69.9229 466.193 69.9229H468.342V72.359C468.162 72.4516 467.966 72.5316 467.753 72.5989C467.548 72.6578 467.339 72.7041 467.126 72.7377C466.913 72.7714 466.704 72.7882 466.5 72.7882C465.877 72.7882 465.333 72.6494 464.866 72.3717C464.407 72.094 464.051 71.7027 463.797 71.1978C463.543 70.6928 463.412 70.0954 463.404 69.4053C463.412 68.7405 463.539 68.1641 463.785 67.676C464.039 67.1879 464.399 66.8135 464.866 66.5526C465.333 66.2917 465.881 66.1613 466.512 66.1613C466.741 66.1613 466.962 66.1823 467.175 66.2244C467.388 66.2665 467.585 66.3254 467.765 66.4011C467.953 66.4769 468.117 66.5568 468.256 66.641C468.379 66.7251 468.481 66.7882 468.563 66.8303C468.645 66.8724 468.703 66.8934 468.735 66.8934C468.809 66.8934 468.883 66.8724 468.956 66.8303C469.038 66.7798 469.112 66.7041 469.178 66.6031C469.219 66.5358 469.251 66.4642 469.276 66.3885C469.3 66.3128 469.309 66.2496 469.3 66.1992C469.292 66.0982 469.239 66.0014 469.141 65.9088C469.042 65.8079 468.924 65.7111 468.784 65.6185C468.588 65.4923 468.367 65.3829 468.121 65.2903C467.875 65.1978 467.617 65.1262 467.347 65.0757C467.085 65.0252 466.827 65 466.573 65C465.918 65.0084 465.329 65.122 464.804 65.3408C464.28 65.5512 463.83 65.8457 463.453 66.2244C463.076 66.6031 462.786 67.0575 462.581 67.5877C462.384 68.1178 462.286 68.7111 462.286 69.3675C462.286 70.0575 462.384 70.6844 462.581 71.2482C462.778 71.8121 463.056 72.2959 463.416 72.6999C463.785 73.0954 464.223 73.4025 464.731 73.6213Z" fill="#22BB68"/>
<path d="M393.568 73.8359C393.666 73.8864 393.789 73.9116 393.936 73.9116C394.084 73.9116 394.207 73.8822 394.305 73.8233C394.403 73.7728 394.473 73.6971 394.514 73.5961L397.609 65.9215C397.675 65.7616 397.708 65.6185 397.708 65.4923C397.708 65.3576 397.593 65.2356 397.364 65.1262C397.216 65.0421 397.093 65.0084 396.995 65.0252C396.897 65.0337 396.815 65.0799 396.749 65.1641C396.692 65.2398 396.639 65.345 396.59 65.4797L393.936 72.3212L391.271 65.3661C391.222 65.2398 391.16 65.1515 391.086 65.101C391.021 65.0421 390.943 65.0168 390.853 65.0252C390.771 65.0252 390.673 65.0547 390.558 65.1136C390.378 65.2062 390.259 65.2945 390.202 65.3787C390.153 65.4628 390.169 65.6059 390.251 65.8079L393.359 73.6087C393.408 73.7181 393.478 73.7938 393.568 73.8359Z" fill="#22BB68"/>
<path d="M370.997 73.7349C371.415 73.8696 371.845 73.9369 372.287 73.9369C372.705 73.9369 373.061 73.8948 373.356 73.8107C373.651 73.7349 373.888 73.6466 374.068 73.5456C374.257 73.4362 374.388 73.3647 374.461 73.331C374.576 73.2553 374.687 73.1753 374.793 73.0912C374.9 72.9986 374.957 72.8892 374.965 72.763C374.981 72.6788 374.973 72.6031 374.941 72.5358C374.916 72.46 374.883 72.3927 374.842 72.3338C374.777 72.2328 374.707 72.1613 374.633 72.1192C374.568 72.0687 374.494 72.0435 374.412 72.0435C374.33 72.0435 374.253 72.0687 374.179 72.1192C374.113 72.1697 374.036 72.2202 373.946 72.2707C373.888 72.3128 373.782 72.3759 373.626 72.46C373.479 72.5358 373.286 72.6073 373.049 72.6746C372.819 72.7419 372.549 72.7756 372.238 72.7756C371.82 72.7756 371.423 72.6999 371.046 72.5484C370.67 72.3969 370.334 72.1781 370.039 71.892C369.753 71.6059 369.527 71.2609 369.364 70.8569C369.2 70.4446 369.118 69.9818 369.118 69.4684C369.118 68.9635 369.2 68.5091 369.364 68.1052C369.527 67.7013 369.753 67.3562 370.039 67.0701C370.326 66.784 370.657 66.5652 371.034 66.4137C371.419 66.2539 371.82 66.1739 372.238 66.1739C372.566 66.1739 372.844 66.2118 373.073 66.2875C373.303 66.3548 373.491 66.4264 373.638 66.5021C373.786 66.5778 373.884 66.6325 373.933 66.6662C374.04 66.7335 374.126 66.7924 374.191 66.8429C374.257 66.8934 374.33 66.9187 374.412 66.9187C374.494 66.9187 374.568 66.8976 374.633 66.8555C374.707 66.8051 374.777 66.7293 374.842 66.6283C374.883 66.561 374.916 66.4979 374.941 66.439C374.973 66.3801 374.981 66.3044 374.965 66.2118C374.957 66.0856 374.9 65.9762 374.793 65.8836C374.687 65.791 374.576 65.7111 374.461 65.6438C374.396 65.5933 374.269 65.5217 374.081 65.4292C373.892 65.3282 373.651 65.2356 373.356 65.1515C373.061 65.0673 372.709 65.0252 372.299 65.0252C371.857 65.0252 371.423 65.0926 370.997 65.2272C370.58 65.3534 370.187 65.5428 369.818 65.7952C369.458 66.0393 369.142 66.338 368.872 66.6914C368.602 67.0449 368.389 67.453 368.233 67.9158C368.078 68.3703 368 68.8668 368 69.4053C368 69.9691 368.078 70.4867 368.233 70.9579C368.389 71.4208 368.602 71.8415 368.872 72.2202C369.151 72.5905 369.47 72.9018 369.83 73.1543C370.191 73.4067 370.58 73.6003 370.997 73.7349Z" fill="#22BB68"/>
<path fill-rule="evenodd" clip-rule="evenodd" d="M382.839 74C382.258 74 381.709 73.8864 381.193 73.6592C380.685 73.432 380.235 73.1164 379.842 72.7125C379.457 72.3001 379.154 71.8289 378.933 71.2987C378.712 70.7686 378.601 70.1964 378.601 69.582C378.601 68.9593 378.708 68.3745 378.921 67.8275C379.133 67.2721 379.428 66.7882 379.805 66.3759C380.19 65.9635 380.632 65.6396 381.132 65.4039C381.631 65.1683 382.163 65.0505 382.729 65.0505C383.318 65.0505 383.867 65.1641 384.375 65.3913C384.891 65.6185 385.337 65.9383 385.714 66.3506C386.099 66.7546 386.402 67.23 386.623 67.777C386.844 68.324 386.954 68.9088 386.954 69.5316C386.954 70.1459 386.844 70.7223 386.623 71.2609C386.41 71.791 386.115 72.2665 385.738 72.6872C385.361 73.0996 384.923 73.4236 384.424 73.6592C383.932 73.8864 383.404 74 382.839 74ZM382.765 72.8513C383.191 72.8513 383.588 72.7672 383.957 72.5989C384.334 72.4306 384.661 72.1949 384.94 71.892C385.218 71.5806 385.435 71.2272 385.591 70.8317C385.755 70.4278 385.836 69.9902 385.836 69.5189C385.836 69.0645 385.755 68.6396 385.591 68.244C385.435 67.8401 385.214 67.4867 384.927 67.1837C384.649 66.8724 384.326 66.6283 383.957 66.4516C383.588 66.2749 383.195 66.1865 382.778 66.1865C382.36 66.1865 381.967 66.2749 381.598 66.4516C381.23 66.6283 380.902 66.8682 380.616 67.1711C380.337 67.4741 380.116 67.8275 379.952 68.2314C379.797 68.6353 379.719 69.0687 379.719 69.5316C379.719 69.986 379.797 70.4151 379.952 70.8191C380.116 71.223 380.337 71.5764 380.616 71.8794C380.902 72.1823 381.226 72.4222 381.586 72.5989C381.955 72.7672 382.348 72.8513 382.765 72.8513Z" fill="#22BB68"/>
<path fill-rule="evenodd" clip-rule="evenodd" d="M403.501 73.6592C404.017 73.8864 404.565 74 405.147 74C405.712 74 406.24 73.8864 406.731 73.6592C407.231 73.4236 407.669 73.0996 408.046 72.6872C408.423 72.2665 408.717 71.791 408.93 71.2609C409.151 70.7223 409.262 70.1459 409.262 69.5316C409.262 68.9088 409.151 68.324 408.93 67.777C408.709 67.23 408.406 66.7546 408.021 66.3506C407.645 65.9383 407.198 65.6185 406.682 65.3913C406.175 65.1641 405.626 65.0505 405.036 65.0505C404.471 65.0505 403.939 65.1683 403.439 65.4039C402.94 65.6396 402.498 65.9635 402.113 66.3759C401.736 66.7882 401.441 67.2721 401.228 67.8275C401.015 68.3745 400.909 68.9593 400.909 69.582C400.909 70.1964 401.019 70.7686 401.24 71.2987C401.462 71.8289 401.765 72.3001 402.149 72.7125C402.543 73.1164 402.993 73.432 403.501 73.6592ZM406.265 72.5989C405.896 72.7672 405.499 72.8513 405.073 72.8513C404.655 72.8513 404.262 72.7672 403.894 72.5989C403.533 72.4222 403.21 72.1823 402.923 71.8794C402.645 71.5764 402.424 71.223 402.26 70.8191C402.104 70.4151 402.027 69.986 402.027 69.5316C402.027 69.0687 402.104 68.6353 402.26 68.2314C402.424 67.8275 402.645 67.4741 402.923 67.1711C403.21 66.8682 403.538 66.6283 403.906 66.4516C404.275 66.2749 404.668 66.1865 405.085 66.1865C405.503 66.1865 405.896 66.2749 406.265 66.4516C406.633 66.6283 406.957 66.8724 407.235 67.1837C407.522 67.4867 407.743 67.8401 407.898 68.244C408.062 68.6396 408.144 69.0645 408.144 69.5189C408.144 69.9902 408.062 70.4278 407.898 70.8317C407.743 71.2272 407.526 71.5806 407.247 71.892C406.969 72.1949 406.641 72.4306 406.265 72.5989Z" fill="#22BB68"/>
<path d="M413.247 73.8359C413.329 73.8864 413.452 73.9116 413.616 73.9116C413.78 73.9116 413.898 73.8864 413.972 73.8359C414.054 73.7938 414.107 73.7307 414.132 73.6466C414.156 73.5624 414.169 73.4614 414.169 73.3436V65.6816C414.169 65.5554 414.156 65.4502 414.132 65.3661C414.115 65.2819 414.066 65.2188 413.984 65.1767C413.911 65.1262 413.792 65.101 413.628 65.101C413.464 65.101 413.341 65.1262 413.259 65.1767C413.186 65.2188 413.133 65.2819 413.1 65.3661C413.075 65.4502 413.063 65.5512 413.063 65.669V73.331C413.063 73.4488 413.075 73.554 413.1 73.6466C413.124 73.7307 413.174 73.7938 413.247 73.8359Z" fill="#22BB68"/>
<path d="M425.123 65.1389C425.058 65.1136 424.972 65.101 424.866 65.101H418.613C418.515 65.101 418.425 65.1136 418.343 65.1389C418.269 65.1641 418.212 65.2146 418.171 65.2903C418.138 65.3576 418.122 65.4713 418.122 65.6311C418.122 65.7826 418.142 65.8962 418.183 65.972C418.224 66.0477 418.281 66.0982 418.355 66.1234C418.429 66.1403 418.519 66.1487 418.625 66.1487H421.205V73.3436C421.205 73.453 421.213 73.554 421.229 73.6466C421.254 73.7307 421.303 73.7938 421.377 73.8359C421.459 73.8864 421.582 73.9116 421.745 73.9116C421.901 73.9116 422.016 73.8864 422.089 73.8359C422.171 73.7938 422.224 73.7307 422.249 73.6466C422.282 73.5624 422.298 73.4656 422.298 73.3562V66.1487H424.841C424.947 66.1487 425.037 66.1403 425.111 66.1234C425.185 66.0982 425.242 66.0477 425.283 65.972C425.332 65.8962 425.357 65.7826 425.357 65.6311C425.357 65.4713 425.336 65.3576 425.295 65.2903C425.255 65.2146 425.197 65.1641 425.123 65.1389Z" fill="#22BB68"/>
<path d="M431.401 73.6592C431.835 73.8527 432.327 73.9495 432.876 73.9495C433.432 73.9495 433.928 73.8527 434.362 73.6592C434.804 73.4656 435.173 73.1921 435.467 72.8387C435.77 72.4769 436 72.0561 436.155 71.5764C436.311 71.0884 436.389 70.5498 436.389 69.9607V65.6816C436.389 65.5554 436.376 65.4502 436.352 65.3661C436.327 65.2819 436.274 65.2188 436.192 65.1767C436.119 65.1262 436.004 65.101 435.848 65.101C435.684 65.101 435.562 65.122 435.48 65.1641C435.398 65.2062 435.341 65.2651 435.308 65.3408C435.283 65.4081 435.271 65.4923 435.271 65.5933V69.9229C435.271 70.5203 435.177 71.0337 434.988 71.4628C434.8 71.892 434.53 72.2244 434.178 72.46C433.825 72.6956 433.404 72.8135 432.912 72.8135C432.388 72.8135 431.95 72.6914 431.598 72.4474C431.246 72.1949 430.98 71.8541 430.799 71.425C430.619 70.9958 430.529 70.4993 430.529 69.9355V65.6816C430.529 65.5554 430.517 65.4502 430.492 65.3661C430.468 65.2819 430.415 65.2188 430.333 65.1767C430.251 65.1262 430.128 65.101 429.964 65.101C429.8 65.101 429.678 65.1262 429.596 65.1767C429.522 65.2188 429.469 65.2819 429.436 65.3661C429.411 65.4502 429.399 65.5512 429.399 65.669V69.9355C429.399 70.5161 429.477 71.0547 429.633 71.5512C429.788 72.0393 430.013 72.4642 430.308 72.8261C430.611 73.1795 430.976 73.4572 431.401 73.6592Z" fill="#22BB68"/>
<path fill-rule="evenodd" clip-rule="evenodd" d="M441.092 73.8359C441.174 73.8864 441.293 73.9116 441.448 73.9116C441.612 73.9116 441.731 73.8864 441.805 73.8359C441.887 73.7938 441.94 73.7307 441.964 73.6466C441.997 73.5624 442.014 73.4614 442.014 73.3436V70.7686H444.232L445.944 73.5835C446.051 73.7433 446.161 73.8443 446.276 73.8864C446.399 73.9285 446.546 73.8906 446.718 73.7728C446.849 73.6886 446.939 73.6087 446.989 73.533C447.046 73.4572 447.062 73.3731 447.038 73.2805C447.021 73.1879 446.972 73.0743 446.89 72.9397L445.445 70.5724C445.521 70.5372 445.593 70.4974 445.662 70.453C445.949 70.2679 446.182 70.0365 446.362 69.7588C446.551 69.4811 446.69 69.1865 446.78 68.8752C446.87 68.5554 446.915 68.2482 446.915 67.9537C446.915 67.4825 446.845 67.0701 446.706 66.7167C446.575 66.3548 446.387 66.0561 446.141 65.8205C445.895 65.5849 445.605 65.4081 445.269 65.2903C444.941 65.1641 444.577 65.101 444.176 65.101H441.461C441.305 65.101 441.186 65.1262 441.105 65.1767C441.031 65.2272 440.978 65.2945 440.945 65.3787C440.92 65.4544 440.908 65.547 440.908 65.6564V73.331C440.908 73.4488 440.916 73.554 440.933 73.6466C440.957 73.7307 441.01 73.7938 441.092 73.8359ZM444.446 69.6578H442.014V66.2496H444.151C444.511 66.2496 444.814 66.317 445.06 66.4516C445.306 66.5778 445.49 66.7672 445.613 67.0196C445.744 67.2721 445.809 67.5792 445.809 67.9411C445.809 68.2356 445.772 68.4881 445.699 68.6985C445.625 68.9088 445.527 69.0856 445.404 69.2286C445.281 69.3717 445.138 69.4811 444.974 69.5568C444.81 69.6241 444.634 69.6578 444.446 69.6578Z" fill="#22BB68"/>
<path fill-rule="evenodd" clip-rule="evenodd" d="M458.661 73.6718C458.718 73.5961 458.743 73.5161 458.735 73.432C458.735 73.3394 458.702 73.23 458.637 73.1038L455.074 65.4544C455.041 65.3703 455 65.3029 454.951 65.2525C454.902 65.202 454.845 65.1641 454.779 65.1389C454.714 65.1136 454.644 65.101 454.571 65.101C454.464 65.101 454.362 65.1346 454.263 65.202C454.173 65.2609 454.104 65.3408 454.055 65.4418L450.529 73.0028C450.464 73.1459 450.423 73.2721 450.406 73.3815C450.398 73.4909 450.418 73.5835 450.468 73.6592C450.525 73.7349 450.615 73.798 450.738 73.8485C450.943 73.9411 451.098 73.9621 451.205 73.9116C451.319 73.8611 451.422 73.7391 451.512 73.5456L452.487 71.3997H456.642L457.629 73.5582C457.719 73.7518 457.818 73.8738 457.924 73.9243C458.039 73.9748 458.194 73.9537 458.391 73.8611C458.514 73.8022 458.604 73.7391 458.661 73.6718ZM456.198 70.4278L454.558 66.8429L452.929 70.4278H456.198Z" fill="#22BB68"/>
<path d="M474.484 73.9116C474.321 73.9116 474.198 73.8864 474.116 73.8359C474.042 73.7938 473.993 73.7307 473.969 73.6466C473.944 73.554 473.932 73.4488 473.932 73.331V65.669C473.932 65.4502 473.973 65.3029 474.054 65.2272C474.145 65.1431 474.3 65.101 474.521 65.101H479.46C479.574 65.101 479.672 65.1136 479.754 65.1389C479.836 65.1641 479.898 65.2188 479.939 65.3029C479.98 65.3871 480 65.5133 480 65.6816C480 65.8499 479.975 65.9762 479.926 66.0603C479.885 66.136 479.824 66.1865 479.742 66.2118C479.66 66.237 479.562 66.2496 479.447 66.2496H475.037V68.8625H478.108C478.223 68.8625 478.317 68.8752 478.391 68.9004C478.473 68.9257 478.534 68.9762 478.575 69.0519C478.616 69.1276 478.636 69.2454 478.636 69.4053C478.636 69.5568 478.616 69.6704 478.575 69.7461C478.534 69.8219 478.473 69.8724 478.391 69.8976C478.309 69.9144 478.207 69.9229 478.084 69.9229H475.037V72.7756H479.46C479.574 72.7756 479.672 72.7882 479.754 72.8135C479.836 72.8387 479.898 72.8934 479.939 72.9776C479.98 73.0533 480 73.1753 480 73.3436C480 73.5119 479.975 73.6382 479.926 73.7223C479.885 73.798 479.824 73.8485 479.742 73.8738C479.66 73.899 479.562 73.9116 479.447 73.9116H474.484Z" fill="#22BB68"/>
</svg>
