<svg width="68" height="68" viewBox="0 0 68 68" fill="none" xmlns="http://www.w3.org/2000/svg">
<path fill-rule="evenodd" clip-rule="evenodd" d="M34 68C52.7777 68 68 52.7777 68 34C68 15.2223 52.7777 0 34 0C15.2223 0 0 15.2223 0 34C0 52.7777 15.2223 68 34 68ZM46.9896 17.4423L45.0473 15.5H52.269V22.7217L50.3076 20.7603L40.7935 30.2744C39.8773 31.1906 38.3918 31.1906 37.4756 30.2744C36.5593 29.3581 36.5593 27.8726 37.4756 26.9564L46.9896 17.4423ZM35.2186 29.3026L21.4903 16.723C20.5044 15.8195 18.9727 15.8864 18.0692 16.8724C17.1658 17.8583 17.2327 19.39 18.2186 20.2934L31.6538 32.6046V44.7692C31.6538 46.065 32.7043 47.1154 34 47.1154C35.2957 47.1154 36.3462 46.065 36.3462 44.7692V31.3077C36.3462 30.4568 35.8929 29.7132 35.2186 29.3026ZM21.5385 47.8077V36.6923C21.5385 35.3966 20.4881 34.3462 19.1923 34.3462C17.8966 34.3462 16.8462 35.3966 16.8462 36.6923V47.8077H14.0858L19.1923 52.9142L24.2988 47.8077H21.5385ZM51.1538 47.8077V34C51.1538 32.7043 50.1034 31.6538 48.8077 31.6538C47.5119 31.6538 46.4615 32.7043 46.4615 34V47.8077H43.7012L48.8077 52.9142L53.9142 47.8077H51.1538Z" fill="white"/>
</svg>
