<svg width="519" height="80" viewBox="0 0 519 80" fill="none" xmlns="http://www.w3.org/2000/svg">
<path fill-rule="evenodd" clip-rule="evenodd" d="M36.7568 73.5135C57.057 73.5135 73.5135 57.057 73.5135 36.7568C73.5135 16.4566 57.057 0 36.7568 0C16.4566 0 0 16.4566 0 36.7568C0 57.057 16.4566 73.5135 36.7568 73.5135ZM50.7996 18.8566L48.6998 16.7568H56.5071V24.564L54.3866 22.4436L44.1011 32.729C43.1106 33.7196 41.5047 33.7196 40.5141 32.729C39.5236 31.7385 39.5236 30.1326 40.5141 29.1421L50.7996 18.8566ZM38.0741 31.6785L23.2328 18.0789C22.1669 17.1022 20.511 17.1745 19.5343 18.2404C18.5576 19.3063 18.6299 20.9621 19.6958 21.9389L34.2204 35.2482V48.3992C34.2204 49.8 35.356 50.9355 36.7568 50.9355C38.1576 50.9355 39.2931 49.8 39.2931 48.3992V33.8461C39.2931 32.9262 38.8032 32.1223 38.0741 31.6785ZM23.2848 51.684V39.6674C23.2848 38.2666 22.1492 37.131 20.7484 37.131C19.3476 37.131 18.2121 38.2665 18.2121 39.6674V51.684H15.2279L20.7484 57.2046L26.269 51.684H23.2848ZM55.3015 39.7409V54.6682C55.3015 56.069 54.1659 57.2046 52.7651 57.2046C51.3643 57.2046 50.2287 56.069 50.2287 54.6682V39.7409H47.2445L52.7651 34.2204L58.2856 39.7409H55.3015Z" fill="white"/>
<path fill-rule="evenodd" clip-rule="evenodd" d="M371.669 59.4595C368.606 59.4595 365.732 58.8911 363.047 57.7544C360.403 56.5756 358.075 54.9547 356.061 52.8918C354.047 50.8289 352.452 48.4502 351.278 45.7557C350.145 43.0192 349.578 40.1143 349.578 37.0409C349.578 33.8413 350.124 30.8522 351.215 28.0735C352.348 25.2949 353.9 22.8531 355.872 20.748C357.844 18.643 360.131 17.0011 362.732 15.8223C365.375 14.6435 368.187 14.0541 371.166 14.0541C374.228 14.0541 377.082 14.6435 379.725 15.8223C382.41 16.959 384.76 18.5588 386.774 20.6217C388.788 22.6847 390.361 25.1054 391.494 27.8841C392.627 30.6206 393.193 33.5887 393.193 36.7883C393.193 39.9038 392.627 42.8298 391.494 45.5663C390.403 48.3028 388.851 50.7236 386.837 52.8286C384.865 54.8915 382.578 56.5124 379.977 57.6912C377.417 58.8701 374.648 59.4595 371.669 59.4595ZM371.354 47.9029C372.781 47.9029 374.124 47.6292 375.382 47.0819C376.641 46.4925 377.732 45.7136 378.655 44.7453C379.62 43.7349 380.354 42.5561 380.858 41.2089C381.403 39.8196 381.676 38.3461 381.676 36.7883C381.676 35.2306 381.403 33.7781 380.858 32.4309C380.312 31.0837 379.557 29.9049 378.592 28.8945C377.669 27.842 376.578 27.0421 375.319 26.4948C374.103 25.9053 372.802 25.6106 371.417 25.6106C369.991 25.6106 368.648 25.9053 367.389 26.4948C366.173 27.0421 365.082 27.842 364.117 28.8945C363.194 29.9049 362.459 31.0837 361.914 32.4309C361.368 33.7781 361.096 35.2306 361.096 36.7883C361.096 38.304 361.368 39.7354 361.914 41.0826C362.459 42.4298 363.194 43.6297 364.117 44.6822C365.082 45.6926 366.173 46.4925 367.389 47.0819C368.648 47.6292 369.97 47.9029 371.354 47.9029Z" fill="white"/>
<path d="M129.577 16.7064C129.493 16.1591 129.01 15.5697 128.129 14.9382C127.5 14.5172 126.955 14.2856 126.493 14.2435C126.032 14.1593 125.612 14.2225 125.234 14.433C124.899 14.6435 124.542 15.0434 124.164 15.6328L111.262 35.8411L98.4233 15.6328C98.0876 15.0434 97.731 14.6435 97.3534 14.433C96.9757 14.1804 96.5562 14.1172 96.0946 14.2435C95.6751 14.3277 95.1506 14.5803 94.5212 15.0013C93.6401 15.6328 93.1366 16.2433 93.0107 16.8327C92.8849 17.38 93.0737 18.0326 93.5772 18.7904L108.43 41.1457V55.923C108.43 56.5124 108.493 57.0387 108.619 57.5018C108.787 57.9649 109.06 58.3017 109.437 58.5122C109.857 58.7648 110.486 58.8911 111.325 58.8911C112.164 58.8911 112.773 58.7648 113.15 58.5122C113.57 58.3017 113.843 57.9859 113.969 57.5649C114.095 57.1018 114.157 56.5966 114.157 56.0493V41.2089L128.948 18.6641C129.493 17.9062 129.703 17.2537 129.577 16.7064Z" fill="white"/>
<path fill-rule="evenodd" clip-rule="evenodd" d="M173.55 59.27C170.571 59.27 167.76 58.7016 165.117 57.5649C162.516 56.4282 160.208 54.8494 158.194 52.8286C156.222 50.7657 154.669 48.4081 153.537 45.7557C152.404 43.1034 151.837 40.2406 151.837 37.1672C151.837 34.0518 152.383 31.1258 153.474 28.3893C154.565 25.6106 156.075 23.1899 158.005 21.1269C159.977 19.064 162.243 17.4431 164.802 16.2643C167.362 15.0855 170.089 14.4961 172.984 14.4961C176.005 14.4961 178.816 15.0645 181.418 16.2012C184.061 17.3379 186.348 18.9377 188.278 21.0006C190.25 23.0215 191.802 25.4001 192.935 28.1367C194.068 30.8732 194.634 33.7992 194.634 36.9146C194.634 39.988 194.068 42.8719 192.935 45.5663C191.844 48.2186 190.334 50.5973 188.404 52.7023C186.473 54.7652 184.229 56.3861 181.669 57.5649C179.152 58.7016 176.446 59.27 173.55 59.27ZM173.173 53.5233C175.355 53.5233 177.39 53.1023 179.278 52.2603C181.208 51.4183 182.886 50.2394 184.313 48.7238C185.739 47.1661 186.851 45.3979 187.648 43.4192C188.487 41.3983 188.907 39.2091 188.907 36.8515C188.907 34.5781 188.487 32.452 187.648 30.4733C186.851 28.4524 185.718 26.6842 184.25 25.1686C182.823 23.6109 181.166 22.39 179.278 21.5058C177.39 20.6217 175.376 20.1797 173.236 20.1797C171.096 20.1797 169.082 20.6217 167.194 21.5058C165.306 22.39 163.627 23.5898 162.159 25.1054C160.732 26.6211 159.599 28.3893 158.76 30.4101C157.963 32.4309 157.565 34.5991 157.565 36.9146C157.565 39.1881 157.963 41.3352 158.76 43.356C159.599 45.3768 160.732 47.1451 162.159 48.6607C163.627 50.1763 165.285 51.3762 167.131 52.2603C169.019 53.1023 171.033 53.5233 173.173 53.5233Z" fill="white"/>
<path d="M237.521 59.0174C234.709 59.0174 232.192 58.5332 229.968 57.5649C227.786 56.5545 225.919 55.1652 224.367 53.397C222.856 51.5867 221.703 49.4606 220.905 47.0188C220.108 44.5348 219.71 41.8404 219.71 38.9355V17.5905C219.71 17.0011 219.772 16.4959 219.898 16.0749C220.066 15.6539 220.339 15.3381 220.717 15.1276C221.136 14.875 221.766 14.7487 222.605 14.7487C223.444 14.7487 224.073 14.875 224.493 15.1276C224.912 15.3381 225.185 15.6539 225.311 16.0749C225.437 16.4959 225.5 17.0221 225.5 17.6536V38.9355C225.5 41.7562 225.961 44.2401 226.884 46.3872C227.807 48.5344 229.171 50.2394 230.975 51.5025C232.779 52.7234 235.024 53.3338 237.709 53.3338C240.227 53.3338 242.388 52.7444 244.192 51.5656C245.996 50.3868 247.381 48.7238 248.346 46.5767C249.311 44.4296 249.793 41.8614 249.793 38.8723V17.2116C249.793 16.7064 249.856 16.2854 249.982 15.9486C250.15 15.5697 250.444 15.275 250.863 15.0645C251.283 14.854 251.912 14.7487 252.751 14.7487C253.548 14.7487 254.136 14.875 254.514 15.1276C254.933 15.3381 255.206 15.6539 255.332 16.0749C255.458 16.4959 255.521 17.0221 255.521 17.6536V39.0618C255.521 42.0088 255.122 44.7032 254.325 47.1451C253.528 49.5448 252.353 51.6498 250.8 53.4601C249.29 55.2284 247.402 56.5966 245.136 57.5649C242.912 58.5332 240.374 59.0174 237.521 59.0174Z" fill="white"/>
<path d="M286.353 58.7016C284.506 58.7016 283.185 58.428 282.388 57.8807C281.59 57.3334 281.108 56.6177 280.94 55.7336C280.772 54.8495 280.688 53.9022 280.688 52.8918V20.306C280.688 19.3798 280.772 18.4957 280.94 17.6536C281.108 16.7695 281.59 16.0538 282.388 15.5065C283.185 14.9171 284.548 14.6224 286.478 14.6224C287.779 14.6224 288.723 14.7066 289.311 14.875C289.94 15.0434 290.381 15.2539 290.632 15.5065C290.926 15.7591 291.22 16.0538 291.513 16.3906L304.352 32.9452L317.129 16.4538C317.548 15.9907 317.926 15.6328 318.261 15.3802C318.639 15.1276 319.122 14.9382 319.709 14.8119C320.338 14.6856 321.219 14.6224 322.352 14.6224C324.24 14.6224 325.583 14.9171 326.38 15.5065C327.177 16.0538 327.66 16.7695 327.828 17.6536C327.996 18.5378 328.08 19.464 328.08 20.4323V53.0181C328.08 53.9443 327.996 54.8495 327.828 55.7336C327.66 56.6177 327.177 57.3334 326.38 57.8807C325.583 58.428 324.219 58.7016 322.289 58.7016C320.401 58.7016 319.059 58.428 318.261 57.8807C317.464 57.2913 316.982 56.5545 316.814 55.6704C316.646 54.7442 316.562 53.818 316.562 52.8918V34.957L309.199 44.9979L308.443 45.9452C308.108 46.3662 307.625 46.7451 306.996 47.0819C306.366 47.4187 305.485 47.5871 304.352 47.5871C303.22 47.5871 302.317 47.4187 301.646 47.0819C301.017 46.7451 300.534 46.3872 300.199 46.0083C299.863 45.5873 299.611 45.2505 299.443 44.9979L292.143 35.0201V53.0181C292.143 53.9443 292.059 54.8495 291.891 55.7336C291.723 56.6177 291.241 57.3334 290.443 57.8807C289.646 58.428 288.283 58.7016 286.353 58.7016Z" fill="white"/>
<path fill-rule="evenodd" clip-rule="evenodd" d="M427.286 57.7544C429.972 58.8911 432.846 59.4595 435.909 59.4595C438.888 59.4595 441.657 58.8701 444.216 57.6912C446.818 56.5124 449.104 54.8915 451.076 52.8286C453.09 50.7236 454.643 48.3028 455.734 45.5663C456.867 42.8298 457.433 39.9038 457.433 36.7883C457.433 33.5887 456.867 30.6206 455.734 27.8841C454.601 25.1054 453.027 22.6847 451.014 20.6217C449 18.5588 446.65 16.959 443.965 15.8223C441.321 14.6435 438.468 14.0541 435.405 14.0541C432.426 14.0541 429.615 14.6435 426.972 15.8223C424.37 17.0011 422.084 18.643 420.112 20.748C418.14 22.8531 416.587 25.2949 415.454 28.0735C414.363 30.8522 413.818 33.8413 413.818 37.0409C413.818 40.1143 414.384 43.0192 415.517 45.7557C416.692 48.4502 418.286 50.8289 420.3 52.8918C422.314 54.9547 424.643 56.5756 427.286 57.7544ZM439.622 47.0819C438.363 47.6292 437.021 47.9029 435.594 47.9029C434.209 47.9029 432.888 47.6292 431.629 47.0819C430.412 46.4925 429.321 45.6926 428.356 44.6822C427.433 43.6297 426.699 42.4298 426.154 41.0826C425.608 39.7354 425.335 38.304 425.335 36.7883C425.335 35.2306 425.608 33.7781 426.154 32.4309C426.699 31.0837 427.433 29.9049 428.356 28.8945C429.321 27.842 430.412 27.0421 431.629 26.4948C432.888 25.9053 434.23 25.6106 435.657 25.6106C437.042 25.6106 438.342 25.9053 439.559 26.4948C440.818 27.0421 441.909 27.842 442.832 28.8945C443.797 29.9049 444.552 31.0837 445.097 32.4309C445.643 33.7781 445.916 35.2306 445.916 36.7883C445.916 38.3461 445.643 39.8196 445.097 41.2089C444.594 42.5561 443.86 43.7349 442.895 44.7453C441.972 45.7136 440.881 46.4925 439.622 47.0819Z" fill="white"/>
<path d="M494.167 57.9438C495.132 58.449 496.307 58.7016 497.691 58.7016C498.908 58.7016 499.999 58.4069 500.964 57.8175C501.971 57.2281 502.684 56.4703 503.104 55.5441L518.02 22.6426C518.859 20.7901 519.111 19.3587 518.775 18.3483C518.439 17.2958 517.223 16.2643 515.125 15.2539C513.866 14.5382 512.754 14.1593 511.789 14.1172C510.824 14.0751 510.006 14.3698 509.335 15.0013C508.663 15.6328 508.055 16.6011 507.509 17.9063L497.565 42.4719L487.621 17.9063C487.118 16.6011 486.531 15.6328 485.859 15.0013C485.188 14.3698 484.37 14.0751 483.405 14.1172C482.482 14.1172 481.349 14.4961 480.006 15.2539C478.076 16.1801 476.901 17.1905 476.482 18.2852C476.104 19.3377 476.314 20.7901 477.111 22.6426L492.027 55.5441C492.489 56.5966 493.202 57.3965 494.167 57.9438Z" fill="white"/>
<path d="M502.412 79.5906C502.961 79.818 503.58 79.9318 504.271 79.9318C504.572 79.9318 504.864 79.909 505.147 79.8635C505.431 79.818 505.696 79.7544 505.944 79.6725C506.201 79.5906 506.431 79.4951 506.635 79.3859C506.918 79.2495 507.135 79.1039 507.285 78.9492C507.445 78.7855 507.524 78.6308 507.524 78.4853V75.1283C507.524 74.9918 507.502 74.8781 507.458 74.7871C507.423 74.6871 507.361 74.6052 507.272 74.5415C507.184 74.4778 507.051 74.446 506.874 74.446H503.992C503.877 74.446 503.78 74.4596 503.7 74.4869C503.62 74.5142 503.558 74.5688 503.514 74.6507C503.47 74.7326 503.448 74.8554 503.448 75.0191C503.448 75.1829 503.465 75.3057 503.501 75.3876C503.545 75.4695 503.607 75.5241 503.687 75.5513C503.775 75.5786 503.877 75.5923 503.992 75.5923H506.316V78.226C506.121 78.3261 505.909 78.4125 505.679 78.4853C505.457 78.549 505.231 78.599 505.001 78.6354C504.771 78.6718 504.545 78.69 504.324 78.69C503.651 78.69 503.062 78.5399 502.558 78.2396C502.062 77.9394 501.677 77.5164 501.402 76.9705C501.128 76.4247 500.986 75.7788 500.977 75.0328C500.986 74.3141 501.123 73.6909 501.389 73.1633C501.664 72.6356 502.053 72.2308 502.558 71.9488C503.062 71.6667 503.656 71.5257 504.337 71.5257C504.585 71.5257 504.824 71.5485 505.054 71.5939C505.285 71.6394 505.497 71.7031 505.692 71.785C505.895 71.8669 506.073 71.9533 506.223 72.0443C506.356 72.1352 506.467 72.2035 506.555 72.249C506.644 72.2945 506.706 72.3172 506.741 72.3172C506.821 72.3172 506.9 72.2945 506.98 72.249C507.069 72.1944 507.148 72.1125 507.219 72.0033C507.263 71.9306 507.299 71.8532 507.325 71.7714C507.352 71.6895 507.361 71.6212 507.352 71.5667C507.343 71.4575 507.285 71.3529 507.179 71.2528C507.073 71.1436 506.945 71.039 506.794 70.9389C506.582 70.8025 506.343 70.6842 506.077 70.5841C505.811 70.4841 505.532 70.4067 505.24 70.3521C504.957 70.2976 504.678 70.2703 504.404 70.2703C503.695 70.2794 503.058 70.4022 502.491 70.6387C501.925 70.8661 501.438 71.1846 501.031 71.5939C500.623 72.0033 500.309 72.4946 500.088 73.0677C499.875 73.6409 499.769 74.2822 499.769 74.9918C499.769 75.7378 499.875 76.4156 500.088 77.0251C500.3 77.6347 500.601 78.1578 500.991 78.5944C501.389 79.022 501.863 79.3541 502.412 79.5906Z" fill="white"/>
<path d="M425.479 79.8226C425.585 79.8772 425.718 79.9045 425.877 79.9045C426.037 79.9045 426.169 79.8726 426.276 79.8089C426.382 79.7544 426.457 79.6725 426.501 79.5633L429.848 71.2664C429.919 71.0936 429.954 70.9389 429.954 70.8025C429.954 70.6569 429.83 70.525 429.582 70.4067C429.423 70.3158 429.29 70.2794 429.184 70.2976C429.078 70.3067 428.989 70.3567 428.918 70.4477C428.856 70.5295 428.799 70.6433 428.746 70.7888L425.877 78.1851L422.995 70.666C422.942 70.5295 422.876 70.434 422.796 70.3794C422.725 70.3158 422.641 70.2885 422.544 70.2976C422.455 70.2976 422.349 70.3294 422.225 70.3931C422.03 70.4932 421.902 70.5887 421.84 70.6796C421.787 70.7706 421.805 70.9253 421.893 71.1436L425.253 79.577C425.306 79.6952 425.381 79.7771 425.479 79.8226Z" fill="white"/>
<path d="M401.078 79.7134C401.53 79.859 401.995 79.9318 402.473 79.9318C402.924 79.9318 403.309 79.8863 403.628 79.7953C403.947 79.7134 404.203 79.6179 404.398 79.5087C404.602 79.3905 404.744 79.3131 404.823 79.2767C404.947 79.1949 405.067 79.1084 405.182 79.0175C405.297 78.9174 405.359 78.7991 405.368 78.6627C405.385 78.5717 405.377 78.4898 405.341 78.417C405.315 78.3352 405.279 78.2624 405.235 78.1987C405.164 78.0895 405.089 78.0122 405.009 77.9667C404.938 77.9121 404.859 77.8848 404.77 77.8848C404.682 77.8848 404.597 77.9121 404.518 77.9667C404.447 78.0213 404.363 78.0759 404.265 78.1305C404.203 78.1759 404.088 78.2442 403.92 78.3352C403.761 78.417 403.553 78.4944 403.296 78.5671C403.048 78.6399 402.756 78.6763 402.419 78.6763C401.968 78.6763 401.539 78.5944 401.131 78.4307C400.724 78.2669 400.361 78.0304 400.042 77.7211C399.732 77.4118 399.489 77.0388 399.312 76.6021C399.135 76.1563 399.046 75.656 399.046 75.101C399.046 74.5552 399.135 74.0639 399.312 73.6272C399.489 73.1906 399.732 72.8176 400.042 72.5082C400.352 72.1989 400.711 71.9624 401.118 71.7986C401.534 71.6258 401.968 71.5394 402.419 71.5394C402.774 71.5394 403.075 71.5803 403.323 71.6622C403.57 71.735 403.774 71.8123 403.933 71.8942C404.093 71.976 404.199 72.0352 404.252 72.0716C404.367 72.1443 404.46 72.208 404.531 72.2626C404.602 72.3172 404.682 72.3445 404.77 72.3445C404.859 72.3445 404.938 72.3217 405.009 72.2763C405.089 72.2217 405.164 72.1398 405.235 72.0306C405.279 71.9578 405.315 71.8896 405.341 71.8259C405.377 71.7622 405.385 71.6804 405.368 71.5803C405.359 71.4438 405.297 71.3256 405.182 71.2255C405.067 71.1254 404.947 71.039 404.823 70.9662C404.752 70.9116 404.615 70.8343 404.412 70.7342C404.208 70.6251 403.947 70.525 403.628 70.434C403.309 70.343 402.929 70.2976 402.486 70.2976C402.008 70.2976 401.539 70.3703 401.078 70.5159C400.627 70.6524 400.202 70.8571 399.803 71.13C399.414 71.3938 399.073 71.7168 398.781 72.0989C398.489 72.4809 398.258 72.9222 398.09 73.4225C397.922 73.9138 397.838 74.4505 397.838 75.0328C397.838 75.6423 397.922 76.2018 398.09 76.7113C398.258 77.2116 398.489 77.6665 398.781 78.0759C399.082 78.4762 399.427 78.8128 399.817 79.0857C400.206 79.3586 400.627 79.5679 401.078 79.7134Z" fill="white"/>
<path fill-rule="evenodd" clip-rule="evenodd" d="M413.88 80C413.252 80 412.658 79.8772 412.101 79.6316C411.552 79.3859 411.065 79.0448 410.64 78.6081C410.224 78.1623 409.896 77.6528 409.657 77.0797C409.418 76.5066 409.299 75.8879 409.299 75.2238C409.299 74.5506 409.414 73.9183 409.644 73.327C409.874 72.7266 410.193 72.2035 410.6 71.7577C411.016 71.3119 411.494 70.9617 412.034 70.7069C412.574 70.4522 413.15 70.3249 413.761 70.3249C414.398 70.3249 414.991 70.4477 415.54 70.6933C416.098 70.9389 416.58 71.2846 416.988 71.7304C417.404 72.1671 417.731 72.6811 417.97 73.2724C418.209 73.8638 418.329 74.496 418.329 75.1692C418.329 75.8334 418.209 76.4565 417.97 77.0388C417.74 77.6119 417.422 78.1259 417.014 78.5808C416.607 79.0266 416.133 79.3768 415.593 79.6316C415.062 79.8772 414.491 80 413.88 80ZM413.8 78.7582C414.261 78.7582 414.69 78.6672 415.089 78.4853C415.496 78.3033 415.85 78.0486 416.151 77.7211C416.452 77.3845 416.687 77.0024 416.855 76.5748C417.032 76.1381 417.121 75.6651 417.121 75.1556C417.121 74.6643 417.032 74.2049 416.855 73.7773C416.687 73.3407 416.448 72.9586 416.138 72.6311C415.837 72.2945 415.487 72.0306 415.089 71.8396C414.69 71.6485 414.265 71.553 413.814 71.553C413.362 71.553 412.937 71.6485 412.539 71.8396C412.14 72.0306 411.786 72.2899 411.476 72.6174C411.175 72.9449 410.936 73.327 410.759 73.7637C410.591 74.2004 410.507 74.6689 410.507 75.1692C410.507 75.6605 410.591 76.1245 410.759 76.5612C410.936 76.9978 411.175 77.3799 411.476 77.7074C411.786 78.0349 412.136 78.2942 412.526 78.4853C412.924 78.6672 413.349 78.7582 413.8 78.7582Z" fill="white"/>
<path fill-rule="evenodd" clip-rule="evenodd" d="M436.217 79.6316C436.775 79.8772 437.368 80 437.997 80C438.607 80 439.178 79.8772 439.71 79.6316C440.25 79.3768 440.723 79.0266 441.131 78.5808C441.538 78.1259 441.857 77.6119 442.087 77.0388C442.326 76.4565 442.445 75.8334 442.445 75.1692C442.445 74.496 442.326 73.8638 442.087 73.2724C441.848 72.6811 441.52 72.1671 441.104 71.7304C440.697 71.2846 440.214 70.9389 439.657 70.6933C439.108 70.4477 438.515 70.3249 437.877 70.3249C437.266 70.3249 436.691 70.4522 436.151 70.7069C435.611 70.9617 435.132 71.3119 434.716 71.7577C434.309 72.2035 433.99 72.7266 433.76 73.327C433.53 73.9183 433.415 74.5506 433.415 75.2238C433.415 75.8879 433.534 76.5066 433.773 77.0797C434.013 77.6528 434.34 78.1623 434.756 78.6081C435.181 79.0448 435.668 79.3859 436.217 79.6316ZM439.205 78.4853C438.807 78.6672 438.377 78.7582 437.917 78.7582C437.465 78.7582 437.04 78.6672 436.642 78.4853C436.252 78.2942 435.903 78.0349 435.593 77.7074C435.292 77.3799 435.053 76.9978 434.876 76.5612C434.708 76.1245 434.623 75.6605 434.623 75.1692C434.623 74.6689 434.708 74.2004 434.876 73.7637C435.053 73.327 435.292 72.9449 435.593 72.6174C435.903 72.2899 436.257 72.0306 436.655 71.8396C437.054 71.6485 437.479 71.553 437.93 71.553C438.382 71.553 438.807 71.6485 439.205 71.8396C439.603 72.0306 439.953 72.2945 440.254 72.6311C440.564 72.9586 440.803 73.3407 440.971 73.7773C441.148 74.2049 441.237 74.6643 441.237 75.1556C441.237 75.6651 441.148 76.1381 440.971 76.5748C440.803 77.0024 440.568 77.3845 440.267 77.7211C439.966 78.0486 439.612 78.3033 439.205 78.4853Z" fill="white"/>
<path d="M446.754 79.8226C446.842 79.8772 446.975 79.9045 447.152 79.9045C447.329 79.9045 447.458 79.8772 447.537 79.8226C447.626 79.7771 447.683 79.7089 447.71 79.6179C447.737 79.5269 447.75 79.4178 447.75 79.2904V71.0072C447.75 70.8707 447.737 70.757 447.71 70.666C447.692 70.575 447.639 70.5068 447.551 70.4613C447.471 70.4067 447.343 70.3794 447.165 70.3794C446.988 70.3794 446.856 70.4067 446.767 70.4613C446.687 70.5068 446.63 70.575 446.594 70.666C446.568 70.757 446.555 70.8661 446.555 70.9935V79.2767C446.555 79.4041 446.568 79.5178 446.594 79.6179C446.621 79.7089 446.674 79.7771 446.754 79.8226Z" fill="white"/>
<path d="M459.593 70.4204C459.522 70.3931 459.429 70.3794 459.314 70.3794H452.555C452.448 70.3794 452.351 70.3931 452.262 70.4204C452.183 70.4477 452.121 70.5023 452.076 70.5841C452.041 70.6569 452.023 70.7797 452.023 70.9526C452.023 71.1163 452.045 71.2391 452.09 71.321C452.134 71.4029 452.196 71.4575 452.276 71.4848C452.355 71.503 452.453 71.5121 452.568 71.5121H455.357V79.2904C455.357 79.4087 455.365 79.5178 455.383 79.6179C455.41 79.7089 455.463 79.7771 455.543 79.8226C455.631 79.8772 455.764 79.9045 455.941 79.9045C456.109 79.9045 456.233 79.8772 456.313 79.8226C456.401 79.7771 456.459 79.7089 456.485 79.6179C456.521 79.5269 456.539 79.4223 456.539 79.304V71.5121H459.288C459.403 71.5121 459.5 71.503 459.58 71.4848C459.659 71.4575 459.721 71.4029 459.766 71.321C459.819 71.2391 459.845 71.1163 459.845 70.9526C459.845 70.7797 459.823 70.6569 459.779 70.5841C459.735 70.5023 459.673 70.4477 459.593 70.4204Z" fill="white"/>
<path d="M466.38 79.6316C466.849 79.8408 467.38 79.9454 467.974 79.9454C468.576 79.9454 469.111 79.8408 469.58 79.6316C470.059 79.4223 470.457 79.1266 470.776 78.7446C471.103 78.3534 471.351 77.8985 471.519 77.3799C471.688 76.8523 471.772 76.27 471.772 75.6332V71.0072C471.772 70.8707 471.758 70.757 471.732 70.666C471.705 70.575 471.648 70.5068 471.559 70.4613C471.48 70.4067 471.356 70.3794 471.187 70.3794C471.01 70.3794 470.877 70.4022 470.789 70.4477C470.7 70.4932 470.638 70.5568 470.603 70.6387C470.576 70.7115 470.563 70.8025 470.563 70.9116V75.5923C470.563 76.2382 470.461 76.7931 470.258 77.2571C470.054 77.7211 469.762 78.0804 469.381 78.3352C469.001 78.5899 468.545 78.7173 468.013 78.7173C467.447 78.7173 466.973 78.5853 466.592 78.3215C466.212 78.0486 465.924 77.6801 465.729 77.2162C465.534 76.7522 465.437 76.2155 465.437 75.6059V71.0072C465.437 70.8707 465.424 70.757 465.397 70.666C465.371 70.575 465.313 70.5068 465.225 70.4613C465.136 70.4067 465.003 70.3794 464.826 70.3794C464.649 70.3794 464.516 70.4067 464.428 70.4613C464.348 70.5068 464.291 70.575 464.255 70.666C464.229 70.757 464.215 70.8661 464.215 70.9935V75.6059C464.215 76.2336 464.299 76.8159 464.468 77.3526C464.636 77.8803 464.879 78.3397 465.198 78.7309C465.526 79.113 465.92 79.4132 466.38 79.6316Z" fill="white"/>
<path fill-rule="evenodd" clip-rule="evenodd" d="M476.857 79.8226C476.945 79.8772 477.073 79.9045 477.242 79.9045C477.419 79.9045 477.547 79.8772 477.627 79.8226C477.715 79.7771 477.773 79.7089 477.799 79.6179C477.835 79.5269 477.853 79.4178 477.853 79.2904V76.5066H480.251L482.102 79.5497C482.217 79.7225 482.337 79.8317 482.461 79.8772C482.594 79.9227 482.753 79.8817 482.939 79.7544C483.08 79.6634 483.178 79.577 483.231 79.4951C483.293 79.4132 483.311 79.3222 483.284 79.2222C483.266 79.1221 483.213 78.9993 483.125 78.8537L481.562 76.2945C481.644 76.2564 481.722 76.2134 481.797 76.1654C482.107 75.9653 482.359 75.7151 482.554 75.4149C482.757 75.1147 482.908 74.7963 483.005 74.4596C483.103 74.1139 483.151 73.7819 483.151 73.4635C483.151 72.954 483.076 72.5082 482.926 72.1261C482.784 71.735 482.58 71.412 482.315 71.1573C482.049 70.9025 481.735 70.7115 481.372 70.5841C481.018 70.4477 480.624 70.3794 480.19 70.3794H477.255C477.087 70.3794 476.958 70.4067 476.87 70.4613C476.79 70.5159 476.733 70.5887 476.697 70.6796C476.671 70.7615 476.657 70.8616 476.657 70.9799V79.2767C476.657 79.4041 476.666 79.5178 476.684 79.6179C476.71 79.7089 476.768 79.7771 476.857 79.8226ZM480.482 75.3057H477.853V71.6212H480.163C480.553 71.6212 480.88 71.694 481.146 71.8396C481.412 71.976 481.611 72.1807 481.744 72.4537C481.885 72.7266 481.956 73.0586 481.956 73.4498C481.956 73.7682 481.916 74.0412 481.837 74.2686C481.757 74.496 481.651 74.6871 481.518 74.8417C481.385 74.9964 481.23 75.1147 481.053 75.1965C480.876 75.2693 480.686 75.3057 480.482 75.3057Z" fill="white"/>
<path fill-rule="evenodd" clip-rule="evenodd" d="M495.85 79.6452C495.912 79.5633 495.938 79.4769 495.93 79.3859C495.93 79.2859 495.894 79.1676 495.823 79.0311L491.972 70.7615C491.937 70.6706 491.892 70.5978 491.839 70.5432C491.786 70.4886 491.724 70.4477 491.653 70.4204C491.583 70.3931 491.507 70.3794 491.428 70.3794C491.313 70.3794 491.202 70.4158 491.096 70.4886C490.998 70.5523 490.923 70.6387 490.87 70.7479L487.058 78.922C486.988 79.0766 486.943 79.2131 486.926 79.3313C486.917 79.4496 486.939 79.5497 486.992 79.6316C487.054 79.7134 487.151 79.7817 487.284 79.8362C487.506 79.9363 487.674 79.959 487.789 79.9045C487.913 79.8499 488.023 79.718 488.121 79.5087L489.175 77.1889H493.667L494.734 79.5224C494.832 79.7316 494.938 79.8635 495.053 79.9181C495.177 79.9727 495.345 79.95 495.558 79.8499C495.691 79.7862 495.788 79.718 495.85 79.6452ZM493.187 76.1381L491.414 72.2626L489.653 76.1381H493.187Z" fill="white"/>
<path d="M512.956 79.9045C512.779 79.9045 512.646 79.8772 512.558 79.8226C512.478 79.7771 512.425 79.7089 512.398 79.6179C512.372 79.5178 512.359 79.4041 512.359 79.2767V70.9935C512.359 70.757 512.403 70.5978 512.491 70.5159C512.589 70.4249 512.757 70.3794 512.996 70.3794H518.335C518.459 70.3794 518.565 70.3931 518.653 70.4204C518.742 70.4477 518.808 70.5068 518.853 70.5978C518.897 70.6888 518.919 70.8252 518.919 71.0072C518.919 71.1891 518.892 71.3256 518.839 71.4165C518.795 71.4984 518.729 71.553 518.64 71.5803C518.552 71.6076 518.445 71.6212 518.321 71.6212H513.554V74.446H516.874C516.998 74.446 517.1 74.4596 517.179 74.4869C517.268 74.5142 517.334 74.5688 517.378 74.6507C517.423 74.7326 517.445 74.8599 517.445 75.0328C517.445 75.1965 517.423 75.3194 517.378 75.4012C517.334 75.4831 517.268 75.5377 517.179 75.565C517.091 75.5832 516.98 75.5923 516.847 75.5923H513.554V78.6763H518.335C518.459 78.6763 518.565 78.69 518.653 78.7173C518.742 78.7446 518.808 78.8037 518.853 78.8947C518.897 78.9765 518.919 79.1084 518.919 79.2904C518.919 79.4723 518.892 79.6088 518.839 79.6998C518.795 79.7817 518.729 79.8362 518.64 79.8635C518.552 79.8908 518.445 79.9045 518.321 79.9045H512.956Z" fill="white"/>
</svg>
