<svg width="527" height="88" viewBox="0 0 527 88" fill="none" xmlns="http://www.w3.org/2000/svg">
<g filter="url(#filter0_d_508_828)">
<path fill-rule="evenodd" clip-rule="evenodd" d="M40.7568 73.5135C61.057 73.5135 77.5135 57.057 77.5135 36.7568C77.5135 16.4566 61.057 0 40.7568 0C20.4566 0 4 16.4566 4 36.7568C4 57.057 20.4566 73.5135 40.7568 73.5135ZM54.7996 18.8566L52.6998 16.7568H60.5071V24.564L58.3866 22.4436L48.1011 32.729C47.1106 33.7196 45.5047 33.7196 44.5141 32.729C43.5236 31.7385 43.5236 30.1326 44.5141 29.1421L54.7996 18.8566ZM42.0741 31.6785L27.2328 18.0789C26.1669 17.1022 24.511 17.1745 23.5343 18.2404C22.5576 19.3063 22.6299 20.9621 23.6958 21.9389L38.2204 35.2482V48.3992C38.2204 49.8 39.356 50.9355 40.7568 50.9355C42.1576 50.9355 43.2931 49.8 43.2931 48.3992V33.8461C43.2931 32.9262 42.8032 32.1223 42.0741 31.6785ZM27.2848 51.684V39.6674C27.2848 38.2666 26.1492 37.131 24.7484 37.131C23.3476 37.131 22.2121 38.2665 22.2121 39.6674V51.684H19.2279L24.7484 57.2046L30.269 51.684H27.2848ZM59.3015 39.7409V54.6682C59.3015 56.069 58.1659 57.2046 56.7651 57.2046C55.3643 57.2046 54.2287 56.069 54.2287 54.6682V39.7409H51.2445L56.7651 34.2204L62.2856 39.7409H59.3015Z" fill="#22BB68"/>
<path fill-rule="evenodd" clip-rule="evenodd" d="M375.669 59.4595C372.606 59.4595 369.732 58.8911 367.047 57.7544C364.403 56.5756 362.075 54.9547 360.061 52.8918C358.047 50.8289 356.452 48.4502 355.278 45.7557C354.145 43.0192 353.578 40.1143 353.578 37.0409C353.578 33.8413 354.124 30.8522 355.215 28.0735C356.348 25.2949 357.9 22.8531 359.872 20.748C361.844 18.643 364.131 17.0011 366.732 15.8223C369.375 14.6435 372.187 14.0541 375.166 14.0541C378.228 14.0541 381.082 14.6435 383.725 15.8223C386.41 16.959 388.76 18.5588 390.774 20.6217C392.788 22.6847 394.361 25.1054 395.494 27.8841C396.627 30.6206 397.193 33.5887 397.193 36.7883C397.193 39.9038 396.627 42.8298 395.494 45.5663C394.403 48.3028 392.851 50.7236 390.837 52.8286C388.865 54.8915 386.578 56.5124 383.977 57.6912C381.417 58.8701 378.648 59.4595 375.669 59.4595ZM375.354 47.9029C376.781 47.9029 378.124 47.6292 379.382 47.0819C380.641 46.4925 381.732 45.7136 382.655 44.7453C383.62 43.7349 384.354 42.5561 384.858 41.2089C385.403 39.8196 385.676 38.3461 385.676 36.7883C385.676 35.2306 385.403 33.7781 384.858 32.4309C384.312 31.0837 383.557 29.9049 382.592 28.8945C381.669 27.842 380.578 27.0421 379.319 26.4948C378.103 25.9053 376.802 25.6106 375.417 25.6106C373.991 25.6106 372.648 25.9053 371.389 26.4948C370.173 27.0421 369.082 27.842 368.117 28.8945C367.194 29.9049 366.459 31.0837 365.914 32.4309C365.368 33.7781 365.096 35.2306 365.096 36.7883C365.096 38.304 365.368 39.7354 365.914 41.0826C366.459 42.4298 367.194 43.6297 368.117 44.6822C369.082 45.6926 370.173 46.4925 371.389 47.0819C372.648 47.6292 373.97 47.9029 375.354 47.9029Z" fill="#22BB68"/>
<path d="M133.577 16.7064C133.493 16.1591 133.01 15.5697 132.129 14.9382C131.5 14.5172 130.955 14.2856 130.493 14.2435C130.032 14.1593 129.612 14.2225 129.234 14.433C128.899 14.6435 128.542 15.0434 128.164 15.6328L115.262 35.8411L102.423 15.6328C102.088 15.0434 101.731 14.6435 101.353 14.433C100.976 14.1804 100.556 14.1172 100.095 14.2435C99.6751 14.3277 99.1506 14.5803 98.5212 15.0013C97.6401 15.6328 97.1366 16.2433 97.0107 16.8327C96.8849 17.38 97.0737 18.0326 97.5772 18.7904L112.43 41.1457V55.923C112.43 56.5124 112.493 57.0387 112.619 57.5018C112.787 57.9649 113.06 58.3017 113.437 58.5122C113.857 58.7648 114.486 58.8911 115.325 58.8911C116.164 58.8911 116.773 58.7648 117.15 58.5122C117.57 58.3017 117.843 57.9859 117.969 57.5649C118.095 57.1018 118.157 56.5966 118.157 56.0493V41.2089L132.948 18.6641C133.493 17.9062 133.703 17.2537 133.577 16.7064Z" fill="#22BB68"/>
<path fill-rule="evenodd" clip-rule="evenodd" d="M177.55 59.27C174.571 59.27 171.76 58.7016 169.117 57.5649C166.516 56.4282 164.208 54.8494 162.194 52.8286C160.222 50.7657 158.669 48.4081 157.537 45.7557C156.404 43.1034 155.837 40.2406 155.837 37.1672C155.837 34.0518 156.383 31.1258 157.474 28.3893C158.565 25.6106 160.075 23.1899 162.005 21.1269C163.977 19.064 166.243 17.4431 168.802 16.2643C171.362 15.0855 174.089 14.4961 176.984 14.4961C180.005 14.4961 182.816 15.0645 185.418 16.2012C188.061 17.3379 190.348 18.9377 192.278 21.0006C194.25 23.0215 195.802 25.4001 196.935 28.1367C198.068 30.8732 198.634 33.7992 198.634 36.9146C198.634 39.988 198.068 42.8719 196.935 45.5663C195.844 48.2186 194.334 50.5973 192.404 52.7023C190.473 54.7652 188.229 56.3861 185.669 57.5649C183.152 58.7016 180.446 59.27 177.55 59.27ZM177.173 53.5233C179.355 53.5233 181.39 53.1023 183.278 52.2603C185.208 51.4183 186.886 50.2394 188.313 48.7238C189.739 47.1661 190.851 45.3979 191.648 43.4192C192.487 41.3983 192.907 39.2091 192.907 36.8515C192.907 34.5781 192.487 32.452 191.648 30.4733C190.851 28.4524 189.718 26.6842 188.25 25.1686C186.823 23.6109 185.166 22.39 183.278 21.5058C181.39 20.6217 179.376 20.1797 177.236 20.1797C175.096 20.1797 173.082 20.6217 171.194 21.5058C169.306 22.39 167.627 23.5898 166.159 25.1054C164.732 26.6211 163.599 28.3893 162.76 30.4101C161.963 32.4309 161.565 34.5991 161.565 36.9146C161.565 39.1881 161.963 41.3352 162.76 43.356C163.599 45.3768 164.732 47.1451 166.159 48.6607C167.627 50.1763 169.285 51.3762 171.131 52.2603C173.019 53.1023 175.033 53.5233 177.173 53.5233Z" fill="#22BB68"/>
<path d="M241.521 59.0174C238.709 59.0174 236.192 58.5332 233.968 57.5649C231.786 56.5545 229.919 55.1652 228.367 53.397C226.856 51.5867 225.703 49.4606 224.905 47.0188C224.108 44.5348 223.71 41.8404 223.71 38.9355V17.5905C223.71 17.0011 223.772 16.4959 223.898 16.0749C224.066 15.6539 224.339 15.3381 224.717 15.1276C225.136 14.875 225.766 14.7487 226.605 14.7487C227.444 14.7487 228.073 14.875 228.493 15.1276C228.912 15.3381 229.185 15.6539 229.311 16.0749C229.437 16.4959 229.5 17.0221 229.5 17.6536V38.9355C229.5 41.7562 229.961 44.2401 230.884 46.3872C231.807 48.5344 233.171 50.2394 234.975 51.5025C236.779 52.7234 239.024 53.3338 241.709 53.3338C244.227 53.3338 246.388 52.7444 248.192 51.5656C249.996 50.3868 251.381 48.7238 252.346 46.5767C253.311 44.4296 253.793 41.8614 253.793 38.8723V17.2116C253.793 16.7064 253.856 16.2854 253.982 15.9486C254.15 15.5697 254.444 15.275 254.863 15.0645C255.283 14.854 255.912 14.7487 256.751 14.7487C257.548 14.7487 258.136 14.875 258.514 15.1276C258.933 15.3381 259.206 15.6539 259.332 16.0749C259.458 16.4959 259.521 17.0221 259.521 17.6536V39.0618C259.521 42.0088 259.122 44.7032 258.325 47.1451C257.528 49.5448 256.353 51.6498 254.8 53.4601C253.29 55.2284 251.402 56.5966 249.136 57.5649C246.912 58.5332 244.374 59.0174 241.521 59.0174Z" fill="#22BB68"/>
<path d="M290.353 58.7016C288.506 58.7016 287.185 58.428 286.388 57.8807C285.59 57.3334 285.108 56.6177 284.94 55.7336C284.772 54.8495 284.688 53.9022 284.688 52.8918V20.306C284.688 19.3798 284.772 18.4957 284.94 17.6536C285.108 16.7695 285.59 16.0538 286.388 15.5065C287.185 14.9171 288.548 14.6224 290.478 14.6224C291.779 14.6224 292.723 14.7066 293.311 14.875C293.94 15.0434 294.381 15.2539 294.632 15.5065C294.926 15.7591 295.22 16.0538 295.513 16.3906L308.352 32.9452L321.129 16.4538C321.548 15.9907 321.926 15.6328 322.261 15.3802C322.639 15.1276 323.122 14.9382 323.709 14.8119C324.338 14.6856 325.219 14.6224 326.352 14.6224C328.24 14.6224 329.583 14.9171 330.38 15.5065C331.177 16.0538 331.66 16.7695 331.828 17.6536C331.996 18.5378 332.08 19.464 332.08 20.4323V53.0181C332.08 53.9443 331.996 54.8495 331.828 55.7336C331.66 56.6177 331.177 57.3334 330.38 57.8807C329.583 58.428 328.219 58.7016 326.289 58.7016C324.401 58.7016 323.059 58.428 322.261 57.8807C321.464 57.2913 320.982 56.5545 320.814 55.6704C320.646 54.7442 320.562 53.818 320.562 52.8918V34.957L313.199 44.9979L312.443 45.9452C312.108 46.3662 311.625 46.7451 310.996 47.0819C310.366 47.4187 309.485 47.5871 308.352 47.5871C307.22 47.5871 306.317 47.4187 305.646 47.0819C305.017 46.7451 304.534 46.3872 304.199 46.0083C303.863 45.5873 303.611 45.2505 303.443 44.9979L296.143 35.0201V53.0181C296.143 53.9443 296.059 54.8495 295.891 55.7336C295.723 56.6177 295.241 57.3334 294.443 57.8807C293.646 58.428 292.283 58.7016 290.353 58.7016Z" fill="#22BB68"/>
<path fill-rule="evenodd" clip-rule="evenodd" d="M431.286 57.7544C433.972 58.8911 436.846 59.4595 439.909 59.4595C442.888 59.4595 445.657 58.8701 448.216 57.6912C450.818 56.5124 453.104 54.8915 455.076 52.8286C457.09 50.7236 458.643 48.3028 459.734 45.5663C460.867 42.8298 461.433 39.9038 461.433 36.7883C461.433 33.5887 460.867 30.6206 459.734 27.8841C458.601 25.1054 457.027 22.6847 455.014 20.6217C453 18.5588 450.65 16.959 447.965 15.8223C445.321 14.6435 442.468 14.0541 439.405 14.0541C436.426 14.0541 433.615 14.6435 430.972 15.8223C428.37 17.0011 426.084 18.643 424.112 20.748C422.14 22.8531 420.587 25.2949 419.454 28.0735C418.363 30.8522 417.818 33.8413 417.818 37.0409C417.818 40.1143 418.384 43.0192 419.517 45.7557C420.692 48.4502 422.286 50.8289 424.3 52.8918C426.314 54.9547 428.643 56.5756 431.286 57.7544ZM443.622 47.0819C442.363 47.6292 441.021 47.9029 439.594 47.9029C438.209 47.9029 436.888 47.6292 435.629 47.0819C434.412 46.4925 433.321 45.6926 432.356 44.6822C431.433 43.6297 430.699 42.4298 430.154 41.0826C429.608 39.7354 429.335 38.304 429.335 36.7883C429.335 35.2306 429.608 33.7781 430.154 32.4309C430.699 31.0837 431.433 29.9049 432.356 28.8945C433.321 27.842 434.412 27.0421 435.629 26.4948C436.888 25.9053 438.23 25.6106 439.657 25.6106C441.042 25.6106 442.342 25.9053 443.559 26.4948C444.818 27.0421 445.909 27.842 446.832 28.8945C447.797 29.9049 448.552 31.0837 449.097 32.4309C449.643 33.7781 449.916 35.2306 449.916 36.7883C449.916 38.3461 449.643 39.8196 449.097 41.2089C448.594 42.5561 447.86 43.7349 446.895 44.7453C445.972 45.7136 444.881 46.4925 443.622 47.0819Z" fill="#22BB68"/>
<path d="M498.167 57.9438C499.132 58.449 500.307 58.7016 501.691 58.7016C502.908 58.7016 503.999 58.4069 504.964 57.8175C505.971 57.2281 506.684 56.4703 507.104 55.5441L522.02 22.6426C522.859 20.7901 523.111 19.3587 522.775 18.3483C522.439 17.2958 521.223 16.2643 519.125 15.2539C517.866 14.5382 516.754 14.1593 515.789 14.1172C514.824 14.0751 514.006 14.3698 513.335 15.0013C512.663 15.6328 512.055 16.6011 511.509 17.9063L501.565 42.4719L491.621 17.9063C491.118 16.6011 490.531 15.6328 489.859 15.0013C489.188 14.3698 488.37 14.0751 487.405 14.1172C486.482 14.1172 485.349 14.4961 484.006 15.2539C482.076 16.1801 480.901 17.1905 480.482 18.2852C480.104 19.3377 480.314 20.7901 481.111 22.6426L496.027 55.5441C496.489 56.5966 497.202 57.3965 498.167 57.9438Z" fill="#22BB68"/>
<path d="M506.412 79.5906C506.961 79.818 507.58 79.9318 508.271 79.9318C508.572 79.9318 508.864 79.909 509.147 79.8635C509.431 79.818 509.696 79.7544 509.944 79.6725C510.201 79.5906 510.431 79.4951 510.635 79.3859C510.918 79.2495 511.135 79.1039 511.285 78.9492C511.445 78.7855 511.524 78.6308 511.524 78.4853V75.1283C511.524 74.9918 511.502 74.8781 511.458 74.7871C511.423 74.6871 511.361 74.6052 511.272 74.5415C511.184 74.4778 511.051 74.446 510.874 74.446H507.992C507.877 74.446 507.78 74.4596 507.7 74.4869C507.62 74.5142 507.558 74.5688 507.514 74.6507C507.47 74.7326 507.448 74.8554 507.448 75.0191C507.448 75.1829 507.465 75.3057 507.501 75.3876C507.545 75.4695 507.607 75.5241 507.687 75.5513C507.775 75.5786 507.877 75.5923 507.992 75.5923H510.316V78.226C510.121 78.3261 509.909 78.4125 509.679 78.4853C509.457 78.549 509.231 78.599 509.001 78.6354C508.771 78.6718 508.545 78.69 508.324 78.69C507.651 78.69 507.062 78.5399 506.558 78.2396C506.062 77.9394 505.677 77.5164 505.402 76.9705C505.128 76.4247 504.986 75.7788 504.977 75.0328C504.986 74.3141 505.123 73.6909 505.389 73.1633C505.664 72.6356 506.053 72.2308 506.558 71.9488C507.062 71.6667 507.656 71.5257 508.337 71.5257C508.585 71.5257 508.824 71.5485 509.054 71.5939C509.285 71.6394 509.497 71.7031 509.692 71.785C509.895 71.8669 510.073 71.9533 510.223 72.0443C510.356 72.1352 510.467 72.2035 510.555 72.249C510.644 72.2945 510.706 72.3172 510.741 72.3172C510.821 72.3172 510.9 72.2945 510.98 72.249C511.069 72.1944 511.148 72.1125 511.219 72.0033C511.263 71.9306 511.299 71.8532 511.325 71.7714C511.352 71.6895 511.361 71.6212 511.352 71.5667C511.343 71.4575 511.285 71.3529 511.179 71.2528C511.073 71.1436 510.945 71.039 510.794 70.9389C510.582 70.8025 510.343 70.6842 510.077 70.5841C509.811 70.4841 509.532 70.4067 509.24 70.3521C508.957 70.2976 508.678 70.2703 508.404 70.2703C507.695 70.2794 507.058 70.4022 506.491 70.6387C505.925 70.8661 505.438 71.1846 505.031 71.5939C504.623 72.0033 504.309 72.4946 504.088 73.0677C503.875 73.6409 503.769 74.2822 503.769 74.9918C503.769 75.7378 503.875 76.4156 504.088 77.0251C504.3 77.6347 504.601 78.1578 504.991 78.5944C505.389 79.022 505.863 79.3541 506.412 79.5906Z" fill="#22BB68"/>
<path d="M429.479 79.8226C429.585 79.8772 429.718 79.9045 429.877 79.9045C430.037 79.9045 430.169 79.8726 430.276 79.8089C430.382 79.7544 430.457 79.6725 430.501 79.5633L433.848 71.2664C433.919 71.0936 433.954 70.9389 433.954 70.8025C433.954 70.6569 433.83 70.525 433.582 70.4067C433.423 70.3158 433.29 70.2794 433.184 70.2976C433.078 70.3067 432.989 70.3567 432.918 70.4477C432.856 70.5295 432.799 70.6433 432.746 70.7888L429.877 78.1851L426.995 70.666C426.942 70.5295 426.876 70.434 426.796 70.3794C426.725 70.3158 426.641 70.2885 426.544 70.2976C426.455 70.2976 426.349 70.3294 426.225 70.3931C426.03 70.4932 425.902 70.5887 425.84 70.6796C425.787 70.7706 425.805 70.9253 425.893 71.1436L429.253 79.577C429.306 79.6952 429.381 79.7771 429.479 79.8226Z" fill="#22BB68"/>
<path d="M405.078 79.7134C405.53 79.859 405.995 79.9318 406.473 79.9318C406.924 79.9318 407.309 79.8863 407.628 79.7953C407.947 79.7134 408.203 79.6179 408.398 79.5087C408.602 79.3905 408.744 79.3131 408.823 79.2767C408.947 79.1949 409.067 79.1084 409.182 79.0175C409.297 78.9174 409.359 78.7991 409.368 78.6627C409.385 78.5717 409.377 78.4898 409.341 78.417C409.315 78.3352 409.279 78.2624 409.235 78.1987C409.164 78.0895 409.089 78.0122 409.009 77.9667C408.938 77.9121 408.859 77.8848 408.77 77.8848C408.682 77.8848 408.597 77.9121 408.518 77.9667C408.447 78.0213 408.363 78.0759 408.265 78.1305C408.203 78.1759 408.088 78.2442 407.92 78.3352C407.761 78.417 407.553 78.4944 407.296 78.5671C407.048 78.6399 406.756 78.6763 406.419 78.6763C405.968 78.6763 405.539 78.5944 405.131 78.4307C404.724 78.2669 404.361 78.0304 404.042 77.7211C403.732 77.4118 403.489 77.0388 403.312 76.6021C403.135 76.1563 403.046 75.656 403.046 75.101C403.046 74.5552 403.135 74.0639 403.312 73.6272C403.489 73.1906 403.732 72.8176 404.042 72.5082C404.352 72.1989 404.711 71.9624 405.118 71.7986C405.534 71.6258 405.968 71.5394 406.419 71.5394C406.774 71.5394 407.075 71.5803 407.323 71.6622C407.57 71.735 407.774 71.8123 407.933 71.8942C408.093 71.976 408.199 72.0352 408.252 72.0716C408.367 72.1443 408.46 72.208 408.531 72.2626C408.602 72.3172 408.682 72.3445 408.77 72.3445C408.859 72.3445 408.938 72.3217 409.009 72.2763C409.089 72.2217 409.164 72.1398 409.235 72.0306C409.279 71.9578 409.315 71.8896 409.341 71.8259C409.377 71.7622 409.385 71.6804 409.368 71.5803C409.359 71.4438 409.297 71.3256 409.182 71.2255C409.067 71.1254 408.947 71.039 408.823 70.9662C408.752 70.9116 408.615 70.8343 408.412 70.7342C408.208 70.6251 407.947 70.525 407.628 70.434C407.309 70.343 406.929 70.2976 406.486 70.2976C406.008 70.2976 405.539 70.3703 405.078 70.5159C404.627 70.6524 404.202 70.8571 403.803 71.13C403.414 71.3938 403.073 71.7168 402.781 72.0989C402.489 72.4809 402.258 72.9222 402.09 73.4225C401.922 73.9138 401.838 74.4505 401.838 75.0328C401.838 75.6423 401.922 76.2018 402.09 76.7113C402.258 77.2116 402.489 77.6665 402.781 78.0759C403.082 78.4762 403.427 78.8128 403.817 79.0857C404.206 79.3586 404.627 79.5679 405.078 79.7134Z" fill="#22BB68"/>
<path fill-rule="evenodd" clip-rule="evenodd" d="M417.88 80C417.252 80 416.658 79.8772 416.101 79.6316C415.552 79.3859 415.065 79.0448 414.64 78.6081C414.224 78.1623 413.896 77.6528 413.657 77.0797C413.418 76.5066 413.299 75.8879 413.299 75.2238C413.299 74.5506 413.414 73.9183 413.644 73.327C413.874 72.7266 414.193 72.2035 414.6 71.7577C415.016 71.3119 415.494 70.9617 416.034 70.7069C416.574 70.4522 417.15 70.3249 417.761 70.3249C418.398 70.3249 418.991 70.4477 419.54 70.6933C420.098 70.9389 420.58 71.2846 420.988 71.7304C421.404 72.1671 421.731 72.6811 421.97 73.2724C422.209 73.8638 422.329 74.496 422.329 75.1692C422.329 75.8334 422.209 76.4565 421.97 77.0388C421.74 77.6119 421.422 78.1259 421.014 78.5808C420.607 79.0266 420.133 79.3768 419.593 79.6316C419.062 79.8772 418.491 80 417.88 80ZM417.8 78.7582C418.261 78.7582 418.69 78.6672 419.089 78.4853C419.496 78.3033 419.85 78.0486 420.151 77.7211C420.452 77.3845 420.687 77.0024 420.855 76.5748C421.032 76.1381 421.121 75.6651 421.121 75.1556C421.121 74.6643 421.032 74.2049 420.855 73.7773C420.687 73.3407 420.448 72.9586 420.138 72.6311C419.837 72.2945 419.487 72.0306 419.089 71.8396C418.69 71.6485 418.265 71.553 417.814 71.553C417.362 71.553 416.937 71.6485 416.539 71.8396C416.14 72.0306 415.786 72.2899 415.476 72.6174C415.175 72.9449 414.936 73.327 414.759 73.7637C414.591 74.2004 414.507 74.6689 414.507 75.1692C414.507 75.6605 414.591 76.1245 414.759 76.5612C414.936 76.9978 415.175 77.3799 415.476 77.7074C415.786 78.0349 416.136 78.2942 416.526 78.4853C416.924 78.6672 417.349 78.7582 417.8 78.7582Z" fill="#22BB68"/>
<path fill-rule="evenodd" clip-rule="evenodd" d="M440.217 79.6316C440.775 79.8772 441.368 80 441.997 80C442.607 80 443.178 79.8772 443.71 79.6316C444.25 79.3768 444.723 79.0266 445.131 78.5808C445.538 78.1259 445.857 77.6119 446.087 77.0388C446.326 76.4565 446.445 75.8334 446.445 75.1692C446.445 74.496 446.326 73.8638 446.087 73.2724C445.848 72.6811 445.52 72.1671 445.104 71.7304C444.697 71.2846 444.214 70.9389 443.657 70.6933C443.108 70.4477 442.515 70.3249 441.877 70.3249C441.266 70.3249 440.691 70.4522 440.151 70.7069C439.611 70.9617 439.132 71.3119 438.716 71.7577C438.309 72.2035 437.99 72.7266 437.76 73.327C437.53 73.9183 437.415 74.5506 437.415 75.2238C437.415 75.8879 437.534 76.5066 437.773 77.0797C438.013 77.6528 438.34 78.1623 438.756 78.6081C439.181 79.0448 439.668 79.3859 440.217 79.6316ZM443.205 78.4853C442.807 78.6672 442.377 78.7582 441.917 78.7582C441.465 78.7582 441.04 78.6672 440.642 78.4853C440.252 78.2942 439.903 78.0349 439.593 77.7074C439.292 77.3799 439.053 76.9978 438.876 76.5612C438.708 76.1245 438.623 75.6605 438.623 75.1692C438.623 74.6689 438.708 74.2004 438.876 73.7637C439.053 73.327 439.292 72.9449 439.593 72.6174C439.903 72.2899 440.257 72.0306 440.655 71.8396C441.054 71.6485 441.479 71.553 441.93 71.553C442.382 71.553 442.807 71.6485 443.205 71.8396C443.603 72.0306 443.953 72.2945 444.254 72.6311C444.564 72.9586 444.803 73.3407 444.971 73.7773C445.148 74.2049 445.237 74.6643 445.237 75.1556C445.237 75.6651 445.148 76.1381 444.971 76.5748C444.803 77.0024 444.568 77.3845 444.267 77.7211C443.966 78.0486 443.612 78.3033 443.205 78.4853Z" fill="#22BB68"/>
<path d="M450.754 79.8226C450.842 79.8772 450.975 79.9045 451.152 79.9045C451.329 79.9045 451.458 79.8772 451.537 79.8226C451.626 79.7771 451.683 79.7089 451.71 79.6179C451.737 79.5269 451.75 79.4178 451.75 79.2904V71.0072C451.75 70.8707 451.737 70.757 451.71 70.666C451.692 70.575 451.639 70.5068 451.551 70.4613C451.471 70.4067 451.343 70.3794 451.165 70.3794C450.988 70.3794 450.856 70.4067 450.767 70.4613C450.687 70.5068 450.63 70.575 450.594 70.666C450.568 70.757 450.555 70.8661 450.555 70.9935V79.2767C450.555 79.4041 450.568 79.5178 450.594 79.6179C450.621 79.7089 450.674 79.7771 450.754 79.8226Z" fill="#22BB68"/>
<path d="M463.593 70.4204C463.522 70.3931 463.429 70.3794 463.314 70.3794H456.555C456.448 70.3794 456.351 70.3931 456.262 70.4204C456.183 70.4477 456.121 70.5023 456.076 70.5841C456.041 70.6569 456.023 70.7797 456.023 70.9526C456.023 71.1163 456.045 71.2391 456.09 71.321C456.134 71.4029 456.196 71.4575 456.276 71.4848C456.355 71.503 456.453 71.5121 456.568 71.5121H459.357V79.2904C459.357 79.4087 459.365 79.5178 459.383 79.6179C459.41 79.7089 459.463 79.7771 459.543 79.8226C459.631 79.8772 459.764 79.9045 459.941 79.9045C460.109 79.9045 460.233 79.8772 460.313 79.8226C460.401 79.7771 460.459 79.7089 460.485 79.6179C460.521 79.5269 460.539 79.4223 460.539 79.304V71.5121H463.288C463.403 71.5121 463.5 71.503 463.58 71.4848C463.659 71.4575 463.721 71.4029 463.766 71.321C463.819 71.2391 463.845 71.1163 463.845 70.9526C463.845 70.7797 463.823 70.6569 463.779 70.5841C463.735 70.5023 463.673 70.4477 463.593 70.4204Z" fill="#22BB68"/>
<path d="M470.38 79.6316C470.849 79.8408 471.38 79.9454 471.974 79.9454C472.576 79.9454 473.111 79.8408 473.58 79.6316C474.059 79.4223 474.457 79.1266 474.776 78.7446C475.103 78.3534 475.351 77.8985 475.519 77.3799C475.688 76.8523 475.772 76.27 475.772 75.6332V71.0072C475.772 70.8707 475.758 70.757 475.732 70.666C475.705 70.575 475.648 70.5068 475.559 70.4613C475.48 70.4067 475.356 70.3794 475.187 70.3794C475.01 70.3794 474.877 70.4022 474.789 70.4477C474.7 70.4932 474.638 70.5568 474.603 70.6387C474.576 70.7115 474.563 70.8025 474.563 70.9116V75.5923C474.563 76.2382 474.461 76.7931 474.258 77.2571C474.054 77.7211 473.762 78.0804 473.381 78.3352C473.001 78.5899 472.545 78.7173 472.013 78.7173C471.447 78.7173 470.973 78.5853 470.592 78.3215C470.212 78.0486 469.924 77.6801 469.729 77.2162C469.534 76.7522 469.437 76.2155 469.437 75.6059V71.0072C469.437 70.8707 469.424 70.757 469.397 70.666C469.371 70.575 469.313 70.5068 469.225 70.4613C469.136 70.4067 469.003 70.3794 468.826 70.3794C468.649 70.3794 468.516 70.4067 468.428 70.4613C468.348 70.5068 468.291 70.575 468.255 70.666C468.229 70.757 468.215 70.8661 468.215 70.9935V75.6059C468.215 76.2336 468.299 76.8159 468.468 77.3526C468.636 77.8803 468.879 78.3397 469.198 78.7309C469.526 79.113 469.92 79.4132 470.38 79.6316Z" fill="#22BB68"/>
<path fill-rule="evenodd" clip-rule="evenodd" d="M480.857 79.8226C480.945 79.8772 481.073 79.9045 481.242 79.9045C481.419 79.9045 481.547 79.8772 481.627 79.8226C481.715 79.7771 481.773 79.7089 481.799 79.6179C481.835 79.5269 481.853 79.4178 481.853 79.2904V76.5066H484.251L486.102 79.5497C486.217 79.7225 486.337 79.8317 486.461 79.8772C486.594 79.9227 486.753 79.8817 486.939 79.7544C487.08 79.6634 487.178 79.577 487.231 79.4951C487.293 79.4132 487.311 79.3222 487.284 79.2222C487.266 79.1221 487.213 78.9993 487.125 78.8537L485.562 76.2945C485.644 76.2564 485.722 76.2134 485.797 76.1654C486.107 75.9653 486.359 75.7151 486.554 75.4149C486.757 75.1147 486.908 74.7963 487.005 74.4596C487.103 74.1139 487.151 73.7819 487.151 73.4635C487.151 72.954 487.076 72.5082 486.926 72.1261C486.784 71.735 486.58 71.412 486.315 71.1573C486.049 70.9025 485.735 70.7115 485.372 70.5841C485.018 70.4477 484.624 70.3794 484.19 70.3794H481.255C481.087 70.3794 480.958 70.4067 480.87 70.4613C480.79 70.5159 480.733 70.5887 480.697 70.6796C480.671 70.7615 480.657 70.8616 480.657 70.9799V79.2767C480.657 79.4041 480.666 79.5178 480.684 79.6179C480.71 79.7089 480.768 79.7771 480.857 79.8226ZM484.482 75.3057H481.853V71.6212H484.163C484.553 71.6212 484.88 71.694 485.146 71.8396C485.412 71.976 485.611 72.1807 485.744 72.4537C485.885 72.7266 485.956 73.0586 485.956 73.4498C485.956 73.7682 485.916 74.0412 485.837 74.2686C485.757 74.496 485.651 74.6871 485.518 74.8417C485.385 74.9964 485.23 75.1147 485.053 75.1965C484.876 75.2693 484.686 75.3057 484.482 75.3057Z" fill="#22BB68"/>
<path fill-rule="evenodd" clip-rule="evenodd" d="M499.85 79.6452C499.912 79.5633 499.938 79.4769 499.93 79.3859C499.93 79.2859 499.894 79.1676 499.823 79.0311L495.972 70.7615C495.937 70.6706 495.892 70.5978 495.839 70.5432C495.786 70.4886 495.724 70.4477 495.653 70.4204C495.583 70.3931 495.507 70.3794 495.428 70.3794C495.313 70.3794 495.202 70.4158 495.096 70.4886C494.998 70.5523 494.923 70.6387 494.87 70.7479L491.058 78.922C490.988 79.0766 490.943 79.2131 490.926 79.3313C490.917 79.4496 490.939 79.5497 490.992 79.6316C491.054 79.7134 491.151 79.7817 491.284 79.8362C491.506 79.9363 491.674 79.959 491.789 79.9045C491.913 79.8499 492.023 79.718 492.121 79.5087L493.175 77.1889H497.667L498.734 79.5224C498.832 79.7316 498.938 79.8635 499.053 79.9181C499.177 79.9727 499.345 79.95 499.558 79.8499C499.691 79.7862 499.788 79.718 499.85 79.6452ZM497.187 76.1381L495.414 72.2626L493.653 76.1381H497.187Z" fill="#22BB68"/>
<path d="M516.956 79.9045C516.779 79.9045 516.646 79.8772 516.558 79.8226C516.478 79.7771 516.425 79.7089 516.398 79.6179C516.372 79.5178 516.359 79.4041 516.359 79.2767V70.9935C516.359 70.757 516.403 70.5978 516.491 70.5159C516.589 70.4249 516.757 70.3794 516.996 70.3794H522.335C522.459 70.3794 522.565 70.3931 522.653 70.4204C522.742 70.4477 522.808 70.5068 522.853 70.5978C522.897 70.6888 522.919 70.8252 522.919 71.0072C522.919 71.1891 522.892 71.3256 522.839 71.4165C522.795 71.4984 522.729 71.553 522.64 71.5803C522.552 71.6076 522.445 71.6212 522.321 71.6212H517.554V74.446H520.874C520.998 74.446 521.1 74.4596 521.179 74.4869C521.268 74.5142 521.334 74.5688 521.378 74.6507C521.423 74.7326 521.445 74.8599 521.445 75.0328C521.445 75.1965 521.423 75.3194 521.378 75.4012C521.334 75.4831 521.268 75.5377 521.179 75.565C521.091 75.5832 520.98 75.5923 520.847 75.5923H517.554V78.6763H522.335C522.459 78.6763 522.565 78.69 522.653 78.7173C522.742 78.7446 522.808 78.8037 522.853 78.8947C522.897 78.9765 522.919 79.1084 522.919 79.2904C522.919 79.4723 522.892 79.6088 522.839 79.6998C522.795 79.7817 522.729 79.8362 522.64 79.8635C522.552 79.8908 522.445 79.9045 522.321 79.9045H516.956Z" fill="#22BB68"/>
</g>
<defs>
<filter id="filter0_d_508_828" x="0" y="0" width="526.919" height="88" filterUnits="userSpaceOnUse" color-interpolation-filters="sRGB">
<feFlood flood-opacity="0" result="BackgroundImageFix"/>
<feColorMatrix in="SourceAlpha" type="matrix" values="0 0 0 0 0 0 0 0 0 0 0 0 0 0 0 0 0 0 127 0" result="hardAlpha"/>
<feOffset dy="4"/>
<feGaussianBlur stdDeviation="2"/>
<feComposite in2="hardAlpha" operator="out"/>
<feColorMatrix type="matrix" values="0 0 0 0 0 0 0 0 0 0 0 0 0 0 0 0 0 0 0.15 0"/>
<feBlend mode="normal" in2="BackgroundImageFix" result="effect1_dropShadow_508_828"/>
<feBlend mode="normal" in="SourceGraphic" in2="effect1_dropShadow_508_828" result="shape"/>
</filter>
</defs>
</svg>
