<svg width="30" height="24" viewBox="0 0 30 24" fill="none" xmlns="http://www.w3.org/2000/svg">
<path d="M0 3H30V21.3871H0V3Z" fill="#5C9E31"/>
<path d="M26.1397 12.2045L14.9347 19.2835L3.85938 12.3342L15.0644 5.25513L26.1397 12.2045Z" fill="#FCEA2B"/>
<path d="M14.9994 16.5483C17.4045 16.5483 19.3542 14.5986 19.3542 12.1935C19.3542 9.78835 17.4045 7.83862 14.9994 7.83862C12.5943 7.83862 10.6445 9.78835 10.6445 12.1935C10.6445 14.5986 12.5943 16.5483 14.9994 16.5483Z" fill="#1E50A0"/>
<path d="M18.9484 14.0236C19.108 13.6754 19.2212 13.3078 19.2851 12.9301C18.9253 12.1779 18.4007 11.5163 17.7501 10.9947C17.0996 10.473 16.3399 10.1046 15.5274 9.9168C14.715 9.729 13.8707 9.72663 13.0572 9.90987C12.2437 10.0931 11.482 10.4573 10.8285 10.9753C10.7349 11.2924 10.6777 11.6192 10.6582 11.9493C11.3003 11.4225 12.0569 11.0534 12.8672 10.8714C13.6776 10.6894 14.5193 10.6996 15.3251 10.9012C16.1308 11.1028 16.8781 11.4902 17.5073 12.0324C18.1364 12.5746 18.63 13.2565 18.9484 14.0236Z" fill="white"/>
</svg>
