<svg width="38" height="27" viewBox="0 0 38 27" fill="none" xmlns="http://www.w3.org/2000/svg">
<g filter="url(#filter0_d_411_987)">
<path d="M4 4H34V22.3871H4V4Z" fill="#5C9E31"/>
<path d="M30.1397 13.2045L18.9347 20.2835L7.85938 13.3342L19.0644 6.25513L30.1397 13.2045Z" fill="#FCEA2B"/>
<path d="M18.9994 17.5483C21.4045 17.5483 23.3542 15.5986 23.3542 13.1935C23.3542 10.7884 21.4045 8.83862 18.9994 8.83862C16.5943 8.83862 14.6445 10.7884 14.6445 13.1935C14.6445 15.5986 16.5943 17.5483 18.9994 17.5483Z" fill="#1E50A0"/>
<path d="M22.9484 15.0236C23.108 14.6754 23.2212 14.3078 23.2851 13.9301C22.9253 13.1779 22.4007 12.5163 21.7501 11.9947C21.0996 11.473 20.3399 11.1046 19.5274 10.9168C18.715 10.729 17.8707 10.7266 17.0572 10.9099C16.2437 11.0931 15.482 11.4573 14.8285 11.9753C14.7349 12.2924 14.6777 12.6192 14.6582 12.9493C15.3003 12.4225 16.0569 12.0534 16.8672 11.8714C17.6776 11.6894 18.5193 11.6996 19.3251 11.9012C20.1308 12.1028 20.8781 12.4902 21.5073 13.0324C22.1364 13.5746 22.63 14.2565 22.9484 15.0236Z" fill="white"/>
</g>
<defs>
<filter id="filter0_d_411_987" x="0" y="0" width="38" height="26.3872" filterUnits="userSpaceOnUse" color-interpolation-filters="sRGB">
<feFlood flood-opacity="0" result="BackgroundImageFix"/>
<feColorMatrix in="SourceAlpha" type="matrix" values="0 0 0 0 0 0 0 0 0 0 0 0 0 0 0 0 0 0 127 0" result="hardAlpha"/>
<feOffset/>
<feGaussianBlur stdDeviation="2"/>
<feComposite in2="hardAlpha" operator="out"/>
<feColorMatrix type="matrix" values="0 0 0 0 0 0 0 0 0 0 0 0 0 0 0 0 0 0 0.25 0"/>
<feBlend mode="normal" in2="BackgroundImageFix" result="effect1_dropShadow_411_987"/>
<feBlend mode="normal" in="SourceGraphic" in2="effect1_dropShadow_411_987" result="shape"/>
</filter>
</defs>
</svg>
