<svg width="761" height="700" viewBox="0 0 761 700" fill="none" xmlns="http://www.w3.org/2000/svg">
<g clip-path="url(#clip0_340_696)">
<g opacity="0.27">
<path d="M335.52 1034.25C334.62 1021.17 343.563 1009.74 348.19 997.465C353.712 982.821 353.073 966.708 354.511 951.124C358.075 912.464 374.762 875.378 373.995 836.56C373.385 805.667 361.662 775.96 346.606 748.981C339.272 735.837 330.901 722.912 319.183 713.464C310.149 706.179 299.455 701.239 288.051 699.082C276.648 696.925 264.889 697.618 253.818 701.101C242.747 704.583 232.708 710.746 224.593 719.042C216.477 727.339 210.537 737.511 207.3 748.656C200.862 770.823 205.614 794.518 204.653 817.58C203.692 840.642 193.71 866.754 171.568 873.28C167.452 874.493 163.055 874.969 159.282 877.014C153.19 880.314 149.882 887.014 147.082 893.361C141.521 905.975 136.395 919.679 138.861 933.242C141.17 945.947 149.771 956.476 155.041 968.265C165.314 991.251 161.86 1019.78 146.396 1039.65" stroke="white" stroke-width="3" stroke-miterlimit="10"/>
<path d="M643.195 -72.201C640.848 -70.2819 638.753 -68.0748 636.959 -65.632C630.842 -57.7447 626.632 -48.5493 624.659 -38.765C622.886 -29.1016 623.682 -19.142 626.968 -9.88297C627.566 -7.7919 628.49 -5.80821 629.706 -4.00497C632.362 -0.490974 636.452 0.981008 640.185 2.90201C641.623 3.62008 642.993 4.47006 644.275 5.44101C649.694 9.65401 652.407 17.183 653.626 24.483C653.849 25.817 654.036 27.157 654.208 28.495C654.967 34.456 655.508 40.558 657.37 46.18C658.718 50.3016 660.918 54.0937 663.827 57.31C666.827 60.604 670.527 63.163 674.132 66.038C679.254 70.119 683.784 74.5 689.532 76.963C691.855 77.9368 694.289 78.621 696.779 79C700.079 79.539 703.533 79.722 706.841 80.1C713.741 80.9 720.041 82.614 724.517 87.614" stroke="white" stroke-width="3" stroke-miterlimit="10"/>
<path d="M659.247 -72.324C653.872 -67.4703 649.725 -61.4111 647.146 -54.6438C644.566 -47.8765 643.629 -40.5939 644.409 -33.394C644.509 -31.6341 645.037 -29.9252 645.947 -28.416C648.712 -24.434 654.706 -25.07 659.169 -23.173C664.558 -20.883 667.419 -14.873 668.401 -9.09897C669.383 -3.32497 668.971 2.63304 670.177 8.36404C673.152 22.502 686.977 33.545 701.422 33.324C709.858 33.195 719.152 29.8801 726.191 34.5331" stroke="white" stroke-miterlimit="10"/>
<path d="M416.421 -40.892C417.047 -47.5909 418.325 -54.2127 420.237 -60.663C421.042 -63.546 421.148 -66.579 420.546 -69.5111C419.839 -72.5676 418.677 -75.5004 417.097 -78.211C411.097 -89.151 402.042 -97.518 390.386 -99.811C385.466 -100.666 380.442 -100.746 375.497 -100.048C363.265 -95.624 349.684 -90.8991 339.329 -82.7481C333.246 -77.9571 327.393 -71.996 325.934 -64.432C324.734 -58.24 326.626 -52.014 327.069 -45.701C327.569 -38.545 327.277 -32.022 328.507 -25.434C330.201 -16.358 334.965 -7.29803 340.174 1.10497C347.574 13.036 358.174 22.649 370.927 25.771C375.448 26.864 379.993 27.0829 384.389 28.3999C387.889 29.4489 391.166 31.04 394.519 32.075C400.971 34.0586 407.874 34.0237 414.305 31.975C416.102 31.4839 417.777 30.6235 419.222 29.449C421.757 27.207 422.644 23.657 422.481 20.543C422.321 17.471 421.324 14.6589 420.469 11.6959C417.079 -0.0620546 416.311 -14.553 416.049 -28.298C415.963 -32.592 416.099 -36.86 416.421 -40.892Z" stroke="white" stroke-width="3" stroke-miterlimit="10"/>
<path d="M369.488 -71.626C364.832 -68.538 359.139 -67.166 354.768 -63.686C352.228 -61.6169 350.26 -58.9309 349.054 -55.8846C347.847 -52.8383 347.442 -49.5335 347.877 -46.286C349.328 -36.297 358.254 -29.296 363.041 -20.411C365.912 -15.081 367.426 -8.83006 371.747 -4.59006C388.776 12.1159 401.933 -13.49 395.657 -28.648C389.524 -43.461 391.879 -71.407 369.488 -71.626Z" stroke="white" stroke-miterlimit="10"/>
<path d="M218.376 22.777C201.183 36.396 201.847 62.407 205.73 83.993C209.613 105.579 214.636 129.785 202.288 147.911C192.775 161.874 175.261 168.229 164.176 180.98C152.524 194.38 149.363 213.094 140.431 228.447C125.976 253.292 95.856 271.204 95.131 299.939C94.931 308.134 97.317 316.274 96.677 324.446C95.657 337.469 87.223 348.556 82.401 360.698C71.648 387.778 79.47 418.828 92.43 444.924C105.39 471.02 123.306 494.591 134.282 521.581C145.258 548.571 148.226 581.381 131.724 605.39C104.997 644.285 44.593 640.438 8.63101 670.997" stroke="white" stroke-miterlimit="10"/>
<path d="M39.6548 397.295C58.5174 425.08 75.9614 453.802 91.9198 483.351C101.141 500.428 109.985 518.136 113.015 537.306C116.045 556.476 112.47 577.585 99.3628 591.898C89.0948 603.111 74.3728 608.938 60.1858 614.406" stroke="white" stroke-miterlimit="10"/>
<path d="M38.2648 451.06L64.5828 487.36C71.3098 496.639 78.1038 506.036 82.3688 516.673C86.6338 527.31 88.1758 539.484 84.1758 550.223C77.6158 567.839 58.6638 576.999 41.4038 584.446" stroke="white" stroke-miterlimit="10"/>
<path d="M181.164 19.252C173.464 36.269 177.552 55.996 181.155 74.322C184.758 92.648 187.392 113.022 177.462 128.839C174.001 134.35 169.232 138.89 164.751 143.61C155.495 153.36 147.324 164.075 139.174 174.765C134.067 181.465 128.916 188.235 125.45 195.912C123.322 200.624 121.86 205.618 119.669 210.3C110.409 230.091 89.1324 242.529 81.0054 262.813C73.1824 282.336 78.8444 306.153 67.6924 323.985C59.9314 336.394 45.5824 343.067 31.4574 346.9" stroke="white" stroke-miterlimit="10"/>
<path d="M161.782 17.318C155.472 32.177 158.889 49.302 161.856 65.26C163.667 75.011 165.156 85.398 164.146 95.16C163.617 101.362 161.713 107.368 158.572 112.742C155.654 117.572 151.638 121.59 147.856 125.758C140.043 134.372 133.102 143.78 126.131 153.142C121.76 159.014 117.331 164.942 114.284 171.598C112.412 175.686 111.084 179.998 109.141 184.052C106.241 190.091 102.074 195.352 97.5546 200.382C89.2726 209.602 79.8357 218.038 74.9967 229.223C72.7581 234.804 71.2916 240.664 70.6376 246.642C68.9736 258.767 68.6436 271.292 62.1036 281.632C55.2976 292.392 43.0666 298.42 31.1036 302.116" stroke="white" stroke-miterlimit="10"/>
<path d="M142.399 15.384C137.478 28.084 140.225 42.609 142.555 56.199C143.979 64.508 145.126 73.324 144.261 81.643C143.805 86.913 142.245 92.0279 139.681 96.655C137.304 100.802 134.044 104.301 130.961 107.916C124.591 115.393 118.881 123.497 113.088 131.528C109.452 136.576 105.746 141.65 103.116 147.293C101.5 150.757 100.31 154.393 98.6164 157.814C95.9508 162.854 92.5893 167.494 88.6305 171.598C81.5195 179.366 73.4125 186.398 68.9925 195.644C66.9347 200.234 65.4947 205.076 64.7104 210.044C62.8644 220.088 62.1404 230.531 56.5174 239.285C53.5634 243.885 47.6384 256.708 35.1234 261.585C23.3634 266.167 5.02944 262.829 0.177444 264.585" stroke="white" stroke-miterlimit="10"/>
<path d="M123.017 13.45C119.485 23.992 121.561 35.915 123.256 47.137C124.292 54.004 125.093 61.251 124.375 68.121C123.992 72.4606 122.776 76.6856 120.792 80.564C118.831 83.921 116.581 87.0998 114.066 90.064C109.14 96.406 104.66 103.204 100.046 109.906C97.0112 114.048 94.303 118.419 91.9457 122.98C90.5847 125.82 89.5307 128.78 88.0817 131.565C85.8153 135.679 82.9932 139.462 79.6947 142.806C73.7547 149.121 66.9767 154.747 62.9757 162.056C61.0985 165.661 59.6849 169.488 58.7687 173.448C56.7427 181.41 55.6227 189.771 50.9197 196.937C46.0247 204.393 38.0277 209.137 30.3847 212.559" stroke="white" stroke-miterlimit="10"/>
<path d="M103.634 11.514C101.491 19.898 102.897 29.221 103.956 38.075C104.741 43.5462 104.92 49.0874 104.49 54.598C104.18 58.0098 103.305 61.3465 101.902 64.472C100.53 67.1742 98.9485 69.7648 97.172 72.22C93.688 77.425 90.4379 82.92 87.0029 88.29C84.7487 91.6395 82.6722 95.1053 80.7819 98.673C79.6819 100.89 78.7599 103.173 77.5579 105.325C75.6933 108.514 73.4111 111.44 70.7719 114.025C66.0039 118.888 60.5539 123.108 56.9719 128.48C55.2787 131.105 53.8933 133.916 52.843 136.858C50.635 142.739 49.12 149.02 45.335 154.597C41.395 160.403 35.5169 164.505 30.0349 167.788" stroke="white" stroke-miterlimit="10"/>
<path d="M84.2505 9.57996C83.4975 15.805 84.2325 22.528 84.6565 29.013C84.9786 33.0283 84.9612 37.0636 84.6045 41.076C84.3649 43.564 83.8298 46.0146 83.0105 48.376C82.2227 50.4279 81.3094 52.4293 80.2755 54.369C78.2335 58.438 76.2155 62.626 73.9595 66.669C72.5295 69.242 70.9925 71.769 69.6135 74.361C68.7655 75.954 67.9835 77.561 67.0275 79.078C65.5639 81.3385 63.8215 83.4057 61.8415 85.231C58.2415 88.64 54.1225 91.455 50.9605 94.889C49.448 96.5497 48.0913 98.3459 46.9075 100.255C44.5165 104.055 42.6075 108.255 39.7425 112.242C36.7362 116.14 33.3657 119.742 29.6765 123.001" stroke="white" stroke-miterlimit="10"/>
<path d="M64.8681 7.646C65.8951 14.222 65.4331 20.937 64.7191 27.554C63.5741 38.181 61.2351 49.738 52.9191 56.446C49.2951 59.368 44.8501 61.075 40.9811 63.661C35.6971 67.21 31.6288 72.2943 29.3251 78.228" stroke="white" stroke-miterlimit="10"/>
<path d="M676.963 469.142C669.815 464.178 660.763 462.328 654.028 456.816C645.636 449.944 642.318 438.669 635.379 430.332C634.089 428.615 632.409 427.228 630.479 426.285C625.639 424.229 620.005 427.247 616.668 431.311C608.646 441.079 608.775 456.387 599.039 464.449C594.839 467.929 589.356 469.497 584.918 472.674C569.813 483.489 572.605 506.725 563.928 523.153C559.19 532.019 551.164 538.672 541.574 541.685C526.467 546.35 507.146 542.424 497.074 554.614C494.274 558.007 492.687 562.243 491.574 566.5C487.943 580.534 488.93 595.365 494.389 608.794C497.863 617.272 503.029 624.927 508.046 632.594C517.776 647.459 527.288 663.151 529.939 680.721C533.472 704.143 524.595 729.491 534.381 751.063C543.466 771.087 569.173 781.713 589.743 773.947C603.761 768.655 614.572 756.404 629.027 752.464C643.187 748.603 658.302 753.464 671.29 760.3C684.278 767.136 696.266 776.02 710.03 781.116C712.408 781.996 715.085 782.753 717.419 781.765C718.784 781.071 719.979 780.085 720.919 778.877C744.519 752.441 757.204 717.262 759.501 681.897C761.798 646.532 754.178 610.997 740.963 578.109C736.216 566.299 730.582 555.168 720.818 546.774C712.925 539.988 707.073 533.646 702.94 523.81C695.345 505.715 694.479 481.305 676.963 469.142Z" stroke="white" stroke-miterlimit="10"/>
<path d="M722.867 589.236C719.143 579.969 714.767 571.176 707.306 564.416C701.283 558.986 696.793 553.878 693.589 546.148C687.674 531.848 686.8 512.794 673.38 502.98C667.896 498.954 660.969 497.271 655.769 492.858C649.279 487.341 646.569 478.547 641.109 471.994C640.094 470.645 638.783 469.547 637.276 468.785C633.576 467.152 629.268 469.357 626.683 472.338C620.465 479.501 620.334 490.848 612.791 496.803C609.536 499.373 605.318 500.517 601.883 502.877C590.19 510.908 591.907 528.358 585.063 540.841C581.245 547.856 575.187 553.39 567.857 556.562C564.259 557.908 560.536 558.893 556.743 559.502C548.499 561.038 540.304 562.324 535.13 569.259C533.114 572.218 531.663 575.524 530.85 579.011C527.874 589.87 528.188 601.367 531.75 612.048C534.035 618.619 537.565 624.557 540.999 630.518C545.379 638.129 549.713 646.032 552.662 654.526C554.235 658.975 555.341 663.576 555.962 668.254C558.314 686.77 551.99 706.895 560.055 723.734C567.446 739.165 587.355 747.352 603.435 741.774C614.392 737.974 622.888 728.804 634.121 726.336C645.383 723.862 657.16 728.412 667.346 734.079C677.592 739.818 687.171 746.743 698.53 750.335C700.441 750.935 702.572 751.477 704.461 750.679C705.56 750.128 706.533 749.355 707.319 748.409C726.167 728.309 736.719 701.321 738.58 673.7C738.626 673.033 738.666 672.367 738.702 671.7C740.218 643.585 733.367 615.353 722.867 589.236Z" stroke="white" stroke-miterlimit="10"/>
<path d="M704.763 600.363C702.063 593.642 698.963 587.17 693.785 582.063C689.644 577.977 686.504 574.116 684.231 568.492C680.002 557.982 679.102 544.309 669.795 536.819C665.966 533.739 661.176 532.219 657.509 528.903C652.92 524.74 650.819 518.426 646.836 513.659C646.096 512.68 645.154 511.872 644.074 511.29C641.521 510.081 638.533 511.472 636.697 513.368C632.284 517.925 631.892 525.313 626.542 529.159C624.233 530.819 621.281 531.538 618.848 533.081C610.566 538.33 611.21 549.992 606.196 558.532C602.996 563.889 598.723 568.632 594.14 571.44C591.877 572.758 589.489 573.85 587.012 574.701C581.785 576.62 576.62 578.381 573.181 583.908C571.819 586.296 570.791 588.859 570.125 591.526C567.802 599.242 567.451 607.418 569.105 615.305C570.31 619.825 571.931 624.224 573.947 628.445C576.504 634.031 578.607 639.814 580.236 645.738C581.091 649.037 581.675 652.399 581.983 655.793C583.155 669.401 579.374 684.302 585.728 696.412C591.413 707.251 605.544 712.997 617.123 709.612C625.023 707.304 631.233 701.241 639.213 700.218C647.613 699.142 656.029 703.345 663.4 707.867C670.917 712.479 678.051 717.492 687.026 719.567C688.477 720.049 690.042 720.062 691.5 719.603C692.334 719.195 693.084 718.635 693.712 717.952C708.42 703.62 716.83 683.725 717.832 662.992C717.857 662.492 717.879 662 717.896 661.504C718.628 640.638 712.548 619.715 704.763 600.363Z" stroke="white" stroke-miterlimit="10"/>
<path d="M686.662 611.491C684.98 607.314 683.152 603.178 680.262 599.703C677.966 597.078 676.142 594.075 674.87 590.828C672.327 584.109 671.413 575.796 666.208 570.652C664.04 568.51 661.381 567.152 659.248 564.942C656.561 562.133 655.067 558.301 652.563 555.317C652.098 554.707 651.524 554.188 650.87 553.786C650.191 553.483 649.44 553.378 648.705 553.484C647.969 553.591 647.278 553.903 646.712 554.386C644.103 556.338 643.449 559.764 640.294 561.503C638.931 562.253 637.242 562.549 635.812 563.273C630.943 565.738 630.512 571.614 627.331 576.208C624.843 579.854 622.561 583.568 620.423 586.308C619.441 587.556 618.392 588.751 617.282 589.887C614.689 592.324 612.63 595.272 611.234 598.546C610.525 600.246 609.993 602.146 609.401 604.03C607.804 608.724 606.816 613.605 606.462 618.551C606.412 621.161 606.557 623.772 606.897 626.361C607.227 629.626 607.608 633.061 607.814 636.936C607.914 638.956 608.005 641.091 608.005 643.317C607.996 652.017 606.734 661.7 611.405 669.074C615.36 675.327 623.734 678.628 630.817 677.427C635.652 676.61 639.649 673.757 644.31 674.078C649.932 674.463 654.893 678.278 659.457 681.633C664.236 685.143 668.898 688.273 675.526 688.77C676.539 688.925 677.575 688.832 678.544 688.5C679.113 688.233 679.64 687.886 680.109 687.469C685.345 683.201 689.579 677.835 692.513 671.751C695.447 665.667 697.01 659.012 697.089 652.258C697.089 651.935 697.096 651.612 697.094 651.287C697.04 637.693 691.73 624.075 686.662 611.491Z" stroke="white" stroke-miterlimit="10"/>
<path d="M657.674 596.289C655.34 593.83 651.528 592.436 648.474 593.904C645.827 596.793 646.441 601.331 647.561 605.087C648.681 608.843 650.139 612.908 648.684 616.548C646.47 622.088 638.951 623.359 635.4 628.148C633.966 630.227 633.344 632.761 633.654 635.268C633.964 637.775 635.184 640.081 637.081 641.748C640.657 644.683 645.939 644.89 649.407 647.948C655.726 653.527 656.093 661.925 666.507 656.998C672.775 654.032 677.068 648.489 676.346 641.535C675.671 635.035 670.969 628.566 668.562 622.609C665.29 614.534 663.842 602.783 657.674 596.289Z" stroke="white" stroke-miterlimit="10"/>
<path d="M585.505 1021.06C591.641 1007.54 596.845 993.609 601.08 979.373C603.32 971.842 603.867 961.26 596.467 958.62C593.757 957.653 590.737 958.21 587.922 957.612C580.545 956.045 577.122 947.482 576.193 939.997C576.13 938.174 575.651 936.389 574.793 934.779C573.048 932.132 569.488 931.52 566.331 931.232C554.674 930.167 542.299 930.066 532.358 923.886C517.328 914.541 513.046 894.686 512.602 876.994C512.129 857.897 514.488 838.836 519.602 820.431C523.262 807.269 528.37 793.631 525.272 780.331C523.617 773.224 519.718 766.85 517.415 759.926C513.778 748.994 514.248 737.198 513.539 725.699C511.299 690.839 498.037 657.592 475.667 630.762C468.245 621.907 459.594 613.651 448.891 609.299C436.186 604.134 421.671 604.984 408.536 608.934C395.401 612.884 383.359 619.734 371.444 626.526C363.027 631.326 353.489 637.992 353.714 647.678C353.802 651.496 355.49 655.378 354.337 659.02C352.608 664.485 345.82 666.137 341.419 669.809C334.289 675.757 334.086 687.045 337.986 695.472C341.886 703.899 348.91 710.377 355.01 717.378C387.468 754.633 394.155 807.519 394.559 856.928C394.659 869.288 394.427 881.866 390.682 893.646C388.394 900.846 384.834 907.602 382.687 914.846C378.987 927.325 379.635 940.606 379.087 953.611C377.838 982.436 370.564 1010.68 357.734 1036.52" stroke="white" stroke-miterlimit="10"/>
<path d="M566.515 1016.87C571.882 1010.65 577.408 1004.13 579.538 996.197C581.668 988.259 579.311 978.475 572.038 974.652C570.556 973.872 568.875 973.324 567.774 972.063C566.124 970.172 566.31 967.373 566.153 964.869C565.811 960.564 564.223 956.453 561.582 953.037C558.94 949.62 555.361 947.048 551.281 945.633C541.008 942.262 528.746 946.656 519.52 941.018C513.827 937.539 510.793 931.048 508.474 924.792C500.238 902.52 497.048 878.697 499.134 855.043C501.124 832.707 507.804 810.262 503.664 788.222C502.149 780.154 499.216 772.422 497.401 764.412C495.142 754.444 494.643 744.171 493.217 734.051C490.552 715.186 484.684 696.915 475.866 680.026C467.866 664.726 457 650.254 441.834 642.013C426.668 633.772 406.588 633.013 392.908 643.536C390.693 645.236 388.598 647.329 387.808 650.008C386.74 653.619 388.24 657.539 387.578 661.246C386 670.082 373.455 673.6 371.901 682.441C371.19 686.488 373.063 690.498 374.924 694.161C388.507 720.888 404.447 747.061 410.558 776.408C413.518 790.628 414.077 805.223 414.626 819.737C415.589 845.179 416.507 871.066 409.975 895.675C407.768 903.986 404.727 912.075 402.947 920.49C399.196 938.216 401.175 956.626 399.437 974.663C397.817 991.372 393.025 1007.62 385.317 1022.53" stroke="white" stroke-miterlimit="10"/>
<path d="M453.378 695.32C450.578 690.155 447.413 684.914 442.507 681.68C437.601 678.446 430.482 677.838 426.148 681.805C423.826 683.931 422.448 687.162 419.601 688.505C417.341 689.575 414.641 689.197 412.292 690.051C408.556 691.41 406.532 695.682 406.568 699.657C406.604 703.632 408.262 707.392 409.918 711.005C419.931 732.838 431.171 754.639 434.585 778.416C437.532 798.938 434.479 820.006 437.827 840.466C439.054 847.966 442.352 856.566 449.754 858.283C469.837 862.938 484.509 832.252 483.577 816.247C482.077 790.622 479.377 764.765 471.977 740.104C467.33 724.577 461.098 709.57 453.378 695.32Z" stroke="white" stroke-miterlimit="10"/>
<path d="M354.111 536.125C338.286 518.286 314.866 508.201 300.227 489.378C292.536 479.488 286.239 466.524 274.053 463.622C267.447 462.049 260.523 463.954 254.202 466.431C249.473 468.159 245.004 470.53 240.92 473.477C222.754 487.235 220.091 515.391 201.368 528.377C194.845 532.903 186.742 535.251 181.312 541.042C175.981 546.728 174.112 554.862 173.772 562.648C173.432 570.434 174.404 578.248 173.781 586.017C172.227 605.391 160.881 624.43 165.91 643.205C168.97 654.623 177.683 663.652 186.989 670.942C195.348 677.491 204.852 683.231 215.406 684.395C235.518 686.613 254.146 671.995 274.381 672.028C280.326 672.04 286.206 673.328 292.15 673.468C298.094 673.608 304.45 672.393 308.705 668.242C312.574 664.467 314.383 658.6 319.105 655.969C320.435 655.228 321.932 654.792 323.186 653.93C329.007 649.93 326.031 641.017 326.486 633.97C328.055 609.7 360.577 611.47 371.086 594.66C381.53 577.965 365.102 548.514 354.111 536.125Z" stroke="white" stroke-miterlimit="10"/>
<path d="M326.381 547.262C322.327 543.054 317.854 539.271 313.031 535.972C304.438 529.827 295.407 524.036 288.817 515.762C283.448 509.011 279.017 500.162 270.67 498.02C266.146 496.859 261.412 498.02 257.078 499.557C253.849 500.621 250.779 502.12 247.954 504.012C235.397 512.804 233.454 531.746 220.112 540.012C216.584 542.197 212.67 544.183 209.629 546.72C208.034 548.006 206.632 549.515 205.468 551.201C204.392 552.829 203.561 554.606 203.002 556.476C201.927 560.51 201.369 564.664 201.342 568.839C201.108 574.423 201.665 580.011 201.13 585.563C200.195 595.243 195.977 604.798 194.703 614.298C194.074 618.367 194.236 622.518 195.178 626.526C197.243 634.736 203.215 641.346 209.71 646.726C215.579 651.626 222.238 655.768 229.61 656.698C243.796 658.533 257.053 648.203 271.231 647.504C275.363 647.304 279.444 647.966 283.553 647.843C287.662 647.72 292.038 646.679 294.994 643.688C297.694 640.945 299.002 636.811 302.233 634.847C303.142 634.294 304.165 633.947 305.017 633.313C309.025 630.333 307.167 624.02 307.588 618.95C309.013 601.782 331.01 601.85 338.188 589.561C344.206 579.161 337.357 562.754 330.323 552.331C329.135 550.547 327.818 548.852 326.381 547.262Z" stroke="white" stroke-miterlimit="10"/>
<path d="M298.654 558.399C296.343 556.233 293.8 554.328 291.072 552.719C286.204 549.687 281.181 546.595 277.409 542.146C274.362 538.533 271.809 533.807 267.288 532.418C264.866 531.828 262.329 531.92 259.957 532.684C258.228 533.09 256.558 533.716 254.989 534.548C248.063 538.41 246.567 547.814 238.858 551.634C235.995 552.927 233.49 554.898 231.558 557.375C230.71 558.59 230.057 559.931 229.625 561.348C229.224 562.719 228.986 564.132 228.915 565.558C228.727 568.53 229.025 571.769 228.915 575.019C228.796 578.401 228.931 581.762 228.483 585.098C227.698 590.92 225.13 596.657 224.303 602.422C223.91 604.882 223.96 607.392 224.45 609.834C225.522 614.834 228.769 619.011 232.436 622.504C235.828 625.735 239.636 628.279 243.821 628.994C252.088 630.405 259.956 624.422 268.089 622.971C270.405 622.557 272.689 622.596 274.965 622.209C277.359 621.916 279.587 620.831 281.293 619.125C282.829 617.418 283.632 615.013 285.37 613.716C285.859 613.351 286.406 613.094 286.859 612.688C289.053 610.719 288.31 607.014 288.7 603.919C289.968 593.854 301.494 592.238 305.288 584.451C308.568 577.719 305.088 567.989 301.043 561.491C300.365 560.374 299.564 559.336 298.654 558.399Z" stroke="white" stroke-miterlimit="10"/>
<path d="M271.754 570.657C271.612 570.2 271.319 569.805 270.922 569.538C270.337 569.346 269.709 569.321 269.111 569.467C264.611 569.786 262.083 562.767 257.601 563.267C255.344 563.517 253.737 565.785 253.482 568.041C253.395 570.319 253.855 572.585 254.824 574.649C255.792 576.71 256.354 578.938 256.478 581.211C256.417 584.456 254.489 587.369 253.894 590.56C253.41 593.206 253.855 595.937 255.152 598.293C259.778 606.626 266.829 597.432 268.689 592.075C270.833 585.899 274.348 576.949 271.754 570.657Z" stroke="white" stroke-miterlimit="10"/>
<path d="M34.1371 685.689C56.4178 671.922 80.1697 660.693 104.949 652.211C111.827 649.858 119.449 647.73 126.206 650.411C137.081 654.718 139.967 668.602 147.686 677.388C156.208 687.088 170.529 690.279 178.626 700.336C184.899 708.13 186.342 718.822 185.565 728.795C184.788 738.768 182.058 748.495 180.965 758.44C179.223 774.246 181.643 790.232 180.811 806.112C179.979 821.992 175.071 838.9 162.335 848.424C155.986 853.171 148.252 855.659 141.44 859.714C125.94 868.942 116.115 886.102 113.334 903.926C110.553 921.75 114.24 940.126 121.134 956.797C125.903 968.337 132.224 979.341 135.102 991.49C137.98 1003.64 136.751 1017.73 128.038 1026.67C125.264 1029.52 122.394 1035.8 119.438 1038.46C105.724 1050.79 88.0871 1058.12 70.0381 1061.9C51.9891 1065.68 33.4171 1066.09 14.9781 1065.96" stroke="white" stroke-miterlimit="10"/>
<path d="M35.877 719.748C53.0631 708.88 71.4678 700.071 90.712 693.503C96.055 691.68 101.958 690.044 107.218 692.027C115.679 695.218 118.109 705.676 124.251 712.278C131.157 719.7 142.482 722.33 148.966 730.278C153.991 736.435 155.317 744.837 154.866 752.738C154.656 755.901 154.279 759.052 153.735 762.175C152.96 766.875 152.003 771.546 151.464 776.275C150.033 788.817 151.559 801.475 150.838 814.087C150.138 826.579 146.508 839.837 137.064 847.556C132.356 851.403 126.622 853.556 121.583 856.882C113.605 862.148 107.695 870.294 104.158 879.482C102.608 883.525 101.515 887.729 100.899 892.015C98.869 906.057 101.575 920.538 106.499 933.635C109.899 942.719 114.504 951.322 116.137 960.728C117.792 970.256 115.988 980.935 108.623 987.615C106.246 989.77 103.746 994.44 101.25 996.479C90.035 1005.64 76.099 1011.47 61.8 1014.62C47.501 1017.77 32.861 1018.52 18.415 1018.97" stroke="white" stroke-miterlimit="10"/>
<path d="M714.292 501.733C719.099 487.265 708.234 476.271 701.781 464.819C695.726 454.07 693.237 442.807 680.129 437.995C674.8 436.039 668.881 435.586 664.003 432.682C660.403 430.54 657.671 427.234 655.015 423.994L635.422 400.094C631.173 394.911 626.778 389.603 620.916 386.354C615.054 383.105 607.302 382.347 601.876 386.281C592.413 393.141 595.666 407.866 591.817 418.902C586.796 433.294 569.85 440.349 563.261 454.094C555.91 453.162 546.678 453.136 543.205 459.682C540.123 465.491 543.836 472.359 546.361 478.43C549.291 485.478 550.589 493.615 547.784 500.712C544.979 507.809 537.192 513.229 529.758 511.5C523.812 510.116 518.239 504.624 512.537 506.8C510.037 507.755 508.296 510.016 506.047 511.469C492.726 520.063 473.356 499.785 466.218 519.351C460.873 534.006 465.698 551.776 452.508 563.898C439.687 575.682 417.529 569.852 405.339 559.882C392.997 549.787 400.173 531.304 385.797 522.236C383.314 520.669 380.488 519.706 378.002 518.142C369.282 512.651 366.567 501.236 359.702 493.552C350.082 482.782 333.85 480.787 322.58 471.759C315.29 465.92 310.58 457.559 304.88 450.159C299.18 442.759 291.575 435.823 282.269 435.054C274.677 434.427 267.597 438.298 260.12 438.054C251.658 437.777 245.372 434.769 236.403 435.932C233.61 436.294 230.684 436.887 228.576 438.758C225.876 441.151 225.176 445.004 223.665 448.279C217.373 461.923 197.401 465.089 191.58 478.939C188.456 486.37 189.956 495.916 184.292 501.651C179.542 506.46 171.373 506.271 165.464 502.988C159.555 499.705 155.417 494.026 151.62 488.433C130.229 456.895 113.527 422.42 102.036 386.085C101.292 383.732 100.574 381.152 101.462 378.848C103.076 374.659 108.583 374.013 112.531 371.875C119.247 368.235 121.631 359.601 121.146 351.975C120.661 344.349 118.023 336.988 117.539 329.364C115.859 302.95 138.928 282.687 155.576 262.11C169.397 245.004 179.661 225.309 185.767 204.182C187.018 199.844 188.315 195.11 191.935 192.411C196.955 188.67 203.967 190.464 210.214 190.072C215.451 189.637 220.423 187.589 224.447 184.21C228.472 180.832 231.35 176.289 232.685 171.207C233.957 165.932 233.464 160.415 233.74 154.995C234.92 131.913 249.604 106.902 237.04 87.504C233.822 82.538 228.905 78.298 227.963 72.456C227.248 68.021 229.016 63.601 230.749 59.456C238.623 40.616 246.497 21.7753 254.37 2.93396" stroke="white" stroke-width="3" stroke-miterlimit="10"/>
</g>
<g filter="url(#filter0_d_340_696)">
<path d="M736.68 46.2947C741.069 46.2947 744.627 42.763 744.627 38.4064C744.627 34.0498 741.069 30.5181 736.68 30.5181C732.291 30.5181 728.733 34.0498 728.733 38.4064C728.733 42.763 732.291 46.2947 736.68 46.2947Z" fill="white" stroke="white" stroke-width="1.5" stroke-miterlimit="10"/>
</g>
<g filter="url(#filter1_d_340_696)">
<path d="M114.813 417.045C119.202 417.045 122.761 413.513 122.761 409.157C122.761 404.8 119.202 401.268 114.813 401.268C110.424 401.268 106.866 404.8 106.866 409.157C106.866 413.513 110.424 417.045 114.813 417.045Z" fill="white" stroke="white" stroke-width="1.5" stroke-miterlimit="10"/>
</g>
<g filter="url(#filter2_d_340_696)">
<path d="M734.295 39.0943C723.695 49.6156 699.871 44.7293 717.331 81.9673C730.41 109.857 674.011 103.073 672.511 138.367C671.054 172.678 688.538 182.666 672.511 206.481C656.484 230.296 641.338 226.228 608.402 233.63C602.713 234.907 597.39 237.505 591.7 238.791C571.735 243.293 551.884 231.162 531.445 230.019C502.799 228.416 479.179 262.074 450.665 265.199C432.22 267.222 413.857 262.131 395.453 259.761C377.049 257.39 356.621 258.323 342.467 270.228C330.92 279.94 275.008 255.059 264.161 265.145C251.883 276.558 238.825 245.633 227.86 259.761C224.445 264.16 221.167 269.067 220.834 274.616C220.403 281.718 224.833 288.067 227.311 294.741C237.639 322.541 201.859 331.852 213.14 359.287C219.191 374.005 204.91 377.334 205.007 393.232C205.09 406.562 193.348 417.69 180.434 421.352C167.521 425.014 133.089 412.727 119.897 410.222" stroke="white" stroke-width="1.5" stroke-miterlimit="10"/>
</g>
</g>
<defs>
<filter id="filter0_d_340_696" x="716.983" y="18.7681" width="39.3945" height="39.2766" filterUnits="userSpaceOnUse" color-interpolation-filters="sRGB">
<feFlood flood-opacity="0" result="BackgroundImageFix"/>
<feColorMatrix in="SourceAlpha" type="matrix" values="0 0 0 0 0 0 0 0 0 0 0 0 0 0 0 0 0 0 127 0" result="hardAlpha"/>
<feOffset/>
<feGaussianBlur stdDeviation="5.5"/>
<feColorMatrix type="matrix" values="0 0 0 0 1 0 0 0 0 1 0 0 0 0 1 0 0 0 1 0"/>
<feBlend mode="normal" in2="BackgroundImageFix" result="effect1_dropShadow_340_696"/>
<feBlend mode="normal" in="SourceGraphic" in2="effect1_dropShadow_340_696" result="shape"/>
</filter>
<filter id="filter1_d_340_696" x="95.1162" y="389.518" width="39.3945" height="39.2766" filterUnits="userSpaceOnUse" color-interpolation-filters="sRGB">
<feFlood flood-opacity="0" result="BackgroundImageFix"/>
<feColorMatrix in="SourceAlpha" type="matrix" values="0 0 0 0 0 0 0 0 0 0 0 0 0 0 0 0 0 0 127 0" result="hardAlpha"/>
<feOffset/>
<feGaussianBlur stdDeviation="5.5"/>
<feColorMatrix type="matrix" values="0 0 0 0 1 0 0 0 0 1 0 0 0 0 1 0 0 0 1 0"/>
<feBlend mode="normal" in2="BackgroundImageFix" result="effect1_dropShadow_340_696"/>
<feBlend mode="normal" in="SourceGraphic" in2="effect1_dropShadow_340_696" result="shape"/>
</filter>
<filter id="filter2_d_340_696" x="108.756" y="27.566" width="637.071" height="406.209" filterUnits="userSpaceOnUse" color-interpolation-filters="sRGB">
<feFlood flood-opacity="0" result="BackgroundImageFix"/>
<feColorMatrix in="SourceAlpha" type="matrix" values="0 0 0 0 0 0 0 0 0 0 0 0 0 0 0 0 0 0 127 0" result="hardAlpha"/>
<feOffset/>
<feGaussianBlur stdDeviation="5.5"/>
<feColorMatrix type="matrix" values="0 0 0 0 1 0 0 0 0 1 0 0 0 0 1 0 0 0 1 0"/>
<feBlend mode="normal" in2="BackgroundImageFix" result="effect1_dropShadow_340_696"/>
<feBlend mode="normal" in="SourceGraphic" in2="effect1_dropShadow_340_696" result="shape"/>
</filter>
<clipPath id="clip0_340_696">
<rect width="760.423" height="700" fill="white"/>
</clipPath>
</defs>
</svg>
