<svg width="551" height="550" viewBox="0 0 551 550" fill="none" xmlns="http://www.w3.org/2000/svg">
<path d="M302.703 492.8C352.203 486.75 394.828 466.125 430.578 430.375C466.328 394.625 486.953 352 493.003 302.5H410.503C404.453 330 391.803 353.1 372.553 372.35C353.303 391.6 330.203 404.25 302.703 410.3V492.8ZM220.203 165H330.203L412.703 247.5H493.003C486.128 193.875 461.928 147.95 420.128 110C378.603 73.15 330.203 55 275.203 55C220.203 55 171.803 73.15 130.278 110C88.4781 147.95 64.2781 193.875 57.4031 247.5H137.703L220.203 165ZM247.703 492.8V410.3C220.203 404.25 197.103 391.6 177.853 372.35C158.603 353.1 145.953 330 139.903 302.5H57.4031C63.4531 351.175 84.0781 393.25 119.828 429C155.578 464.75 198.203 485.925 247.703 492.8ZM275.203 0C350.828 0 415.453 27.5 469.078 81.125C522.703 134.75 550.203 199.375 550.203 275C550.203 350.625 522.703 415.25 469.078 468.875C415.453 522.5 350.828 550 275.203 550C199.578 550 134.953 522.5 81.3281 468.875C27.7031 415.25 0.203125 350.625 0.203125 275C0.203125 199.375 27.7031 134.75 81.3281 81.125C134.953 27.5 199.578 0 275.203 0Z" fill="#F5F6F7"/>
</svg>
