<svg width="31" height="30" viewBox="0 0 31 30" fill="none" xmlns="http://www.w3.org/2000/svg">
<path d="M17 26.88C19.7 26.55 22.025 25.425 23.975 23.475C25.925 21.525 27.05 19.2 27.38 16.5H22.88C22.55 18 21.86 19.26 20.81 20.31C19.76 21.36 18.5 22.05 17 22.38V26.88ZM12.5 9H18.5L23 13.5H27.38C27.005 10.575 25.685 8.07 23.405 6C21.14 3.99 18.5 3 15.5 3C12.5 3 9.86 3.99 7.595 6C5.315 8.07 3.995 10.575 3.62 13.5H8L12.5 9ZM14 26.88V22.38C12.5 22.05 11.24 21.36 10.19 20.31C9.14 19.26 8.45 18 8.12 16.5H3.62C3.95 19.155 5.075 21.45 7.025 23.4C8.975 25.35 11.3 26.505 14 26.88ZM15.5 0C19.625 0 23.15 1.5 26.075 4.425C29 7.35 30.5 10.875 30.5 15C30.5 19.125 29 22.65 26.075 25.575C23.15 28.5 19.625 30 15.5 30C11.375 30 7.85 28.5 4.925 25.575C2 22.65 0.5 19.125 0.5 15C0.5 10.875 2 7.35 4.925 4.425C7.85 1.5 11.375 0 15.5 0Z" fill="white"/>
</svg>
