<svg width="85" height="80" viewBox="0 0 85 80" fill="none" xmlns="http://www.w3.org/2000/svg">
<path d="M42.1034 24C44.6642 24 47.12 25.0172 48.9307 26.8279C50.7414 28.6386 51.7586 31.0945 51.7586 33.6552C51.7586 36.2159 50.7414 38.6717 48.9307 40.4824C47.12 42.2931 44.6642 43.3103 42.1034 43.3103C39.5427 43.3103 37.0869 42.2931 35.2762 40.4824C33.4655 38.6717 32.4483 36.2159 32.4483 33.6552C32.4483 31.0945 33.4655 28.6386 35.2762 26.8279C37.0869 25.0172 39.5427 24 42.1034 24ZM22.7931 30.8966C24.3379 30.8966 25.7724 31.3103 27.0138 32.0552C26.6 36 27.7586 39.9172 30.131 42.9793C28.7517 45.6276 25.9931 47.4483 22.7931 47.4483C20.5982 47.4483 18.4932 46.5764 16.9412 45.0243C15.3892 43.4723 14.5172 41.3673 14.5172 39.1724C14.5172 36.9775 15.3892 34.8725 16.9412 33.3205C18.4932 31.7685 20.5982 30.8966 22.7931 30.8966ZM61.4138 30.8966C63.6087 30.8966 65.7137 31.7685 67.2657 33.3205C68.8177 34.8725 69.6897 36.9775 69.6897 39.1724C69.6897 41.3673 68.8177 43.4723 67.2657 45.0243C65.7137 46.5764 63.6087 47.4483 61.4138 47.4483C58.2138 47.4483 55.4552 45.6276 54.0759 42.9793C56.4483 39.9172 57.6069 36 57.1931 32.0552C58.4345 31.3103 59.869 30.8966 61.4138 30.8966ZM24.1724 59.1724C24.1724 53.4621 32.2 48.8276 42.1034 48.8276C52.0069 48.8276 60.0345 53.4621 60.0345 59.1724V64H24.1724V59.1724ZM9 64V59.8621C9 56.0276 14.2138 52.8 21.2759 51.8621C19.6483 53.7379 18.6552 56.331 18.6552 59.1724V64H9ZM75.2069 64H65.5517V59.1724C65.5517 56.331 64.5586 53.7379 62.931 51.8621C69.9931 52.8 75.2069 56.0276 75.2069 59.8621V64Z" fill="#22BB68"/>
</svg>
