<svg width="126" height="50" viewBox="0 0 126 50" fill="none" xmlns="http://www.w3.org/2000/svg">
<g clip-path="url(#clip0_335_25)">
<path d="M89.1559 13.4945C92.6056 13.4945 95.2716 14.4355 97.3103 16.3173C99.3488 18.1989 100.289 20.708 100.289 23.8443V38.8982H95.8988V35.4487H95.7419C93.8603 38.2715 91.1944 39.6828 88.0581 39.6828C85.3922 39.6828 83.0399 38.8985 81.1583 37.3306C79.4333 35.7624 78.3355 33.5671 78.3355 31.2149C78.3355 28.7058 79.2767 26.6671 81.1583 25.0989C83.0399 23.5308 85.7059 22.9036 88.8422 22.9036C91.6647 22.9036 93.8603 23.3742 95.585 24.4717V23.3742C95.585 21.9105 95.0387 20.447 93.9458 19.4933L93.7032 19.297C92.4488 18.1992 90.8806 17.572 89.1559 17.572C86.49 17.572 84.4515 18.6698 83.0399 20.8651L78.963 18.3556C81.4718 15.0624 84.7649 13.4945 89.1559 13.4945ZM67.0451 2.8313C69.8588 2.8313 72.5328 3.81047 74.6708 5.63645L75.0426 5.96733C77.238 7.84919 78.3355 10.672 78.3355 13.6514C78.3355 16.6308 77.238 19.2967 75.0426 21.3352C72.8471 23.3739 70.1814 24.4715 67.0451 24.4715L59.5181 24.3146V38.8985H54.8135V2.83105L67.0451 2.8313ZM89.7828 26.6671C87.9012 26.6671 86.3331 27.1374 85.0787 28.0784C83.824 28.8624 83.1968 29.96 83.1968 31.3713C83.1968 32.6259 83.8243 33.7235 84.7649 34.3509C85.8627 35.135 87.1172 35.6053 88.3718 35.6053C90.1279 35.6053 91.8843 34.9222 93.2581 33.6838L93.5466 33.41C95.1147 31.9987 95.8988 30.2737 95.8988 28.3918C94.4875 27.2943 92.4488 26.6668 89.7831 26.6668L89.7828 26.6671ZM67.3588 7.22199H59.5181V19.7673H67.3588C69.0836 19.7673 70.8086 19.1401 71.9064 17.8857C74.4152 15.5335 74.4152 11.6132 72.0632 9.26071L71.9064 9.10385C70.6517 7.84944 69.0836 7.06537 67.3586 7.22223L67.3588 7.22199ZM125.693 14.2786L110.169 49.8754H105.464L111.266 37.4872L101.074 14.4355H106.092L113.462 32.1553H113.619L120.832 14.4355H125.693V14.2786Z" fill="#5F6368"/>
<path d="M40.8573 21.1782C40.8573 19.7669 40.7005 18.3556 40.5436 16.9443H20.9424V24.9419H32.076C31.6056 27.4507 30.1943 29.8029 27.999 31.2144V36.3892H34.7419C38.6622 32.7826 40.8576 27.4507 40.8576 21.1784L40.8573 21.1782Z" fill="#4285F4"/>
<path d="M20.9414 41.4076C26.5865 41.4076 31.2909 39.5257 34.7409 36.3894L27.998 31.2147C26.1162 32.4691 23.764 33.2532 20.9414 33.2532C15.6096 33.2532 10.9051 29.6466 9.33701 24.6284H2.4375V29.96C6.04412 37.0167 13.1007 41.4076 20.9414 41.4076Z" fill="#34A853"/>
<path d="M9.33738 24.628C8.39669 22.1189 8.39669 19.2964 9.33738 16.6304V11.2988H2.43787C-0.541789 17.101 -0.541789 24.0008 2.43787 29.9596L9.33738 24.628Z" fill="#FBBC04"/>
<path d="M20.942 8.16283C23.9214 8.16283 26.744 9.26062 28.9396 11.2991L34.8984 5.34028C31.1347 1.89028 26.1168 -0.148201 21.0986 0.00841678C13.258 0.00841678 6.04473 4.39935 2.59473 11.456L9.49448 16.7876C10.9058 11.7694 15.6102 8.16283 20.942 8.16283Z" fill="#EA4335"/>
</g>
<defs>
<clipPath id="clip0_335_25">
<rect width="125.49" height="50" fill="white" transform="translate(0.203125)"/>
</clipPath>
</defs>
</svg>
