<svg width="20" height="21" viewBox="0 0 20 21" fill="none" xmlns="http://www.w3.org/2000/svg">
<path d="M10 7.91992C9.20435 7.91992 8.44141 8.23608 7.87866 8.79858C7.31616 9.36133 7 10.1243 7 10.9199C7 11.7156 7.31616 12.4785 7.87866 13.0413C8.44141 13.6038 9.20435 13.9199 10 13.9199C10.7957 13.9199 11.5586 13.6038 12.1213 13.0413C12.6838 12.4785 13 11.7156 13 10.9199C13 10.1243 12.6838 9.36133 12.1213 8.79858C11.5586 8.23608 10.7957 7.91992 10 7.91992Z" fill="white"/>
<path fill-rule="evenodd" clip-rule="evenodd" d="M14.2 0.919922H5.80005C4.26172 0.919922 2.78638 1.53101 1.69873 2.61865C0.611084 3.7063 0 5.18164 0 6.71997V15.1199C0 18.3198 2.6001 20.9199 5.80005 20.9199H14.2C15.7383 20.9199 17.2136 20.3088 18.3013 19.2212C19.3889 18.1335 20 16.6582 20 15.1199V6.71997C20 3.52002 17.3999 0.919922 14.2 0.919922ZM15.25 4.41992C15.5815 4.41992 15.8994 4.55151 16.1338 4.78613C16.2173 4.86963 16.2876 4.96362 16.3438 5.06494C16.3621 5.09814 16.3789 5.13232 16.3943 5.16699C16.4634 5.32397 16.5 5.49512 16.5 5.66992C16.5 6.00146 16.3684 6.31934 16.1338 6.55371C15.8994 6.78833 15.5815 6.91992 15.25 6.91992C14.9185 6.91992 14.6006 6.78833 14.3662 6.55371C14.1316 6.31934 14 6.00146 14 5.66992C14 5.6062 14.0049 5.54297 14.0144 5.48071C14.0215 5.43311 14.0315 5.38599 14.0442 5.33984C14.0681 5.25269 14.1013 5.16846 14.1433 5.08862C14.2014 4.97803 14.2761 4.87598 14.3662 4.78613C14.6006 4.55151 14.9185 4.41992 15.25 4.41992ZM10 5.91992C11.3262 5.91992 12.5979 6.44678 13.5356 7.38428C14.4731 8.32202 15 9.59375 15 10.9199C15 12.2461 14.4731 13.5178 13.5356 14.4556C12.5979 15.3931 11.3262 15.9199 10 15.9199C8.67383 15.9199 7.4021 15.3931 6.46436 14.4556C5.52686 13.5178 5 12.2461 5 10.9199C5 9.59375 5.52686 8.32202 6.46436 7.38428C7.4021 6.44678 8.67383 5.91992 10 5.91992Z" fill="white"/>
</svg>
