<svg width="82" height="50" viewBox="0 0 82 50" fill="none" xmlns="http://www.w3.org/2000/svg">
<g clip-path="url(#clip0_335_246)">
<path d="M30.5088 5.37598H52.5017V44.8935H30.5088V5.37598Z" fill="#FF5F00"/>
<path d="M31.9055 25.1349C31.9055 17.1058 35.6756 9.9841 41.4704 5.37593C37.2118 2.02468 31.8359 0 25.9711 0C12.0766 0 0.835938 11.2407 0.835938 25.1349C0.835938 39.0287 12.0766 50.2697 25.9708 50.2697C31.8356 50.2697 37.2115 48.245 41.4704 44.8935C35.6756 40.3553 31.9055 33.1639 31.9055 25.1349Z" fill="#EB001B"/>
<path d="M82.1745 25.1349C82.1745 39.0287 70.9338 50.2697 57.0397 50.2697C51.1749 50.2697 45.799 48.245 41.54 44.8935C47.4048 40.2856 51.1053 33.1639 51.1053 25.1349C51.1053 17.1058 47.3348 9.9841 41.54 5.37593C45.7987 2.02468 51.1749 0 57.0397 0C70.9338 0 82.1745 11.3107 82.1745 25.1349Z" fill="#F79E1B"/>
</g>
<defs>
<clipPath id="clip0_335_246">
<rect width="81.6456" height="50" fill="white" transform="translate(0.203125)"/>
</clipPath>
</defs>
</svg>
