<svg width="50" height="50" viewBox="0 0 50 50" fill="none" xmlns="http://www.w3.org/2000/svg">
<path d="M13 18C13 17.4477 13.4477 17 14 17H36C36.5523 17 37 17.4477 37 18V18.6667C37 19.219 36.5523 19.6667 36 19.6667H14C13.4477 19.6667 13 19.219 13 18.6667V18ZM13 24.6667C13 24.1144 13.4477 23.6667 14 23.6667H36C36.5523 23.6667 37 24.1144 37 24.6667V25.3333C37 25.8856 36.5523 26.3333 36 26.3333H14C13.4477 26.3333 13 25.8856 13 25.3333V24.6667ZM13 31.3333C13 30.781 13.4477 30.3333 14 30.3333H36C36.5523 30.3333 37 30.781 37 31.3333V32C37 32.5523 36.5523 33 36 33H14C13.4477 33 13 32.5523 13 32V31.3333Z" fill="#22BB68"/>
</svg>
