<svg width="356" height="592" viewBox="0 0 356 592" fill="none" xmlns="http://www.w3.org/2000/svg">
<path opacity="0.05" d="M100.786 573.917C88.9531 585.75 77.1198 591.667 59.3698 591.667C41.6198 591.667 29.7865 585.75 17.9531 573.917C6.11978 562.083 0.203125 550.25 0.203125 532.5C0.203125 514.75 6.11978 502.917 17.9531 491.083C29.7865 479.25 44.5781 473.333 59.3698 473.333C74.1614 473.333 88.9531 479.25 100.786 491.083C112.62 502.917 118.536 514.75 118.536 532.5C118.536 550.25 112.62 562.083 100.786 573.917ZM355.203 502.917C355.203 517.708 349.286 532.5 337.453 544.333C325.62 556.167 310.828 562.083 296.036 562.083V147.917C310.828 147.917 325.62 153.833 337.453 165.667C349.286 177.5 355.203 192.292 355.203 207.083V502.917ZM59.3698 0H177.703C177.703 14.7917 171.786 29.5833 159.953 41.4167C148.12 53.25 133.328 59.1667 118.536 59.1667V147.917H266.453V562.083H142.203C148.12 547.292 148.12 538.417 148.12 532.5C148.12 508.833 139.245 488.125 121.495 470.375C103.745 452.625 83.0364 443.75 59.3698 443.75V0Z" fill="#364D5F"/>
</svg>
