<svg width="19" height="30" viewBox="0 0 19 30" fill="none" xmlns="http://www.w3.org/2000/svg">
<path d="M5.6 29.1C5 29.7 4.4 30 3.5 30C2.6 30 2 29.7 1.4 29.1C0.800001 28.5 0.5 27.9 0.5 27C0.5 26.1 0.800001 25.5 1.4 24.9C2 24.3 2.75 24 3.5 24C4.25 24 5 24.3 5.6 24.9C6.2 25.5 6.5 26.1 6.5 27C6.5 27.9 6.2 28.5 5.6 29.1ZM18.5 25.5C18.5 26.25 18.2 27 17.6 27.6C17 28.2 16.25 28.5 15.5 28.5V7.5C16.25 7.5 17 7.8 17.6 8.4C18.2 9 18.5 9.75 18.5 10.5V25.5ZM3.5 0H9.5C9.5 0.75 9.2 1.5 8.6 2.1C8 2.7 7.25 3 6.5 3V7.5H14V28.5H7.7C8 27.75 8 27.3 8 27C8 25.8 7.55 24.75 6.65 23.85C5.75 22.95 4.7 22.5 3.5 22.5V0Z" fill="white"/>
</svg>
