<svg width="43" height="50" viewBox="0 0 43 50" fill="none" xmlns="http://www.w3.org/2000/svg">
<g clip-path="url(#clip0_335_5)">
<path d="M36.1582 3.89204C33.8512 1.26257 29.681 0.135254 24.3461 0.135254H8.86264C8.33479 0.135273 7.82427 0.323588 7.42286 0.666342C7.02144 1.0091 6.75546 1.4838 6.67273 2.00512L0.225714 42.8937C0.0975688 43.7 0.721907 44.4301 1.53913 44.4301H11.0981L13.4987 29.2031L13.4242 29.68C13.5953 28.6036 14.5158 27.8098 15.6058 27.8098H20.1482C29.0717 27.8098 36.059 24.1853 38.1001 13.7003C38.1606 13.3902 38.2131 13.0884 38.2585 12.7935C38.0009 12.6571 38.0009 12.6571 38.2585 12.7935C38.8663 8.9182 38.2544 6.28029 36.1582 3.89204Z" fill="#27346A"/>
<path d="M17.1563 11.3975C17.4177 11.2731 17.7035 11.2086 17.9929 11.2088H30.1317C31.5691 11.2088 32.9098 11.3023 34.135 11.4995C34.4778 11.5542 34.8189 11.6194 35.1577 11.6952C35.6379 11.8011 36.1125 11.9308 36.5799 12.0838C37.1822 12.2849 37.7431 12.5192 38.2587 12.7935C38.8663 8.91671 38.2544 6.28029 36.1582 3.89204C33.8499 1.26257 29.681 0.135254 24.3461 0.135254H8.86131C7.77108 0.135254 6.8436 0.928962 6.67273 2.00512L0.225715 42.8922C0.0975697 43.6998 0.721907 44.429 1.5378 44.429H11.0981L16.0787 12.8445C16.1277 12.5341 16.2513 12.2402 16.4391 11.9881C16.6268 11.736 16.8729 11.5334 17.1563 11.3975Z" fill="#27346A"/>
<path d="M38.1001 13.7002C36.0591 24.1837 29.072 27.8097 20.1483 27.8097H15.6046C14.5145 27.8097 13.5938 28.6036 13.4245 29.6799L10.4379 48.6128C10.3263 49.3185 10.872 49.9579 11.5859 49.9579H19.6438C20.1054 49.9577 20.5518 49.7929 20.9027 49.4931C21.2537 49.1932 21.4861 48.778 21.5582 48.3221L21.6367 47.9115L23.1554 38.2863L23.2533 37.7544C23.3254 37.2985 23.5578 36.8833 23.9087 36.5835C24.2596 36.2836 24.7059 36.1188 25.1675 36.1186H26.3735C34.1793 36.1186 40.2913 32.9474 42.0774 23.7759C42.823 19.9431 42.4372 16.7431 40.465 14.4954C39.8668 13.8146 39.124 13.2524 38.2586 12.7935C38.2117 13.0898 38.1609 13.3901 38.1001 13.7002Z" fill="#2790C3"/>
<path d="M36.1221 11.9418C35.8039 11.8488 35.4826 11.7666 35.1589 11.6951C34.8199 11.6206 34.4789 11.5557 34.1362 11.5007C32.9097 11.3022 31.57 11.2085 30.1313 11.2085H17.994C17.7043 11.2078 17.4183 11.2729 17.1574 11.3987C16.8737 11.5342 16.6273 11.7367 16.4394 11.9889C16.2516 12.241 16.1281 12.5351 16.0796 12.8458L13.4998 29.203L13.4253 29.6799C13.595 28.6035 14.5155 27.8097 15.6058 27.8097H20.1495C29.073 27.8097 36.0601 24.1852 38.1011 13.7002C38.1619 13.3901 38.2129 13.0896 38.2597 12.7934C37.7428 12.5206 37.1834 12.2848 36.5809 12.085C36.4289 12.0346 36.276 11.9868 36.1223 11.9418" fill="#1F264F"/>
</g>
<defs>
<clipPath id="clip0_335_5">
<rect width="42.3841" height="50" fill="white" transform="translate(0.203125)"/>
</clipPath>
</defs>
</svg>
