<?xml version="1.0" standalone="no"?>
<!DOCTYPE svg PUBLIC "-//W3C//DTD SVG 20010904//EN"
 "http://www.w3.org/TR/2001/REC-SVG-20010904/DTD/svg10.dtd">
<svg version="1.0" xmlns="http://www.w3.org/2000/svg"
 width="300.000000pt" height="300.000000pt" viewBox="0 0 300.000000 300.000000"
 preserveAspectRatio="xMidYMid meet">
<metadata>
Created by potrace 1.14, written by Peter Selinger 2001-2017
</metadata>
<g transform="translate(0.000000,300.000000) scale(0.100000,-0.100000)"
fill="#000000" stroke="none">
<path d="M1350 2993 c-304 -44 -509 -122 -720 -271 -281 -199 -494 -509 -581
-843 -52 -203 -61 -467 -21 -665 75 -373 282 -700 583 -920 193 -142 403 -231
640 -272 89 -16 149 -19 274 -17 88 2 174 6 190 9 17 4 66 14 110 22 149 30
315 97 460 187 355 219 604 576 686 988 27 131 33 373 13 504 -74 493 -374
906 -821 1129 -136 68 -249 105 -418 137 -58 11 -344 20 -395 12z m956 -836
l0 -158 -43 43 -43 42 -218 -216 c-119 -119 -226 -221 -238 -227 -22 -10 -65
-7 -93 9 -26 14 -49 63 -46 99 3 29 32 63 226 257 l223 224 -42 43 -42 43 158
0 158 0 0 -159z m-1383 121 c12 -6 44 -32 71 -57 27 -25 54 -50 60 -56 18 -16
240 -219 246 -225 5 -5 215 -197 262 -240 16 -14 32 -39 36 -55 10 -35 8 -618
-1 -657 -9 -35 -67 -71 -104 -65 -42 7 -56 15 -77 44 -18 25 -20 47 -20 311
l-1 284 -61 56 c-33 32 -103 95 -154 142 -52 47 -105 96 -119 109 -26 23 -205
188 -246 226 -56 52 -60 112 -11 161 37 37 78 44 119 22z m1313 -716 c20 -27
21 -49 20 -369 l-1 -303 58 0 c31 0 57 -2 57 -4 0 -6 -210 -216 -216 -216 -1
0 -52 48 -111 108 l-108 107 58 3 57 3 0 315 c0 252 3 320 14 342 13 26 39 44
76 55 20 6 80 -19 96 -41z m-1328 -92 c1 0 11 -15 22 -32 19 -31 20 -51 20
-290 l0 -258 60 0 61 0 -111 -111 c-92 -91 -114 -108 -126 -98 -26 21 -204
200 -204 205 0 2 26 4 58 4 l57 0 0 256 c-1 198 2 262 13 283 22 43 68 63 117
49 16 -4 31 -8 33 -8z"/>
</g>
</svg>
